<?xml version="1.0" encoding="UTF-8" standalone="no"?>
<svg
   xmlns:dc="http://purl.org/dc/elements/1.1/"
   xmlns:cc="http://creativecommons.org/ns#"
   xmlns:rdf="http://www.w3.org/1999/02/22-rdf-syntax-ns#"
   xmlns:svg="http://www.w3.org/2000/svg"
   xmlns="http://www.w3.org/2000/svg"
   xmlns:sodipodi="http://sodipodi.sourceforge.net/DTD/sodipodi-0.dtd"
   xmlns:inkscape="http://www.inkscape.org/namespaces/inkscape"
   width="512"
   height="330"
   viewBox="0 0 512 330"
   id="svg2"
   version="1.1"
   inkscape:version="0.91 r13725"
   sodipodi:docname="card-exchange.svg">
  <metadata
     id="metadata10">
    <rdf:RDF>
      <cc:Work
         rdf:about="">
        <dc:format>image/svg+xml</dc:format>
        <dc:type
           rdf:resource="http://purl.org/dc/dcmitype/StillImage" />
        <dc:title></dc:title>
      </cc:Work>
    </rdf:RDF>
  </metadata>
  <defs
     id="defs8" />
  <sodipodi:namedview
     pagecolor="#ffffff"
     bordercolor="#666666"
     borderopacity="1"
     objecttolerance="10"
     gridtolerance="10"
     guidetolerance="10"
     inkscape:pageopacity="0"
     inkscape:pageshadow="2"
     inkscape:window-width="1366"
     inkscape:window-height="718"
     id="namedview6"
     showgrid="false"
     inkscape:zoom="0.34232712"
     inkscape:cx="319.12204"
     inkscape:cy="142.12641"
     inkscape:window-x="0"
     inkscape:window-y="0"
     inkscape:window-maximized="1"
     inkscape:current-layer="svg2" />
  <g
     id="g4238"
     transform="matrix(1.0325104,0,0,1.0325104,-9.5721472,-6.133423)">
    <path
       sodipodi:nodetypes="ssssscssssssssscssssssccsssssssccsss"
       inkscape:connector-curvature="0"
       id="path4221"
       d="m 65.04537,249.27125 c 10.883069,-17.89309 13.665658,-21.03511 18.628675,-21.03511 3.948667,0 36.104185,23.06824 38.290305,27.46934 2.99094,6.0213 -1.77417,14.48968 -8.15327,14.48968 -1.88574,0 -5.96078,-1.85141 -9.05567,-4.11429 -3.09489,-2.26284 -5.932084,-3.78565 -6.304869,-3.38398 -1.500985,1.61717 6.219369,14.858 12.792829,21.9404 17.77305,19.1491 46.00745,24.04486 68.94332,11.95457 4.71587,-2.4859 12.15966,-8.6863 17.47572,-14.55664 7.45229,-8.22931 10.17055,-10.22625 13.92019,-10.22625 5.60385,0 10.02847,6.00162 8.68295,11.77763 -1.37353,5.89631 -15.82394,21.55102 -25.67307,27.81267 -4.94288,3.14248 -13.27072,7.13963 -18.50633,8.88261 -11.90313,3.96259 -32.2406,4.23884 -43.75668,0.59437 -20.81848,-6.5884 -40.664597,-23.75744 -48.696298,-42.12757 -2.40596,-5.50289 -5.048502,-10.03274 -5.872317,-10.06633 -0.823815,-0.0335 -3.011736,2.45718 -4.862075,5.53498 -4.089517,6.80243 -9.460718,8.63725 -14.620776,4.99449 -6.307088,-4.45253 -4.871152,-10.80545 6.767366,-29.94057 z m 25.218576,-62.39808 c 16.239894,-24.1542 46.433834,-37.55516 74.487444,-33.05973 24.48853,3.92428 48.07377,21.94898 58.86907,44.99004 2.59413,5.53679 5.21239,10.03938 5.8184,10.00569 0.606,-0.0337 2.94899,-2.93853 5.20665,-6.45518 4.6432,-7.23271 10.77926,-8.62846 15.13495,-3.44284 4.5666,5.43674 2.97183,11.03128 -8.17306,28.67187 -10.13405,16.04054 -14.94808,21.63264 -18.62286,21.63264 -2.92228,0 -37.61178,-25.27136 -38.63567,-28.14616 -1.63679,-4.59564 -1.14513,-7.19074 2.00548,-10.58527 4.05703,-4.37113 10.15214,-4.05872 16.87749,0.86508 6.83399,5.00335 7.12507,2.80158 0.99121,-7.49732 -6.36769,-10.69142 -14.99535,-18.6537 -26.67094,-24.61395 -17.39988,-8.08534 -36.40399,-6.16744 -49.81159,0.94015 -8.06919,4.29673 -13.65015,8.77201 -19.62213,15.73463 -10.22861,11.92527 -15.90563,12.97852 -20.39733,3.78432 -2.408324,-4.92973 -2.259224,-5.68163 2.542886,-12.82397 z"
       style="fill:#fd8e42" />
    <path
       sodipodi:nodetypes="cccssscccccccsccssssssssssccccccccccccccsscccsscccscscccccsscssscsss"
       inkscape:connector-curvature="0"
       id="path4204-3"
       d="m 255.56337,276.85166 c -3.11641,-3.11641 -3.12407,-7.00987 -0.0195,-10.11405 l 2.24312,-2.24319 97.323,0 c 87.31235,0 84.52652,0.14248 92.08682,-4.70898 4.71013,-3.02246 8.02276,-6.85104 10.50284,-12.13863 l 1.9961,-4.25571 0.21561,-56.21156 0.21566,-56.21156 -195.6683,0 -195.668268,0 -0.23261,17.33418 -0.23268,17.33413 -2.15312,1.85071 c -3.02138,2.59698 -7.32517,2.52288 -10.020557,-0.17244 l -2.023095,-2.02317 0,-60.35817 c 0,-66.508403 -0.116398,-64.720733 4.820152,-74.047533 3.16394,-5.97801 11.13495,-13.94902 17.11294,-17.11307 9.79262,-5.1830552 -4.37444,-4.8210912 188.301928,-4.8110362 191.7666,0.01002 177.75063,-0.339544 187.96217,4.6876062 6.60818,3.25319 14.25061,10.92803 17.50995,17.58418 5.09764,10.41043 4.82427,4.02744 4.82427,112.638923 0,108.23516 0.23273,102.5986 -4.63494,112.24139 -2.71805,5.3844 -9.41868,12.762 -14.62578,16.10341 -2.1288,1.36603 -6.17683,3.38151 -8.99569,4.47888 l -5.12518,1.99522 -82.72582,0.21174 -100.72572,0.21174 -2.26309,-2.26301 z m 204.51574,-183.485933 0,-23.02179 -195.68527,0 -195.685288,0 0,23.02179 0,23.021763 195.685288,0 195.68527,0 z m 0,-42.06734 c 0,-10.49799 -6.3726,-20.50369 -16.11525,-25.30273 l -4.22066,-2.07902 -175.34936,0 -175.349368,0 -4.40441,2.16281 c -9.2954,4.56456 -15.12108,13.14378 -15.76778,23.22045 l -0.36559,5.69618 195.786208,0 195.78621,0 z M 292.29392,221.53934 c -4.38096,-1.80121 -5.53997,-8.3567 -2.08781,-11.80888 l 2.02316,-2.02316 32.9523,0 32.9523,0 2.33921,2.33926 c 2.05739,2.05736 2.28841,2.71818 1.91737,5.48434 -0.232,1.72984 -1.14783,3.87149 -2.03518,4.7592 -1.58366,1.58428 -2.21029,1.61688 -34.01512,1.76974 -17.8209,0.0856 -33.14169,-0.14857 -34.04623,-0.5205 z m -0.44651,-35.74786 c -6.15081,-3.33791 -4.43523,-12.47825 2.58086,-13.75021 1.41886,-0.25724 31.06922,-0.36645 65.88972,-0.24276 68.36259,0.24299 65.57082,0.0672 67.47598,4.24861 1.82473,4.00474 0.007,8.73687 -3.87356,10.09 -1.71288,0.59715 -21.44361,0.84142 -66.21095,0.81987 -54.78253,-0.0264 -64.06573,-0.19068 -65.86205,-1.16551 z"
       style="fill:#fd8e42" />
  </g>
</svg>
