<?xml version="1.0" encoding="UTF-8" standalone="no"?>
<!-- Generator: Adobe Illustrator 19.0.0, SVG Export Plug-In . SVG Version: 6.00 Build 0)  -->

<svg
   xmlns:dc="http://purl.org/dc/elements/1.1/"
   xmlns:cc="http://creativecommons.org/ns#"
   xmlns:rdf="http://www.w3.org/1999/02/22-rdf-syntax-ns#"
   xmlns:svg="http://www.w3.org/2000/svg"
   xmlns="http://www.w3.org/2000/svg"
   xmlns:sodipodi="http://sodipodi.sourceforge.net/DTD/sodipodi-0.dtd"
   xmlns:inkscape="http://www.inkscape.org/namespaces/inkscape"
   version="1.1"
   id="Layer_1"
   x="0px"
   y="0px"
   viewBox="0 0 512 512"
   style="enable-background:new 0 0 512 512;"
   xml:space="preserve"
   inkscape:version="0.91 r13725"
   sodipodi:docname="contact-support.svg"><metadata
     id="metadata61"><rdf:RDF><cc:Work
         rdf:about=""><dc:format>image/svg+xml</dc:format><dc:type
           rdf:resource="http://purl.org/dc/dcmitype/StillImage" /><dc:title /></cc:Work></rdf:RDF></metadata><defs
     id="defs59" /><sodipodi:namedview
     pagecolor="#ffffff"
     bordercolor="#666666"
     borderopacity="1"
     objecttolerance="10"
     gridtolerance="10"
     guidetolerance="10"
     inkscape:pageopacity="0"
     inkscape:pageshadow="2"
     inkscape:window-width="1366"
     inkscape:window-height="718"
     id="namedview57"
     showgrid="false"
     inkscape:zoom="0.4609375"
     inkscape:cx="330.88212"
     inkscape:cy="284.20339"
     inkscape:window-x="0"
     inkscape:window-y="0"
     inkscape:window-maximized="1"
     inkscape:current-layer="g3377" /><g
     id="g27" /><g
     id="g29" /><g
     id="g31" /><g
     id="g33" /><g
     id="g35" /><g
     id="g37" /><g
     id="g39" /><g
     id="g41" /><g
     id="g43" /><g
     id="g45" /><g
     id="g47" /><g
     id="g49" /><g
     id="g51" /><g
     id="g53" /><g
     id="g55" /><g
     id="g3377"
     transform="translate(-216.94916,123.66101)"><circle
       r="250.57625"
       cy="132.33899"
       cx="472.94916"
       id="path3389-3"
       style="fill:#a8adb3;fill-rule:evenodd;stroke:none;stroke-width:1px;stroke-linecap:butt;stroke-linejoin:miter;stroke-opacity:1" /><g
       style="fill:#ffffff"
       transform="matrix(0.61440678,0,0,0.61440678,315.66102,-24.949146)"
       id="g3522"><path
         style="fill:#ffffff"
         inkscape:connector-curvature="0"
         d="m 408.375,382.10937 c 0,38.52344 -31.34375,69.86719 -69.86719,69.86719 l -15.04297,0 c -6.1914,-17.47265 -22.875,-30.02344 -42.44531,-30.02344 l -50.03906,0 c -24.82813,0 -45.02344,20.19532 -45.02344,45.02344 0,24.82422 20.19531,45.02344 45.02344,45.02344 l 50.03906,0 c 19.57031,0 36.25391,-12.55078 42.44531,-30.02344 l 15.04297,0 c 55.06641,0 99.86719,-44.80078 99.86719,-99.86719 l 0,-1.03125 -30,0 z m 0,0"
         id="path3508" /><path
         style="fill:#ffffff"
         inkscape:connector-curvature="0"
         d="M 451.39844,180.96484 C 443.73437,79.742188 359.17969,0 256,0 152.82031,0 68.265625,79.742188 60.601562,180.96484 l 60.265628,0 C 128.35937,113.02734 186.09766,60 256,60 c 69.90234,0 127.64062,53.02734 135.13281,120.96484 z m 0,0"
         id="path3510" /><path
         style="fill:#ffffff"
         inkscape:connector-curvature="0"
         d="m 0,241.51953 0,79 c 0,16.875 13.679688,30.55469 30.554688,30.55469 l 89.492192,0 0,-140.10938 -89.492192,0 C 13.679688,210.96484 0,224.64453 0,241.51953 Z m 0,0"
         id="path3512" /><path
         style="fill:#ffffff"
         inkscape:connector-curvature="0"
         d="m 481.44531,210.96484 -89.49219,0 1.38672,140.10938 88.10547,0 c 16.875,0 30.55469,-13.67969 30.55469,-30.55469 l 0,-79 c 0,-16.875 -13.67969,-30.55469 -30.55469,-30.55469 z m 0,0"
         id="path3514" /></g></g></svg>