<?xml version="1.0" encoding="UTF-8" standalone="no"?>
<!-- Generator: Adobe Illustrator 19.0.0, SVG Export Plug-In . SVG Version: 6.00 Build 0)  -->

<svg
 xmlns:dc="http://purl.org/dc/elements/1.1/"
 xmlns:cc="http://creativecommons.org/ns#"
 xmlns:rdf="http://www.w3.org/1999/02/22-rdf-syntax-ns#"
 xmlns:svg="http://www.w3.org/2000/svg"
 xmlns="http://www.w3.org/2000/svg"
 xmlns:sodipodi="http://sodipodi.sourceforge.net/DTD/sodipodi-0.dtd"
 xmlns:inkscape="http://www.inkscape.org/namespaces/inkscape"
 version="1.1"
 id="Layer_1"
 x="0px"
 y="0px"
 viewBox="0 0 32 32"
 xml:space="preserve"
 inkscape:version="0.92.4 (unknown)"
 sodipodi:docname="snooze2.svg"
 width="32"
 height="32"><metadata
 id="metadata61"><rdf:RDF><cc:Work
 rdf:about=""><dc:format>image/svg+xml</dc:format><dc:type
 rdf:resource="http://purl.org/dc/dcmitype/StillImage" /><dc:title></dc:title></cc:Work></rdf:RDF></metadata><defs
 id="defs59"><clipPath
 clipPathUnits="userSpaceOnUse"
 id="clipPath25516"><rect
 style="color:#000000;clip-rule:nonzero;display:inline;overflow:visible;visibility:visible;opacity:1;isolation:auto;mix-blend-mode:normal;color-interpolation:sRGB;color-interpolation-filters:linearRGB;solid-color:#000000;solid-opacity:1;fill:#808080;fill-opacity:1;fill-rule:evenodd;stroke:none;stroke-width:0.13147973;stroke-linecap:butt;stroke-linejoin:miter;stroke-miterlimit:4;stroke-dasharray:none;stroke-dashoffset:0;stroke-opacity:1;color-rendering:auto;image-rendering:auto;shape-rendering:auto;text-rendering:auto;enable-background:accumulate"
 id="rect25518"
 width="736.34985"
 height="736.34985"
 x="-415.73083"
 y="-57.137066"
 transform="translate(714.84747,504.37236)" /></clipPath></defs><sodipodi:namedview
 pagecolor="#ffffff"
 bordercolor="#666666"
 borderopacity="1"
 objecttolerance="10"
 gridtolerance="10"
 guidetolerance="10"
 inkscape:pageopacity="0"
 inkscape:pageshadow="2"
 inkscape:window-width="1920"
 inkscape:window-height="1028"
 id="namedview57"
 showgrid="false"
 inkscape:zoom="10.429825"
 inkscape:cx="-3.6530232"
 inkscape:cy="41.79907"
 inkscape:window-x="0"
 inkscape:window-y="0"
 inkscape:window-maximized="1"
 inkscape:current-layer="g3377"
 showguides="true"
 inkscape:guide-bbox="true"
 inkscape:snap-bbox="true"
 inkscape:bbox-nodes="true"
 inkscape:bbox-paths="true"
 inkscape:snap-bbox-midpoints="true"
 inkscape:snap-bbox-edge-midpoints="true"
 inkscape:object-paths="true"
 inkscape:snap-intersection-paths="true"
 inkscape:snap-smooth-nodes="true"
 inkscape:snap-midpoints="true"
 inkscape:snap-global="true"
 fit-margin-top="0"
 fit-margin-left="0"
 fit-margin-right="0"
 fit-margin-bottom="0"><sodipodi:guide
 position="274.4407,-241.35593"
 orientation="0,512"
 id="guide25495"
 inkscape:locked="false" /><sodipodi:guide
 position="275.4407,-241.35593"
 orientation="-512,0"
 id="guide25497"
 inkscape:locked="false" /><sodipodi:guide
 position="275.4407,-240.35593"
 orientation="0,-512"
 id="guide25499"
 inkscape:locked="false" /><sodipodi:guide
 position="274.4407,-240.35593"
 orientation="512,0"
 id="guide25501"
 inkscape:locked="false" /><sodipodi:guide
 position="274.54257,-240.85482"
 orientation="1,0"
 id="guide25526"
 inkscape:locked="false" /><sodipodi:guide
 position="274.59501,-240.89901"
 orientation="1,0"
 id="guide25528"
 inkscape:locked="false" /><sodipodi:guide
 position="275.34344,-241.07878"
 orientation="1,0"
 id="guide25534"
 inkscape:locked="false" /><sodipodi:guide
 position="275.291,-241.07878"
 orientation="1,0"
 id="guide25536"
 inkscape:locked="false" /><sodipodi:guide
 position="597.55254,46.376607"
 orientation="-0.70710678,0.70710678"
 id="guide25554"
 inkscape:locked="false" /><sodipodi:guide
 position="452.49539,-48.312963"
 orientation="-0.70710678,0.70710678"
 id="guide25556"
 inkscape:locked="false" /><sodipodi:guide
 position="0,0"
 orientation="0,32"
 id="guide872"
 inkscape:locked="false" /><sodipodi:guide
 position="32,0"
 orientation="-32,0"
 id="guide874"
 inkscape:locked="false" /><sodipodi:guide
 position="32,32"
 orientation="0,-32"
 id="guide876"
 inkscape:locked="false" /><sodipodi:guide
 position="0,32"
 orientation="32,0"
 id="guide878"
 inkscape:locked="false" /><sodipodi:guide
 position="0,0"
 orientation="0,32"
 id="guide5343"
 inkscape:locked="false" /><sodipodi:guide
 position="32,0"
 orientation="-32,0"
 id="guide5345"
 inkscape:locked="false" /><sodipodi:guide
 position="32,32"
 orientation="0,-32"
 id="guide5347"
 inkscape:locked="false" /><sodipodi:guide
 position="0,32"
 orientation="32,0"
 id="guide5349"
 inkscape:locked="false" /><sodipodi:guide
 position="0,0"
 orientation="0,32"
 id="guide5351"
 inkscape:locked="false" /><sodipodi:guide
 position="32,0"
 orientation="-32,0"
 id="guide5353"
 inkscape:locked="false" /><sodipodi:guide
 position="0,32"
 orientation="32,0"
 id="guide5357"
 inkscape:locked="false" /></sodipodi:namedview><g
 id="g27"
 transform="translate(274.4407,-238.64407)" /><g
 id="g29"
 transform="translate(274.4407,-238.64407)" /><g
 id="g31"
 transform="translate(274.4407,-238.64407)" /><g
 id="g33"
 transform="translate(274.4407,-238.64407)" /><g
 id="g35"
 transform="translate(274.4407,-238.64407)" /><g
 id="g37"
 transform="translate(274.4407,-238.64407)" /><g
 id="g39"
 transform="translate(274.4407,-238.64407)" /><g
 id="g41"
 transform="translate(274.4407,-238.64407)" /><g
 id="g43"
 transform="translate(274.4407,-238.64407)" /><g
 id="g45"
 transform="translate(274.4407,-238.64407)" /><g
 id="g47"
 transform="translate(274.4407,-238.64407)" /><g
 id="g49"
 transform="translate(274.4407,-238.64407)" /><g
 id="g51"
 transform="translate(274.4407,-238.64407)" /><g
 id="g53"
 transform="translate(274.4407,-238.64407)" /><g
 id="g55"
 transform="translate(274.4407,-238.64407)" /><g
 id="g3377"
 transform="translate(57.491542,-114.98306)"><g
 style="fill:#ffffff"
 transform="matrix(0.61440678,0,0,0.61440678,315.66102,-24.949146)"
 id="g3522"><path
 style="fill:#ffffff"
 inkscape:connector-curvature="0"
 d="M 408.375,382.10937 C 408.375,420.63281 377.03125,451.97656 338.50781,451.97656 H 323.46484 C 317.27344,434.50391 300.58984,421.95312 281.01953,421.95312 H 230.98047 C 206.15234,421.95312 185.95703,442.14844 185.95703,466.97656 185.95703,491.80078 206.15234,512 230.98047,512 H 281.01953 C 300.58984,512 317.27344,499.44922 323.46484,481.97656 H 338.50781 C 393.57422,481.97656 438.375,437.17578 438.375,382.10937 V 381.07812 H 408.375 Z M 408.375,382.10937"
 id="path3508" /><path
 style="fill:#ffffff"
 inkscape:connector-curvature="0"
 d="M 451.39844,180.96484 C 443.73437,79.742188 359.17969,0 256,0 152.82031,0 68.265625,79.742188 60.601562,180.96484 H 120.86719 C 128.35937,113.02734 186.09766,60 256,60 325.90234,60 383.64062,113.02734 391.13281,180.96484 Z M 451.39844,180.96484"
 id="path3510" /><path
 style="fill:#ffffff"
 inkscape:connector-curvature="0"
 d="M 0,241.51953 V 320.51953 C 0,337.39453 13.679688,351.07422 30.554688,351.07422 H 120.04688 V 210.96484 H 30.554688 C 13.679688,210.96484 0,224.64453 0,241.51953 Z M 0,241.51953"
 id="path3512" /><path
 style="fill:#ffffff"
 inkscape:connector-curvature="0"
 d="M 481.44531,210.96484 H 391.95312 L 393.33984,351.07422 H 481.44531 C 498.32031,351.07422 512,337.39453 512,320.51953 V 241.51953 C 512,224.64453 498.32031,210.96484 481.44531,210.96484 Z M 481.44531,210.96484"
 id="path3514" /></g><path
 id="path5379"
 transform="matrix(0.8920572,0,0,0.8920572,-55.764457,116.71014)"
 d="M 5.9960938,0.01171875 C 2.6844078,0.01170229 -1.6457981e-5,2.6961265 0,6.0078125 0.00162777,7.1174637 0.31158955,8.2061943 0.89453125,9.1503906 L 10.041016,1.5917969 C 8.9375182,0.57884652 7.4940146,0.01442413 5.9960938,0.01171875 Z M 26.003906,0.01171875 C 24.505985,0.01442413 23.062482,0.57884652 21.958984,1.5917969 L 31.105469,9.1503906 C 31.68841,8.2061941 31.998372,7.1194168 32,6.0097656 32.000016,2.6980796 29.315592,0.01170308 26.003906,0.01171875 Z M 15.925781,4.0449219 C 8.2097372,4.0449791 1.9530984,10.299581 1.953125,18.015625 1.9587325,21.004068 2.9228565,23.912195 4.703125,26.3125 L 2.1796875,28.837891 C 1.8300095,29.187569 1.8300095,29.749931 2.1796875,30.099609 L 3.7285156,31.650391 C 4.0781937,32.000069 4.6425095,32.000069 4.9921875,31.650391 L 7.5019531,29.140625 C 9.9248854,30.981789 12.882683,31.981942 15.925781,31.988281 18.962211,31.983671 21.912768,30.988635 24.333984,29.15625 L 26.828125,31.650391 C 27.177804,32.000069 27.740166,32.000069 28.089844,31.650391 L 29.640625,30.099609 C 29.990304,29.749931 29.990304,29.187569 29.640625,28.837891 L 27.132812,26.330078 C 28.921393,23.92679 29.890574,21.011418 29.896484,18.015625 29.896511,10.299521 23.641885,4.0448952 15.925781,4.0449219 Z M 11.775391,12.414062 H 20.21875 C 20.636125,12.414062 20.970703,12.750595 20.970703,13.167969 V 14.121094 C 20.965654,14.425118 20.929636,14.564328 20.646484,14.84375 L 14.708984,20.835938 H 18.658203 20.21875 C 20.636125,20.835938 20.970703,21.17247 20.970703,21.589844 V 22.542969 C 20.970703,22.960343 20.636125,23.296875 20.21875,23.296875 H 18.658203 13.171875 11.611328 C 11.193954,23.296875 10.857422,22.960343 10.857422,22.542969 V 21.589844 C 10.857422,21.290671 10.970604,21.186489 11.216797,20.945312 11.216797,20.945312 11.380451,20.782719 11.439453,20.722656 L 17.183594,14.875 H 11.775391 C 11.358016,14.875 11.021484,14.538468 11.021484,14.121094 V 13.167969 C 11.021484,12.750595 11.358016,12.414062 11.775391,12.414062 Z"
 style="color:#000000;clip-rule:nonzero;display:inline;overflow:visible;visibility:visible;opacity:1;isolation:auto;mix-blend-mode:normal;color-interpolation:sRGB;color-interpolation-filters:linearRGB;solid-color:#000000;solid-opacity:1;fill:#fd8e42;fill-opacity:1;fill-rule:nonzero;stroke:none;stroke-width:0.33087367;stroke-linecap:butt;stroke-linejoin:miter;stroke-miterlimit:4;stroke-dasharray:2.64698959, 2.64698959;stroke-dashoffset:0;stroke-opacity:1;paint-order:fill markers stroke;color-rendering:auto;image-rendering:auto;shape-rendering:auto;text-rendering:auto;enable-background:accumulate"
 inkscape:connector-curvature="0" /></g></svg>