<?xml version="1.0" standalone="no"?>
<!DOCTYPE svg PUBLIC "-//W3C//DTD SVG 1.1//EN" "http://www.w3.org/Graphics/SVG/1.1/DTD/svg11.dtd" >
<svg>
<metadata>
Created by FontForge 20090914 at Wed Jan 30 12:08:17 2019
 By www-data
Copyright (c) 2014 by &#194;&#169; 2009 Designed by Svetoslav Simov &#194;&#169; Fontfabric, Inc. All rights reserved.
</metadata>
<defs>
<font id="UniSansBook" horiz-adv-x="490" >
  <font-face 
    font-family="UniSansBook"
    font-weight="400"
    font-stretch="normal"
    units-per-em="1000"
    panose-1="0 0 5 0 0 0 0 0 0 0"
    ascent="777"
    descent="-223"
    x-height="518"
    cap-height="708"
    bbox="-42.9951 -244.005 1050 921"
    underline-thickness="50"
    underline-position="-50"
    unicode-range="U+0020-U+FB02"
  />
<missing-glyph horiz-adv-x="500" 
d="M500 0h-500v700h500v-700zM250 395l170 255h-340zM50 605v-510l170 255zM280 350l170 -255v510zM80 50h340l-170 255z" />
    <glyph glyph-name="fi" unicode="fi" horiz-adv-x="470" 
d="M328 645c0 13.333 4.66699 24.666 14 33.999s20.666 14 33.999 14s24.666 -4.66699 33.999 -14s14 -20.666 14 -33.999s-4.66699 -24.666 -14 -33.999s-20.666 -14 -33.999 -14s-24.666 4.66699 -33.999 14s-14 20.666 -14 33.999zM401 0h-60v518h60v-518zM220 661
c-30 0 -52.667 -7.66699 -68 -23c-18.667 -18.667 -28 -50 -28 -94v-50h112v-50h-112v-444h-56v544c0 30.667 4.33301 57.167 13 79.5s20.667 40.5 36 54.5s33.666 24 54.999 30c14.667 3.33301 30.334 5 47.001 5c8 0 16 -0.333008 24 -1v-52c-8 0.666992 -15.667 1 -23 1z
" />
    <glyph glyph-name="fl" unicode="fl" horiz-adv-x="499" 
d="M493 -10c-50.667 0 -89.666 14.334 -116.999 43.001s-41 69 -41 121v554h56v-554c0 -34.667 8.16699 -61.334 24.5 -80.001s42.166 -28 77.499 -28v-56zM219.001 661.001c-30 0 -52.667 -7.66699 -68 -23c-18.667 -18.667 -28 -50 -28 -94v-50h112v-50h-112v-444h-56v544
c0 30.667 4.33301 57.167 13 79.5s20.667 40.5 36 54.5s33.666 24 54.999 30c14.667 3.33301 30.334 5 47.001 5c8 0 16 -0.333008 24 -1v-52c-8 0.666992 -15.667 1 -23 1z" />
    <glyph glyph-name=".notdef" horiz-adv-x="500" 
d="M500 0h-500v700h500v-700zM250 395l170 255h-340zM50 605v-510l170 255zM280 350l170 -255v510zM80 50h340l-170 255z" />
    <glyph glyph-name="space" unicode=" " horiz-adv-x="219" 
 />
    <glyph glyph-name="exclam" unicode="!" horiz-adv-x="205" 
d="M132 186h-60v518h60v-518zM55 38c0 13.333 4.66699 24.666 14 33.999s20.666 14 33.999 14s24.666 -4.66699 33.999 -14s14 -20.666 14 -33.999s-4.66699 -24.666 -14 -33.999s-20.666 -14 -33.999 -14s-24.666 4.66699 -33.999 14s-14 20.666 -14 33.999z" />
    <glyph glyph-name="quotedbl" unicode="&#x22;" horiz-adv-x="316" 
d="M202 480v228h60l-12 -228h-48zM64 480v228h60l-12 -228h-48z" />
    <glyph glyph-name="numbersign" unicode="#" horiz-adv-x="636" 
d="M552 223h-130l-65 -223h-63l66 223h-161l-65 -223h-63l66 223h-107l12 56h112l47 159h-130l12 57h135l63 213h63l-63 -213h160l63 213h64l-64 -213h104l-15 -57h-107l-46 -159h126zM377 279l47 159h-160l-47 -159h160z" />
    <glyph glyph-name="dollar" unicode="$" horiz-adv-x="581" 
d="M542 192l-0.000976562 -16c-1.33301 -29.333 -8.66602 -55.333 -21.999 -78s-30.5 -41.834 -51.5 -57.501s-45 -27.834 -72 -36.501s-55.167 -14 -84.5 -16v-102h-49v102c-24.667 2 -48.667 6.16699 -72 12.5s-45.166 15.333 -65.499 27s-38.5 25.5 -54.5 41.5
s-28.333 34.667 -37 56l54 24c14 -31.333 36.833 -55.333 68.5 -72s67.167 -26.667 106.5 -30v298c-28 6 -55.333 12.833 -82 20.5s-50.334 18.5 -71.001 32.5s-37 32 -49 54c-10.667 20.667 -16 46.334 -16 77.001v10c0.666992 28 7.16699 53 19.5 75s28.5 40.5 48.5 55.5
s43 27 69 36s53 14.5 81 16.5v102h49v-102c24 -1.33301 47.833 -5.16602 71.5 -11.499s45.5 -15.166 65.5 -26.499s37.833 -24.833 53.5 -40.5s28.167 -33.834 37.5 -54.501l-53 -24c-6.66699 14.667 -16 28 -28 40s-25.667 22.167 -41 30.5s-32.166 14.833 -50.499 19.5
s-36.833 7.66699 -55.5 9v-272c29.333 -6 58.166 -13 86.499 -21s53.5 -19.833 75.5 -35.5s39.333 -36.167 52 -61.5c10.667 -22 16 -49.333 16 -82zM102.999 527c0 -18.667 3.33301 -34.333 10 -47c8 -15.333 19.333 -28 34 -38s32 -18 52 -24s41.333 -11.333 64 -16v262
c-20 -2 -39.333 -6 -58 -12s-35.334 -14.333 -50.001 -25s-26.667 -23.5 -36 -38.5s-14.666 -32.5 -15.999 -52.5v-9zM483.999 193.001c0 20 -3.33301 36.999 -10 50.999c-8.66699 18 -21 32.667 -37 44s-34.833 20.5 -56.5 27.5s-44.5 13.167 -68.5 18.5v-287
c21.333 1.33301 42 5.16602 62 11.499s37.667 14.833 53 25.5s28 23.834 38 39.501s16 33.834 18 54.501c0.666992 5.33301 1 10.333 1 15z" />
    <glyph glyph-name="percent" unicode="%" horiz-adv-x="749" 
d="M92 -40l499 790l49 -30l-498 -790zM330 517c0 -59.333 -13.832 -105.835 -41.499 -139.502s-63.167 -50.5 -106.5 -50.5c-47.333 0 -83.833 16.333 -109.5 49s-38.5 80.334 -38.5 143.001c0 28.667 3.66699 54.667 11 78s17.5 43.333 30.5 60s28.667 29.334 47 38.001
s38.166 13 59.499 13c46 0 82.167 -16.667 108.5 -50s39.5 -80.333 39.5 -141zM272.001 516.998c0 46.667 -8 80.668 -24 102.001s-38.333 32 -67 32c-30 0 -52.167 -10.333 -66.5 -31s-21.5 -54.334 -21.5 -101.001c0 -48 7.16699 -82.333 21.5 -103s36.833 -31 67.5 -31
c30 0 52.5 10.5 67.5 31.5s22.5 54.5 22.5 100.5zM715.001 185.999c0 -59.333 -13.832 -105.665 -41.499 -138.998s-62.834 -50 -105.501 -50c-48 0 -84.667 16.167 -110 48.5s-38 79.833 -38 142.5c0 29.333 3.66699 55.666 11 78.999s17.5 43.166 30.5 59.499
s28.5 28.833 46.5 37.5s38 13 60 13c46 0 82 -16.5 108 -49.5s39 -80.167 39 -141.5zM657.002 186c0 46.667 -7.99902 80.833 -23.999 102.5s-38.333 32.5 -67 32.5c-30 0 -52.167 -10.5 -66.5 -31.5s-21.5 -54.833 -21.5 -101.5c0 -48 7.16699 -82.333 21.5 -103
s37.166 -31 68.499 -31c29.333 0 51.5 10.5 66.5 31.5s22.5 54.5 22.5 100.5z" />
    <glyph glyph-name="ampersand" unicode="&#x26;" horiz-adv-x="624" 
d="M248 -4c-29.333 0 -57.001 4.6709 -83.001 14.0039s-48.5 22.666 -67.5 39.999s-34 38.166 -45 62.499s-16.5 51.833 -16.5 82.5c0 26.667 4.5 50 13.5 70s21 37.667 36 53s32 29.333 51 42s38.5 25 58.5 37l-30 37c-10 12.667 -19.167 25.667 -27.5 39
s-15 27.333 -20 42s-7.5 29.667 -7.5 45c0 24.667 4.83301 46.667 14.5 66s22.5 35.666 38.5 48.999s34.5 23.5 55.5 30.5s43.167 10.5 66.5 10.5c20.667 0 40.334 -3.5 59.001 -10.5s35.334 -16.833 50.001 -29.5s26.334 -27.834 35.001 -45.501s13 -37.5 13 -59.5
c0 -24.667 -4.5 -46.167 -13.5 -64.5s-20.833 -34.5 -35.5 -48.5s-31.334 -26.667 -50.001 -38s-37.667 -22 -57 -32l171 -180l56 94l49 -24l-66 -108l111 -127h-76l-67 76c-28 -38 -58.833 -68 -92.5 -90s-74.834 -33 -123.501 -33zM280.999 665.004
c-15.333 0 -29.668 -2.49805 -43.001 -7.49805s-25 -12.167 -35 -21.5s-18 -20.333 -24 -33s-9 -26.334 -9 -41.001c0 -12.667 2.66699 -25.334 8 -38.001s11.833 -25 19.5 -37s16 -23.667 25 -35s17.5 -21.333 25.5 -30c14.667 7.33301 29.834 15.5 45.501 24.5
s30.167 19.167 43.5 30.5s24.333 24.333 33 39s13 31.667 13 51c0 28.667 -9.5 52.167 -28.5 70.5s-43.5 27.5 -73.5 27.5zM95.9971 197.006c0 -22 4.16602 -42.168 12.499 -60.501s19.833 -33.833 34.5 -46.5s31.834 -22.5 51.501 -29.5s40.5 -10.5 62.5 -10.5
c18.667 0 36.167 3 52.5 9s31.5 14 45.5 24s26.833 21.667 38.5 35s22.5 27 32.5 41l-195 201c-16 -9.33301 -32 -19.166 -48 -29.499s-30.5 -22 -43.5 -35s-23.5 -27.5 -31.5 -43.5s-12 -34.333 -12 -55z" />
    <glyph glyph-name="quotesingle" unicode="'" horiz-adv-x="181" 
d="M64 480v228h60l-12 -228h-48z" />
    <glyph glyph-name="parenleft" unicode="(" horiz-adv-x="261" 
d="M105 341c0 -78 11.499 -150.33 34.499 -216.997s55.167 -132.334 96.5 -197.001l-47 -30c-23.333 32 -43.833 66.167 -61.5 102.5s-32.5 73.5 -44.5 111.5s-21.167 76.333 -27.5 115s-9.5 77 -9.5 115c0 79.333 12.167 157.666 36.5 234.999s58.5 147 102.5 209l48 -32
c-22 -27.333 -41 -57.833 -57 -91.5s-29.167 -68.5 -39.5 -104.5s-18.166 -72.333 -23.499 -109s-8 -72.334 -8 -107.001z" />
    <glyph glyph-name="parenright" unicode=")" horiz-adv-x="261" 
d="M155 310c0 78.667 -11.333 154.167 -34 226.5s-54.667 141.166 -96 206.499l47 30c23.333 -32 43.833 -67.167 61.5 -105.5s32.5 -77.666 44.5 -117.999s21.167 -80.833 27.5 -121.5s9.5 -80 9.5 -118c0 -79.333 -12.167 -157.666 -36.5 -234.999s-58.5 -147 -102.5 -209
l-51 32c22 27.333 41 57.666 57 90.999s29.5 68 40.5 104s19.167 72.5 24.5 109.5s8 72.833 8 107.5z" />
    <glyph glyph-name="asterisk" unicode="*" horiz-adv-x="446" 
d="M201 708h47v-152l144 48l15 -48l-144 -45l91 -124l-37 -29l-94 125l-89 -125l-40 29l91 126l-146 46l14 46l148 -48v151z" />
    <glyph glyph-name="plus" unicode="+" horiz-adv-x="589" 
d="M271 595h57v-225h222v-58h-222v-227h-57v227h-231v58h231v225z" />
    <glyph glyph-name="comma" unicode="," horiz-adv-x="206" 
d="M70 -138h-59l66 228h70z" />
    <glyph glyph-name="hyphen" unicode="-" horiz-adv-x="371" 
d="M309 271h-247v58h247v-58z" />
    <glyph glyph-name="period" unicode="." horiz-adv-x="204" 
d="M54 42c0 13.333 4.66699 24.666 14 33.999s20.666 14 33.999 14s24.666 -4.66699 33.999 -14s14 -20.666 14 -33.999s-4.66699 -24.666 -14 -33.999s-20.666 -14 -33.999 -14s-24.666 4.66699 -33.999 14s-14 20.666 -14 33.999z" />
    <glyph glyph-name="slash" unicode="/" horiz-adv-x="400" 
d="M75 -36l-53 18l304 762l52 -18z" />
    <glyph glyph-name="zero" unicode="0" horiz-adv-x="629" 
d="M315 -11c-30 0 -60.333 4.16699 -91 12.5s-58.167 21 -82.5 38s-44.166 38.333 -59.499 64s-23 56.167 -23 91.5v317c0 35.333 7.66699 66 23 92s35.166 47.5 59.499 64.5s51.833 29.5 82.5 37.5s61 12 91 12s60.167 -4 90.5 -12s57.666 -20.5 81.999 -37.5
s44.166 -38.5 59.499 -64.5s23 -56.667 23 -92v-317c0 -35.333 -7.66699 -65.833 -23 -91.5s-35.166 -47 -59.499 -64s-51.666 -29.667 -81.999 -38s-60.5 -12.5 -90.5 -12.5zM118 196c0 -27.333 6 -50.333 18 -69s27.5 -33.834 46.5 -45.501s40.167 -20 63.5 -25
s46.333 -7.5 69 -7.5c22 0 44.667 2.5 68 7.5s44.5 13.333 63.5 25s34.5 26.834 46.5 45.501s18 41.667 18 69v316c0 27.333 -6 50.333 -18 69s-27.5 33.834 -46.5 45.501s-40.167 20 -63.5 25s-46 7.5 -68 7.5c-22.667 0 -45.667 -2.5 -69 -7.5s-44.5 -13.333 -63.5 -25
s-34.5 -26.834 -46.5 -45.501s-18 -41.667 -18 -69v-316z" />
    <glyph glyph-name="one" unicode="1" horiz-adv-x="305" 
d="M232 0h-58v627l-120 -124l-43 35l161 170h60v-708z" />
    <glyph glyph-name="two" unicode="2" horiz-adv-x="573" 
d="M280 659c-43.333 0 -81.335 -9.16797 -114.002 -27.501s-56 -43.5 -70 -75.5l-52 23c18.667 44 49.334 78.167 92.001 102.5s91 36.5 145 36.5c19.333 0 42.833 -3.16699 70.5 -9.5s54.167 -17 79.5 -32s47 -35.333 65 -61s27 -57.834 27 -96.501
c0 -28.667 -7 -58.167 -21 -88.5s-36.333 -60.166 -67 -89.499l-295 -282h383v-58h-464l-19 45l352 335c24.667 23.333 42.834 47 54.501 71s17.5 46.667 17.5 68c0 28 -6.5 50.833 -19.5 68.5s-29 31.834 -48 42.501s-39 18 -60 22s-39.833 6 -56.5 6z" />
    <glyph glyph-name="three" unicode="3" horiz-adv-x="586" 
d="M285 49c24.667 0 48.668 2.99707 72.001 8.99707s44.166 15.333 62.499 28s33 28.5 44 47.5s16.5 41.167 16.5 66.5c0 56 -15.667 96.667 -47 122c-30.667 24 -72.334 36 -125.001 36h-4h-59v55h59c20.667 0 39.834 2 57.501 6s32.834 10.833 45.501 20.5
s22.667 22 30 37s11 33.5 11 55.5c0 22.667 -4.5 42 -13.5 58s-21 29.167 -36 39.5s-32.333 17.833 -52 22.5s-39.834 7 -60.501 7c-35.333 0 -69 -6.66699 -101 -20s-55.667 -33.666 -71 -60.999l-50 29c8.66699 18.667 20.667 34.834 36 48.501s32.666 25.167 51.999 34.5
s40 16.333 62 21s44.333 7 67 7c28 0 55.5 -3.66699 82.5 -11s51 -18.666 72 -33.999s37.833 -34.666 50.5 -57.999s19 -51 19 -83s-6 -60.167 -18 -84.5s-32 -44.5 -60 -60.5c42 -15.333 71.167 -39.833 87.5 -73.5s24.5 -71.834 24.5 -114.501
c-0.666992 -35.333 -8.33398 -66 -23.001 -92s-34 -47.667 -58 -65s-51.333 -30.333 -82 -39s-62 -13 -94 -13c-25.333 0 -50.666 2.66699 -75.999 8s-49 13.5 -71 24.5s-41.667 24.5 -59 40.5s-31.333 35 -42 57l53 26c8 -16 18.833 -30 32.5 -42s29.334 -22 47.001 -30
s36.667 -14.167 57 -18.5s40.833 -6.5 61.5 -6.5z" />
    <glyph glyph-name="four" unicode="4" horiz-adv-x="568" 
d="M527 184h-59v-184h-59v184h-346l-46 62l381 462h70v-471h59v-53zM409 237l2 402l-329 -402h327z" />
    <glyph glyph-name="five" unicode="5" horiz-adv-x="586" 
d="M288 49c24.667 0 48.8291 3.33203 72.4961 9.99902s44.834 16.667 63.501 30s33.667 30 45 50s17 43 17 69v44c0 26 -5.33301 48.167 -16 66.5s-24.834 33.5 -42.501 45.5s-38.167 20.667 -61.5 26s-47.666 8 -72.999 8c-36.667 0 -69.667 -3.83301 -99 -11.5
s-60.333 -19.167 -93 -34.5h-31v356h438v-59h-379v-224c26.667 11.333 53.334 20 80.001 26c24 5.33301 49 8 75 8h9c30.667 0 61 -4 91 -12s56.833 -20.333 80.5 -37s42.834 -38 57.501 -64s22.334 -57 23.001 -93v-46c-0.666992 -36 -8.5 -67.5 -23.5 -94.5
s-34.5 -49.5 -58.5 -67.5s-51.5 -31.667 -82.5 -41s-62.5 -14 -94.5 -14c-24.667 0 -49.167 2.83301 -73.5 8.5s-47.166 14 -68.499 25s-40.5 24.5 -57.5 40.5s-30.5 34.667 -40.5 56l53 26c7.33301 -15.333 17.666 -29 30.999 -41s28.333 -22.167 45 -30.5
s34.667 -14.666 54 -18.999s39 -6.5 59 -6.5z" />
    <glyph glyph-name="six" unicode="6" horiz-adv-x="626" 
d="M323 659c-26 0 -51.333 -2.99805 -76 -8.99805s-46.5 -15.333 -65.5 -28s-34.167 -28.334 -45.5 -47.001s-17 -40.334 -17 -65.001v-152c23.333 33.333 53.5 56.5 90.5 69.5s74.833 19.5 113.5 19.5c32.667 0 64.5 -4.33301 95.5 -13s58.5 -21.667 82.5 -39
s43.333 -38.833 58 -64.5s22 -55.5 22 -89.5v-45c0 -34 -7.33301 -64 -22 -90s-34 -47.5 -58 -64.5s-51.5 -29.833 -82.5 -38.5s-62.833 -13 -95.5 -13c-33.333 0 -65.666 4.16699 -96.999 12.5s-59.333 21.166 -84 38.499s-44.5 38.833 -59.5 64.5
s-22.5 55.834 -22.5 90.501v316c0 34.667 7.5 64.834 22.5 90.501s34.833 47.167 59.5 64.5s52.667 30.166 84 38.499s63.666 12.5 96.999 12.5c25.333 0 50.166 -2.66699 74.499 -8s47 -13.166 68 -23.499s40 -23.333 57 -39s30.5 -33.834 40.5 -54.501l-53 -28
c-15.333 32 -40.166 55.667 -74.499 71s-71.833 23 -112.5 23zM522 240.002c0 24.667 -5.66699 46.335 -17 65.002s-26.166 34.167 -44.499 46.5s-39.5 21.666 -63.5 27.999s-48.667 9.5 -74 9.5c-26 0 -51.333 -3 -76 -9s-46.5 -15.333 -65.5 -28
s-34.167 -28.334 -45.5 -47.001s-17 -40.334 -17 -65.001v-42c0 -25.333 5.66699 -47.166 17 -65.499s26.5 -33.833 45.5 -46.5s40.833 -22 65.5 -28s50 -9 76 -9c25.333 0 50 3.16699 74 9.5s45.167 15.666 63.5 27.999s33.166 27.833 44.499 46.5s17 40.334 17 65.001v42z
" />
    <glyph glyph-name="seven" unicode="7" horiz-adv-x="513" 
d="M34 709h446l21 -44l-380 -665h-67l371 649h-391v60z" />
    <glyph glyph-name="eight" unicode="8" horiz-adv-x="622" 
d="M301 -10c-32 0 -63.168 4.5 -93.501 13.5s-57.333 22.333 -81 40s-42.834 39.667 -57.501 66s-22.334 57.166 -23.001 92.499c0 20.667 2.5 40.667 7.5 60s12.5 37.166 22.5 53.499s22.333 30.5 37 42.5s31.667 21 51 27v3c-28.667 11.333 -50 30.333 -64 57
s-21 55 -21 85c0 31.333 6.33301 58.833 19 82.5s29.334 43.334 50.001 59.001s44.334 27.334 71.001 35.001s54 11.5 82 11.5h19c28 0 55.333 -3.83301 82 -11.5s50.334 -19.334 71.001 -35.001s37.334 -35.334 50.001 -59.001s19 -51.167 19 -82.5
c0 -30 -7 -58.333 -21 -85s-35.333 -45.667 -64 -57v-3c19.333 -6 36.333 -15 51 -27s27 -26.167 37 -42.5s17.667 -34.166 23 -53.499s8 -39.333 8 -60c-0.666992 -35.333 -8.33398 -66.166 -23.001 -92.499s-34 -48.333 -58 -66s-51.167 -31 -81.5 -40
s-61.5 -13.5 -93.5 -13.5h-19zM300.999 659c-21.333 0 -41.835 -2.5 -61.502 -7.5s-37.167 -12.667 -52.5 -23s-27.666 -23.666 -36.999 -39.999s-14 -35.833 -14 -58.5c0 -26 4.83301 -46.667 14.5 -62s22.167 -27.166 37.5 -35.499s33 -13.833 53 -16.5s40 -4 60 -4h19
c20 0 40 1.33301 60 4s37.667 8.16699 53 16.5s27.833 20.166 37.5 35.499s14.5 36 14.5 62c0 22.667 -4.66699 42.167 -14 58.5s-21.666 29.666 -36.999 39.999s-33 18 -53 23s-40.333 7.5 -61 7.5h-19zM319.997 49c22.667 0 45.667 2.83301 69 8.5s44.5 14.667 63.5 27
s34.5 28.333 46.5 48s18 43.167 18 70.5c0 32 -5.5 58 -16.5 78s-25.5 35.5 -43.5 46.5s-38.833 18.5 -62.5 22.5s-48.5 6 -74.5 6h-19c-26 0 -50.833 -2 -74.5 -6s-44.5 -11.5 -62.5 -22.5s-32.5 -26.5 -43.5 -46.5s-16.5 -46 -16.5 -78c0 -27.333 6 -50.833 18 -70.5
s27.5 -35.667 46.5 -48s40.167 -21.333 63.5 -27s46.333 -8.5 69 -8.5h19z" />
    <glyph glyph-name="nine" unicode="9" horiz-adv-x="624" 
d="M302 49c26 0 51.1689 3.00098 75.502 9.00098s46 15.333 65 28s34.333 28.167 46 46.5s17.5 40.166 17.5 65.499v152c-23.333 -33.333 -53.5 -56.5 -90.5 -69.5s-74.833 -19.5 -113.5 -19.5c-32.667 0 -64.5 4.33301 -95.5 13s-58.5 21.667 -82.5 39
s-43.333 38.833 -58 64.5s-22 55.5 -22 89.5v45c0 34 7.33301 64 22 90s34 47.5 58 64.5s51.5 29.833 82.5 38.5s62.833 13 95.5 13s64.667 -4.16699 96 -12.5s59.333 -21.166 84 -38.499s44.5 -38.833 59.5 -64.5s22.833 -55.834 23.5 -90.501v-315
c0 -34.667 -7.5 -64.834 -22.5 -90.501s-34.833 -47.167 -59.5 -64.5s-52.834 -30.166 -84.501 -38.499s-63.834 -12.5 -96.501 -12.5c-25.333 0 -50.166 2.66699 -74.499 8s-47 13.166 -68 23.499s-40 23.333 -57 39s-30.5 33.834 -40.5 54.501l53 27
c15.333 -32 40.166 -55.667 74.499 -71s71.833 -23 112.5 -23zM103.002 468.001c0 -24.667 5.5 -46.335 16.5 -65.002s25.833 -34.167 44.5 -46.5s40 -21.666 64 -27.999s48.667 -9.5 74 -9.5c26 0 51.167 3 75.5 9s46 15.333 65 28s34.333 28.167 46 46.5
s17.5 40.166 17.5 65.499v42c0 24.667 -5.83301 46.334 -17.5 65.001s-27 34.334 -46 47.001s-40.667 22 -65 28s-49.5 9 -75.5 9c-25.333 0 -50 -3.16699 -74 -9.5s-45.333 -15.666 -64 -27.999s-33.5 -27.833 -44.5 -46.5s-16.5 -40.334 -16.5 -65.001v-42z" />
    <glyph glyph-name="colon" unicode=":" horiz-adv-x="222" 
d="M63 57c0 13.333 4.66699 24.666 14 33.999s20.666 14 33.999 14s24.666 -4.66699 33.999 -14s14 -20.666 14 -33.999s-4.66699 -24.666 -14 -33.999s-20.666 -14 -33.999 -14s-24.666 4.66699 -33.999 14s-14 20.666 -14 33.999zM63 435
c0 13.333 4.66699 24.666 14 33.999s20.666 14 33.999 14s24.666 -4.66699 33.999 -14s14 -20.666 14 -33.999s-4.66699 -24.666 -14 -33.999s-20.666 -14 -33.999 -14s-24.666 4.66699 -33.999 14s-14 20.666 -14 33.999z" />
    <glyph glyph-name="semicolon" unicode=";" horiz-adv-x="250" 
d="M99 -138h-59l66 228h70zM72 420c0 13.333 4.66699 24.666 14 33.999s20.666 14 33.999 14s24.666 -4.66699 33.999 -14s14 -20.666 14 -33.999s-4.66699 -24.666 -14 -33.999s-20.666 -14 -33.999 -14s-24.666 4.66699 -33.999 14s-14 20.666 -14 33.999z" />
    <glyph glyph-name="less" unicode="&#x3c;" horiz-adv-x="441" 
d="M385 138v-66l-352 207v48l352 210v-67l-287 -167z" />
    <glyph glyph-name="equal" unicode="=" horiz-adv-x="535" 
d="M471 345h-407v54h407v-54zM471 207h-407v55h407v-55z" />
    <glyph glyph-name="greater" unicode="&#x3e;" horiz-adv-x="441" 
d="M408 279l-352 -207v66l287 165l-287 167v67l352 -210v-48z" />
    <glyph glyph-name="question" unicode="?" horiz-adv-x="478" 
d="M221 718c28.667 0 56.499 -4.33105 83.499 -12.998s51 -21.5 72 -38.5s37.833 -38.167 50.5 -63.5s19 -55 19 -89s-5.83301 -63.333 -17.5 -88s-27 -45.667 -46 -63s-40.667 -31.166 -65 -41.499s-49.833 -17.833 -76.5 -22.5l-8 -163h-49l-6 210
c26.667 0 52.834 3.83301 78.501 11.5s48.334 18.667 68.001 33s35.5 32.166 47.5 53.499c11.333 19.333 17 41.666 17 66.999c0 26 -5 49 -15 69c-10 18 -23 33 -39 45s-34 21 -54 27s-40.667 9 -62 9c-28.667 0 -56.334 -5.5 -83.001 -16.5s-48.667 -27.167 -66 -48.5h-1
l-44 35c23.333 29.333 52.5 51.166 87.5 65.499s71.167 21.5 108.5 21.5zM161.999 37.002c0 13.333 4.66699 24.666 14 33.999s20.666 14 33.999 14s24.666 -4.66699 33.999 -14s14 -20.666 14 -33.999s-4.66699 -24.666 -14 -33.999s-20.666 -14 -33.999 -14
s-24.666 4.66699 -33.999 14s-14 20.666 -14 33.999z" />
    <glyph glyph-name="at" unicode="@" horiz-adv-x="782" 
d="M511 215c0 -5.33301 1.5 -10.998 4.5 -16.998s9.83301 -9 20.5 -9c16.667 0 33.667 5 51 15s33.333 25 48 45s27.667 44.667 39 74s19.666 63.666 24.999 102.999c1.33301 10 2 20 2 30c0 24.667 -4.33301 48 -13 70c-12 30 -30.667 56 -56 78s-56.666 39 -93.999 51
s-78.333 18 -123 18s-85.167 -8.66699 -121.5 -26s-67.833 -40.666 -94.5 -69.999s-48.167 -63 -64.5 -101s-26.833 -78 -31.5 -120c-2 -16.667 -3 -33 -3 -49c0 -28.667 3.33301 -55 10 -79c10 -37.333 25.333 -69 46 -95s45.5 -47 74.5 -63s59.5 -27 91.5 -33
c22 -4 44 -6 66 -6c11.333 0 22.666 0.333008 33.999 1c33.333 3.33301 65.333 11 96 23l12 -44c-36.667 -14 -74.667 -23 -114 -27c-15.333 -1.33301 -30.333 -2 -45 -2c-24 0 -47.667 2 -71 6c-37.333 6.66699 -72.333 19.167 -105 37.5s-60.667 42.833 -84 73.5
s-40.666 67 -51.999 109c-8 29.333 -12 61.333 -12 96c0 16.667 1 34 3 52c4.66699 50.667 16.834 98.167 36.501 142.5s45.167 83 76.5 116s68.166 58.833 110.499 77.5s88.833 28 139.5 28c56 0 105.5 -7.5 148.5 -22.5s78.833 -35.667 107.5 -62s49.667 -57.5 63 -93.5
c11.333 -28 17 -58.667 17 -92c0 -8 -0.333008 -16 -1 -24c-3.33301 -40.667 -11.5 -78.667 -24.5 -114s-29.333 -66 -49 -92s-42 -46.5 -67 -61.5s-51.5 -22.5 -79.5 -22.5c-8.66699 0 -17 1.33301 -25 4s-15 7 -21 13s-10.667 13.667 -14 23
c-2.66699 6.66699 -4 14.667 -4 24c0 3.33301 0.333008 7 1 11h-2c-20 -24.667 -41 -43.334 -63 -56.001s-45.667 -19 -71 -19c-22 0 -41.333 3.83301 -58 11.5s-30.5 18 -41.5 31s-19.167 28.333 -24.5 46s-8 36.167 -8 55.5c0 34 5.33301 68 16 102s26 64.5 46 91.5
s44.167 49 72.5 66s60.5 25.5 96.5 25.5c22 0 43 -6 63 -18s34.333 -33 43 -63h2l22 62h59l-95 -284c-3.33301 -10.667 -6 -20.334 -8 -29.001s-3 -14.667 -3 -18zM252 282.002c0 -27.333 7.99902 -49.667 23.999 -67s36.667 -26 62 -26c22.667 0 44.167 7.5 64.5 22.5
s38 33.833 53 56.5s26.833 47 35.5 73s13 49.667 13 71c0 32 -6.33301 57 -19 75s-33 27 -61 27h-4c-26.667 0 -50.667 -7.33301 -72 -22c-21.333 -15.333 -39.166 -34.5 -53.499 -57.5s-25 -48.167 -32 -75.5s-10.5 -53 -10.5 -77z" />
    <glyph glyph-name="A" unicode="A" horiz-adv-x="609" 
d="M603 0h-62l-85 236h-304l-83 -236h-62l254 708h86zM173 295h262l-131 369z" />
    <glyph glyph-name="B" unicode="B" horiz-adv-x="627" 
d="M347 0l-268 0.00195312v708h269c27.333 0 53.333 -3.66699 78 -11s46.167 -18.333 64.5 -33s32.833 -33.334 43.5 -56.001s16 -49 16 -79c0 -32 -5.66699 -61.333 -17 -88s-31 -48 -59 -64c41.333 -14.667 70 -37.667 86 -69s24 -68.333 24 -111
c-0.666992 -36.667 -7.16699 -67.5 -19.5 -92.5s-29 -45.333 -50 -61s-45.833 -26.834 -74.5 -33.501s-59.667 -10 -93 -10zM348 405.002c20.667 0 39.833 2.16699 57.5 6.5s33 11.5 46 21.5s23.167 22.833 30.5 38.5s11 34.834 11 57.501s-3.83301 41.667 -11.5 57
s-18 27.666 -31 36.999s-28.333 16 -46 20s-36.5 6 -56.5 6h-210v-244h210zM358.999 59.002c22 0 42.3311 1.66602 60.998 4.99902c21.333 4 39.833 11.333 55.5 22s27.834 25 36.501 43s13 41 13 69s-4.16699 51.5 -12.5 70.5s-20.166 34.333 -35.499 46
s-33.833 19.834 -55.5 24.501s-46.167 7 -73.5 7h-210v-287h210h11z" />
    <glyph glyph-name="C" unicode="C" horiz-adv-x="593" 
d="M325 718c24.667 0 49.333 -2.66797 74 -8.00098s47.667 -13.166 69 -23.499s40.5 -23.5 57.5 -39.5s30.5 -34.667 40.5 -56l-53 -26v-1c-8 16 -18.667 29.833 -32 41.5s-28.5 21.5 -45.5 29.5s-35.167 14 -54.5 18s-39 6 -59 6c-25.333 0 -50.333 -3.33301 -75 -10
s-46.5 -16.5 -65.5 -29.5s-34.333 -29.167 -46 -48.5s-17.5 -42 -17.5 -68v-298c0 -26 5.83301 -48.833 17.5 -68.5s27 -36 46 -49s40.833 -22.667 65.5 -29s49.667 -9.5 75 -9.5c20 0 39.667 2 59 6s37.5 10 54.5 18s32.167 17.833 45.5 29.5s24 25.5 32 41.5l53 -26
c-10 -21.333 -23.667 -40 -41 -56s-36.833 -29.333 -58.5 -40s-44.834 -18.667 -69.501 -24s-49.667 -8 -75 -8c-33.333 0 -65.666 4.5 -96.999 13.5s-59.333 22.5 -84 40.5s-44.5 40.333 -59.5 67s-22.5 58 -22.5 94v298c0 35.333 7.66699 66.5 23 93.5
s35.5 49.5 60.5 67.5s53.333 31.5 85 40.5s64.167 13.5 97.5 13.5z" />
    <glyph glyph-name="D" unicode="D" horiz-adv-x="640" 
d="M79 708h236c33.333 0 65.833 -4 97.5 -12s60 -20.333 85 -37s45 -38 60 -64s22.5 -57.333 22.5 -94v-295c0 -36 -7.5 -67 -22.5 -93s-35 -47.333 -60 -64s-53.333 -29 -85 -37s-64.167 -12 -97.5 -12h-236v708zM315 59c26 0 51.333 2.66602 76 7.99902s46.667 14 66 26
s34.833 27.333 46.5 46s17.5 41 17.5 67v295c0 26.667 -5.83301 49.334 -17.5 68.001s-27.167 34 -46.5 46s-41.333 20.667 -66 26s-50 8 -76 8h-177v-590h177z" />
    <glyph glyph-name="E" unicode="E" horiz-adv-x="569" 
d="M138 384h355v-60h-355v-265h385v-59h-444v708h444v-59h-385v-265z" />
    <glyph glyph-name="F" unicode="F" horiz-adv-x="555" 
d="M138 649v-286h337v-59h-337v-304h-59v708h443v-59h-384z" />
    <glyph glyph-name="G" unicode="G" horiz-adv-x="634" 
d="M324 718c24.667 0 49.3301 -2.66699 73.9971 -8s47.667 -13.333 69 -24s40.5 -24 57.5 -40s30.5 -34.667 40.5 -56l-53 -26c-8 16 -18.667 29.833 -32 41.5s-28.333 21.5 -45 29.5s-34.667 14 -54 18s-39 6 -59 6c-25.333 0 -50.333 -3.33301 -75 -10
s-46.5 -16.5 -65.5 -29.5s-34.333 -29.167 -46 -48.5s-17.5 -42 -17.5 -68v-296c0 -26 5.83301 -49 17.5 -69s27.334 -36.5 47.001 -49.5s41.834 -22.833 66.501 -29.5s50 -10 76 -10s51.333 3.33301 76 10s46.667 16.5 66 29.5s34.833 29.5 46.5 49.5s17.5 43 17.5 69v89
h-217v59h276v-147c0 -36 -7.66699 -67.667 -23 -95s-35.333 -50.166 -60 -68.499s-53 -32 -85 -41s-64.333 -13.5 -97 -13.5c-33.333 0 -65.833 4.5 -97.5 13.5s-60 22.667 -85 41s-45.167 41.166 -60.5 68.499s-23 59 -23 95v295c0 35.333 7.66699 66.5 23 93.5
s35.333 49.5 60 67.5s52.834 31.5 84.501 40.5s64.167 13.5 97.5 13.5z" />
    <glyph glyph-name="H" unicode="H" horiz-adv-x="689" 
d="M138 0h-59v708h59v-325h413v325h59v-708h-59v327h-413v-327z" />
    <glyph glyph-name="I" unicode="I" horiz-adv-x="217" 
d="M138 0h-59v708h59v-708z" />
    <glyph glyph-name="J" unicode="J" horiz-adv-x="593" 
d="M224 708l295.001 -0.00292969v-504c0 -35.333 -7.33301 -66.333 -22 -93s-34 -49 -58 -67s-51.167 -31.5 -81.5 -40.5s-61.5 -13.5 -93.5 -13.5c-28 0 -55.5 3.66699 -82.5 11s-51.667 18.333 -74 33s-41.5 32.834 -57.5 54.501s-26.667 46.834 -32 75.501l58 14
c4 -21.333 12.167 -40.166 24.5 -56.499s27.166 -29.833 44.499 -40.5s36.5 -18.667 57.5 -24s42.5 -8 64.5 -8c24 0 47.667 3.33301 71 10s44 16.5 62 29.5s32.5 29.5 43.5 49.5s16.5 43 16.5 69v442h-236v59z" />
    <glyph glyph-name="K" unicode="K" horiz-adv-x="616" 
d="M138 0h-59v708h59v-389l396 389h76l-341 -341l339 -367h-76l-305 325l-89 -89v-236z" />
    <glyph glyph-name="L" unicode="L" horiz-adv-x="508" 
d="M79 0v708h59v-649h354v-59h-413z" />
    <glyph glyph-name="M" unicode="M" horiz-adv-x="803" 
d="M138 0h-59v708h86l237 -535l236 535h86v-708h-59v626l-235 -529h-56l-236 529v-626z" />
    <glyph glyph-name="N" unicode="N" horiz-adv-x="689" 
d="M551 708h59v-708h-88l-384 617v-617h-59v708h72l400 -643v643z" />
    <glyph glyph-name="O" unicode="O" horiz-adv-x="677" 
d="M58 500c0 36 8 67.667 24 95s37.167 50.166 63.5 68.499s56.333 32 90 41s68.167 13.5 103.5 13.5c34.667 0 68.834 -4.5 102.501 -13.5s63.667 -22.667 90 -41s47.5 -41.166 63.5 -68.499s24 -59 24 -95v-292c0 -36 -8 -67.667 -24 -95s-37.167 -50.166 -63.5 -68.499
s-56.333 -32 -90 -41s-67.834 -13.5 -102.501 -13.5c-35.333 0 -69.833 4.5 -103.5 13.5s-63.667 22.667 -90 41s-47.5 41.166 -63.5 68.499s-24 59 -24 95v292zM117 208c0 -26.667 6.33105 -49.834 18.998 -69.501s29.5 -36.167 50.5 -49.5s44.667 -23.333 71 -30
s53.5 -10 81.5 -10c27.333 0 54.333 3.33301 81 10s50.334 16.667 71.001 30s37.334 29.833 50.001 49.5s19 42.834 19 69.501v292c0 28 -6.33301 52 -19 72s-29.5 36.5 -50.5 49.5s-44.833 22.5 -71.5 28.5s-54 9 -82 9c-27.333 0 -54.166 -3.16699 -80.499 -9.5
s-49.833 -16 -70.5 -29s-37.334 -29.5 -50.001 -49.5s-19 -43.667 -19 -71v-292z" />
    <glyph glyph-name="P" unicode="P" horiz-adv-x="613" 
d="M79 0l0.000976562 707.999h267c52 0 95.333 -11 130 -33s60.667 -49.333 78 -82c18 -32 27 -66.667 27 -104c0 -39.333 -9 -75.666 -27 -108.999c-16.667 -32.667 -42.334 -60 -77.001 -82s-78 -33 -130 -33h-209v-265h-59zM346.001 323.999
c39.333 0 72.168 8.16699 98.501 24.5s45.833 36.5 58.5 60.5s19 50.167 19 78.5s-6.66699 54.5 -20 78.5s-33 44 -59 60c-24.667 15.333 -55.334 23 -92.001 23h-5h-208v-325h208z" />
    <glyph glyph-name="Q" unicode="Q" horiz-adv-x="677" 
d="M619 208c0 -30 -5.33398 -56.499 -16.001 -79.499s-25 -43.167 -43 -60.5l56 -67l-43 -31l-56 66c-25.333 -15.333 -53.333 -26.833 -84 -34.5s-62 -11.5 -94 -11.5c-35.333 0 -69.833 4.5 -103.5 13.5s-63.667 22.667 -90 41s-47.5 41.166 -63.5 68.499s-24 59 -24 95
v292c0 36 8 67.667 24 95s37.167 50.166 63.5 68.499s56.333 32 90 41s68.167 13.5 103.5 13.5c34.667 0 68.834 -4.5 102.501 -13.5s63.667 -22.667 90 -41s47.5 -41.166 63.5 -68.499s24 -59 24 -95v-292zM559.999 500.001c0 28 -6.33301 52.001 -19 72.001
s-29.5 36.5 -50.5 49.5s-44.833 22.5 -71.5 28.5s-54 9 -82 9c-27.333 0 -54.166 -3.16699 -80.499 -9.5s-49.833 -16 -70.5 -29s-37.334 -29.5 -50.001 -49.5s-19 -43.667 -19 -71v-292c0 -26.667 6.33301 -49.834 19 -69.501s29.5 -36.167 50.5 -49.5
s44.667 -23.333 71 -30s53.5 -10 81.5 -10s54 2.33301 78 7s45.667 11.667 65 21l-59 70l42 33l60 -71c11.333 12.667 20 27 26 43s9 34.667 9 56v292z" />
    <glyph glyph-name="R" unicode="R" horiz-adv-x="618" 
d="M138 300l0.000976562 -299.998h-59v708h267c33.333 0 64.333 -3.83301 93 -11.5s53.5 -19.834 74.5 -36.501s37.667 -38 50 -64s18.833 -57.333 19.5 -94c0 -36.667 -6.33301 -67.834 -19 -93.501s-29.834 -46.5 -51.501 -62.5s-46.667 -27.667 -75 -35
s-58.5 -11 -90.5 -11h-2l237 -300h-73l-232 300h-139zM347.001 354.002c27.333 0 51.8359 2.5 73.5029 7.5s40.167 13.167 55.5 24.5s27.166 26.5 35.499 45.5s12.5 42.5 12.5 70.5s-4.33301 51.333 -13 70s-20.834 33.667 -36.501 45s-34.334 19.5 -56.001 24.5
s-45.5 7.5 -71.5 7.5h-209v-295h209z" />
    <glyph glyph-name="S" unicode="S" horiz-adv-x="591" 
d="M106 526c0 -20 4.33105 -36.668 12.998 -50.001c10 -16 24 -29.167 42 -39.5s38.833 -18.5 62.5 -24.5s48.5 -11.333 74.5 -16c30.667 -6 61.167 -12.833 91.5 -20.5s57.5 -19.334 81.5 -35.001s43 -36.5 57 -62.5c12 -22.667 18 -51.667 18 -87v-15
c-1.33301 -31.333 -9.5 -58.5 -24.5 -81.5s-34.167 -42.333 -57.5 -58s-49.833 -27.334 -79.5 -35.001s-60.167 -11.5 -91.5 -11.5c-26.667 0 -53 2.83301 -79 8.5s-50.333 14.334 -73 26.001s-43 26 -61 43s-32 36.833 -42 59.5l54 24c7.33301 -17.333 18 -32.333 32 -45
s30.167 -23.167 48.5 -31.5s38 -14.666 59 -18.999s42.167 -6.5 63.5 -6.5c23.333 0 46.166 2.66699 68.499 8s42.333 13.333 60 24s32.167 24 43.5 40s18 35 20 57v13c0 23.333 -4.33301 43 -13 59c-10.667 18.667 -25.667 33.834 -45 45.501
s-41.666 20.834 -66.999 27.501s-51.666 13 -78.999 19c-29.333 6 -58.166 12.667 -86.499 20s-53.666 18 -75.999 32s-40.166 32.333 -53.499 55c-12 20.667 -18 47 -18 79v10c0.666992 30 8.16699 56.167 22.5 78.5s32.833 41 55.5 56s48.5 26.333 77.5 34
s58.833 11.5 89.5 11.5c26 0 51.833 -2.83301 77.5 -8.5s49.667 -14 72 -25s42.166 -24.833 59.499 -41.5s31 -36 41 -58l-53 -24c-7.33301 16.667 -17.833 31.167 -31.5 43.5s-29.334 22.666 -47.001 30.999s-36.667 14.5 -57 18.5s-40.833 6 -61.5 6
c-23.333 0 -45.833 -2.5 -67.5 -7.5s-41.167 -12.5 -58.5 -22.5s-31.5 -22.667 -42.5 -38s-17.167 -33.333 -18.5 -54c-0.666992 -4 -1 -8 -1 -12z" />
    <glyph glyph-name="T" unicode="T" horiz-adv-x="559" 
d="M545 651h-236v-651h-59v651h-236v57h531v-57z" />
    <glyph glyph-name="U" unicode="U" horiz-adv-x="679" 
d="M133 210c0 -26.667 5.83105 -50 17.498 -70s27.334 -36.833 47.001 -50.5s41.834 -23.834 66.501 -30.501s50 -10 76 -10s51.333 3.33301 76 10s46.667 16.834 66 30.501s34.833 30.5 46.5 50.5s17.5 43.333 17.5 70v498h59v-497c0 -36.667 -7.66699 -68.834 -23 -96.501
s-35.333 -50.667 -60 -69s-53 -32.166 -85 -41.499s-64.333 -14 -97 -14c-33.333 0 -65.833 4.66699 -97.5 14s-60 23.166 -85 41.499s-45.167 41.333 -60.5 69s-23 59.834 -23 96.501v497h59v-498z" />
    <glyph glyph-name="V" unicode="V" horiz-adv-x="608" 
d="M6 709h62l237 -665l235 665h62l-254 -709h-87z" />
    <glyph glyph-name="W" unicode="W" horiz-adv-x="941" 
d="M865 708h62l-205 -708h-86l-165 522l-166 -522h-86l-205 708h62l186 -664l180 571h57l180 -571z" />
    <glyph glyph-name="X" unicode="X" horiz-adv-x="573" 
d="M564 0h-71l-206 307l-207 -307h-71l243 353l-241 355h69l207 -303l206 303h70l-241 -355z" />
    <glyph glyph-name="Y" unicode="Y" horiz-adv-x="559" 
d="M309 0h-59v277l-246 431h69l207 -372l206 372h70l-247 -431v-277z" />
    <glyph glyph-name="Z" unicode="Z" horiz-adv-x="577" 
d="M42 708h486l21 -45l-441 -604h431v-59h-497l-18 45l441 604h-423v59z" />
    <glyph glyph-name="bracketleft" unicode="[" horiz-adv-x="249" 
d="M126 -85h90v-48h-150v888h150v-47h-90v-793z" />
    <glyph glyph-name="backslash" unicode="\" horiz-adv-x="401" 
d="M22 726l53 18l304 -762l-54 -18z" />
    <glyph glyph-name="bracketright" unicode="]" horiz-adv-x="249" 
d="M123 708h-90v48h150v-888h-150v48h90v792z" />
    <glyph glyph-name="asciicircum" unicode="^" horiz-adv-x="539" 
d="M496 425h-70l-160 226l-154 -226h-69l200 283h46z" />
    <glyph glyph-name="underscore" unicode="_" horiz-adv-x="628" 
d="M564 -87h-500v56h500v-56z" />
    <glyph glyph-name="grave" unicode="`" horiz-adv-x="210" 
d="M5 869h80l70 -113h-58z" />
    <glyph glyph-name="a" unicode="a" horiz-adv-x="491" 
d="M373 363c0 18.667 -4.00391 34.8359 -12.0039 48.5029s-18.833 25.167 -32.5 34.5s-29 16.333 -46 21s-34.5 7 -52.5 7c-26 0 -51 -4.33301 -75 -13s-42.667 -21.667 -56 -39l-38 36c21.333 23.333 47.666 40.833 78.999 52.5s63.333 17.5 96 17.5
c24.667 0 48.667 -3.5 72 -10.5s44 -17.333 62 -31s32.333 -30.834 43 -51.501s16 -44.667 16 -72v-340c-64 -22 -130.667 -33 -200 -33h-12c-25.333 0 -49 3.33301 -71 10s-41.167 16.667 -57.5 30s-29.166 29.833 -38.499 49.5s-14 43.167 -14 70.5
c0 29.333 5.83301 54.166 17.5 74.499s26.834 37 45.501 50s39.834 22.5 63.501 28.5s47.834 9 72.501 9c24 0 47.833 -2.33301 71.5 -7s45.834 -11.334 66.501 -20.001v78zM236.996 264.002c-19.333 0 -37.668 -1.83203 -55.001 -5.49902s-32.666 -10 -45.999 -19
s-24 -20.667 -32 -35s-12 -32.5 -12 -54.5c0 -39.333 12.167 -67.333 36.5 -84s54.833 -25.334 91.5 -26.001h17c20 0 40 0.666992 60 2c26 2.66699 51.333 7 76 13v184c-17.333 6.66699 -38 12.5 -62 17.5s-48.667 7.5 -74 7.5z" />
    <glyph glyph-name="b" unicode="b" horiz-adv-x="512" 
d="M263 528c24.667 0 48.833 -3.49707 72.5 -10.4971s44.667 -17.667 63 -32s33.166 -32 44.499 -53s17 -45.167 17 -72.5v-202c0 -29.333 -5.5 -54.333 -16.5 -75s-25.667 -37.834 -44 -51.501s-39.166 -23.834 -62.499 -30.501s-47 -10.334 -71 -11.001
c-34 0 -67.833 3 -101.5 9s-66.5 14.667 -98.5 26v685h56v-213c45.333 20.667 92.333 31 141 31zM265.999 45.0029c17.333 0 34.168 2.33203 50.501 6.99902s31 11.667 44 21s23.333 20.833 31 34.5s11.5 29.834 11.5 48.501v207c0 18.667 -3.83301 35 -11.5 49
s-18 25.5 -31 34.5s-28 15.833 -45 20.5s-34.167 7 -51.5 7c-24 0 -48.167 -2.5 -72.5 -7.5s-47.5 -12.167 -69.5 -21.5v-381c23.333 -8 47.166 -13.167 71.499 -15.5s48.5 -3.5 72.5 -3.5z" />
    <glyph glyph-name="c" unicode="c" horiz-adv-x="461" 
d="M248 474c-17.333 0 -34.499 -2.16602 -51.499 -6.49902s-32 -11 -45 -20s-23.5 -20.333 -31.5 -34s-12 -30.167 -12 -49.5v-210c0 -19.333 4 -35.833 12 -49.5s18.5 -25 31.5 -34s28 -15.667 45 -20s34.167 -6.5 51.5 -6.5c30 0 58.167 6.5 84.5 19.5
s43.5 33.167 51.5 60.5l51 -23c-6.66699 -18.667 -16.5 -35 -29.5 -49s-27.833 -25.5 -44.5 -34.5s-34.667 -15.833 -54 -20.5s-39 -7 -59 -7c-24 0 -47.833 3.5 -71.5 10.5s-44.667 17.5 -63 31.5s-33.166 31.5 -44.499 52.5s-17 45.5 -17 73.5v202
c0 28 5.66699 52.5 17 73.5s26.166 38.5 44.499 52.5s39.333 24.5 63 31.5s47.5 10.5 71.5 10.5c36 0 70.167 -7.33301 102.5 -22s57.166 -37 74.499 -67l-47 -28c-11.333 21.333 -29 37.166 -53 47.499s-49.667 15.5 -77 15.5z" />
    <glyph glyph-name="d" unicode="d" horiz-adv-x="512" 
d="M52 158l-0.000976562 201c0 27.333 5.66699 51.5 17 72.5s26.166 38.667 44.499 53s39.333 25 63 32s47.834 10.5 72.501 10.5c48.667 0 95.667 -10.333 141 -31v214h56v-685c-32 -11.333 -64.833 -20 -98.5 -26s-67.5 -9 -101.5 -9c-24 0.666992 -47.667 4.5 -71 11.5
s-44.166 17.5 -62.499 31.5s-33 31.333 -44 52s-16.5 45 -16.5 73zM247.999 471c-17.333 0 -34.498 -2.33203 -51.498 -6.99902s-32 -11.5 -45 -20.5s-23.333 -20.5 -31 -34.5s-11.5 -30.333 -11.5 -49v-204c0 -18.667 3.83301 -34.834 11.5 -48.501s18 -25.167 31 -34.5
s27.667 -16.333 44 -21s33.166 -7 50.499 -7c24 0 48.167 1.16699 72.5 3.5s48.166 7.5 71.499 15.5v378c-22 9.33301 -45.167 16.5 -69.5 21.5s-48.5 7.5 -72.5 7.5z" />
    <glyph glyph-name="e" unicode="e" 
d="M109 156c0 -19.333 3.99902 -35.999 11.999 -49.999s18.5 -25.667 31.5 -35s27.833 -16.166 44.5 -20.499s34 -6.5 52 -6.5c28 0 54.333 5.66699 79 17s42.334 28.666 53.001 51.999l50 -23c-8 -16.667 -18.333 -31.334 -31 -44.001s-27.167 -23.167 -43.5 -31.5
s-33.666 -14.5 -51.999 -18.5s-36.833 -6 -55.5 -6c-24.667 0 -48.834 3.5 -72.501 10.5s-44.667 17.5 -63 31.5s-33.166 31.5 -44.499 52.5s-17 45.5 -17 73.5v202c0 28 5.66699 52.5 17 73.5s26.166 38.5 44.499 52.5s39.333 24.5 63 31.5s47.834 10.5 72.501 10.5
c24 0 47.833 -3.5 71.5 -10.5s44.667 -17.5 63 -31.5s33.166 -31.5 44.499 -52.5s17 -45.5 17 -73.5v-126h-336v-78zM388.999 364.001c0 18.667 -4 35 -12 49s-18.5 25.5 -31.5 34.5s-28 15.667 -45 20s-34.167 6.5 -51.5 6.5c-18 0 -35.333 -2.16699 -52 -6.5
s-31.667 -11 -45 -20s-23.833 -20.5 -31.5 -34.5s-11.5 -30.333 -11.5 -49v-83h280v83z" />
    <glyph glyph-name="f" unicode="f" horiz-adv-x="256" 
d="M220 661c-30 0 -52.667 -7.66699 -68 -23c-18.667 -18.667 -28 -50 -28 -94v-50h112v-50h-112v-444h-56v544c0 30.667 4.33301 57.167 13 79.5s20.667 40.5 36 54.5s33.666 24 54.999 30c14.667 3.33301 30.334 5 47.001 5c8 0 16 -0.333008 24 -1v-52
c-8 0.666992 -15.667 1 -23 1z" />
    <glyph glyph-name="g" unicode="g" horiz-adv-x="507" 
d="M245 -155c18.667 0 36.668 2.49902 54.001 7.49902s32.333 12.5 45 22.5s22.834 22.5 30.501 37.5s11.5 32.5 11.5 52.5v56c-22 -11.333 -44.667 -19.333 -68 -24s-47 -7 -71 -7c-24.667 0 -48.667 3.5 -72 10.5s-44.166 17.5 -62.499 31.5s-33 31.5 -44 52.5
s-16.5 45.167 -16.5 72.5v205c0 27.333 5.5 51.333 16.5 72s25.333 38 43 52s38 24.5 61 31.5s46.5 10.5 70.5 10.5c23.333 0 47.166 -2.16699 71.499 -6.5s48.166 -9.83301 71.499 -16.5l55 -17v-522c0 -28 -5.5 -52.667 -16.5 -74s-25.5 -39.333 -43.5 -54
s-38.667 -25.667 -62 -33s-47.666 -11 -72.999 -11c-32 0 -63 5.33301 -93 16s-55.667 27.334 -77 50.001l35 33c15.333 -16 35.166 -28 59.499 -36s49.166 -12 74.499 -12zM243.001 473.999c-17.333 0 -33.9971 -2.33398 -49.9971 -7.00098s-30.333 -11.5 -43 -20.5
s-22.834 -20.333 -30.501 -34s-11.5 -29.834 -11.5 -48.501v-211c0 -18 3.83301 -34 11.5 -48s18 -25.5 31 -34.5s27.667 -15.833 44 -20.5s33.166 -7 50.499 -7c23.333 0.666992 47.166 3.33398 71.499 8.00098s47.5 11.667 69.5 21v372
c-15.333 6.66699 -36 13.334 -62 20.001s-53 10 -81 10z" />
    <glyph glyph-name="h" unicode="h" horiz-adv-x="525" 
d="M264 528c24.667 0 48.668 -3.66797 72.001 -11.001s44.166 -18 62.499 -32s33.166 -31.333 44.499 -52s17 -44.667 17 -72v-361h-56v364c0 18.667 -4 34.834 -12 48.501s-18.5 25 -31.5 34s-27.833 15.833 -44.5 20.5s-33.667 7 -51 7
c-48.667 0 -95.667 -9.33301 -141 -28v-446h-56v708h56v-211c44.667 20.667 91.334 31 140.001 31z" />
    <glyph glyph-name="i" unicode="i" horiz-adv-x="192" 
d="M51 645c0 13.333 4.66699 24.666 14 33.999s20.666 14 33.999 14s24.666 -4.66699 33.999 -14s14 -20.666 14 -33.999s-4.66699 -24.666 -14 -33.999s-20.666 -14 -33.999 -14s-24.666 4.66699 -33.999 14s-14 20.666 -14 33.999zM124 0h-60v518h60v-518z" />
    <glyph glyph-name="j" unicode="j" horiz-adv-x="192" 
d="M-35 -136c36 0 62.166 10 78.499 30s24.5 48 24.5 84v540h56v-540c0 -52.667 -13.667 -94.167 -41 -124.5s-66.666 -45.5 -117.999 -45.5v56zM50.999 645c0 13.333 4.66699 24.666 14 33.999s20.666 14 33.999 14s24.666 -4.66699 33.999 -14s14 -20.666 14 -33.999
s-4.66699 -24.666 -14 -33.999s-20.666 -14 -33.999 -14s-24.666 4.66699 -33.999 14s-14 20.666 -14 33.999z" />
    <glyph glyph-name="k" unicode="k" horiz-adv-x="483" 
d="M124 0h-56v708h56v-462l273 272h70l-232 -234l230 -284h-69l-200 244l-72 -72v-172z" />
    <glyph glyph-name="l" unicode="l" horiz-adv-x="229" 
d="M223 -10c-50.667 0 -89.666 14.334 -116.999 43.001s-41 69 -41 121v554h56v-554c0 -34.667 8.16699 -61.334 24.5 -80.001s42.166 -28 77.499 -28v-56z" />
    <glyph glyph-name="m" unicode="m" horiz-adv-x="811" 
d="M238 528c32 0 62.5 -5.3291 91.5 -15.9961s53.167 -28.667 72.5 -54c19.333 24.667 42.666 42.5 69.999 53.5s54.333 16.5 81 16.5c26 0 50.667 -3.5 74 -10.5s44 -17.833 62 -32.5s32.167 -32.834 42.5 -54.501s15.5 -46.834 15.5 -75.501v-355h-57v355
c0 22 -3.83301 40.5 -11.5 55.5s-17.667 27.167 -30 36.5s-26.666 16.166 -42.999 20.499s-33.166 6.5 -50.499 6.5c-14 0 -28.333 -2 -43 -6s-28 -9.83301 -40 -17.5s-21.833 -17.334 -29.5 -29.001s-11.5 -25.167 -11.5 -40.5v-381h-55v377
c0 16.667 -4.33301 31.167 -13 43.5s-19.834 22.5 -33.501 30.5s-29.167 13.833 -46.5 17.5s-35 5.5 -53 5.5c-21.333 0 -41.5 -2.5 -60.5 -7.5s-34.5 -12.167 -46.5 -21.5v-445h-57v484c22.667 12.667 49 23.167 79 31.5s61 12.5 93 12.5z" />
    <glyph glyph-name="n" unicode="n" horiz-adv-x="522" 
d="M457 361v-360.997h-56v363c0 18.667 -4 35 -12 49s-18.5 25.667 -31.5 35s-27.5 16.166 -43.5 20.499s-32.333 6.5 -49 6.5c-28 0 -55 -3.33301 -81 -10s-46.667 -13.334 -62 -20.001v-444h-56v487c32 11.333 64.667 21 98 29s67 12 101 12
c24 -0.666992 47.5 -4.5 70.5 -11.5s43.5 -17.333 61.5 -31s32.5 -30.834 43.5 -51.501s16.5 -45 16.5 -73z" />
    <glyph glyph-name="o" unicode="o" horiz-adv-x="497" 
d="M52 359c0 28 5.66699 52.5 17 73.5s26.166 38.5 44.499 52.5s39.333 24.667 63 32s47.834 11 72.501 11s48.667 -3.66699 72 -11s44.166 -18 62.499 -32s33.166 -31.5 44.499 -52.5s17 -45.5 17 -73.5v-200c0 -28 -5.66699 -52.667 -17 -74s-26.166 -39 -44.499 -53
s-39.166 -24.5 -62.499 -31.5s-47.333 -10.5 -72 -10.5s-48.834 3.5 -72.501 10.5s-44.667 17.5 -63 31.5s-33.166 31.667 -44.499 53s-17 46 -17 74v200zM249 474c-17.333 0 -34.333 -2.16699 -51 -6.5s-31.667 -11 -45 -20s-24.166 -20.5 -32.499 -34.5
s-12.5 -31 -12.5 -51v-205c0 -20 4.16699 -37 12.5 -51s19.166 -25.667 32.499 -35s28.333 -16.166 45 -20.499s33.667 -6.5 51 -6.5c16.667 0 33.334 2.16699 50.001 6.5s31.667 11.166 45 20.499s24.166 21 32.499 35s12.5 31 12.5 51v205c0 20 -4.16699 37 -12.5 51
s-19.166 25.5 -32.499 34.5s-28.333 15.667 -45 20s-33.334 6.5 -50.001 6.5z" />
    <glyph glyph-name="p" unicode="p" horiz-adv-x="513" 
d="M267 527c24 0 47.6689 -3.50098 71.002 -10.501s44.166 -17.5 62.499 -31.5s33 -31.333 44 -52s16.5 -45 16.5 -73v-201c0 -27.333 -5.66699 -51.5 -17 -72.5s-26.166 -38.667 -44.499 -53s-39.333 -25.166 -63 -32.499s-47.834 -11 -72.501 -11
s-48.834 2.83301 -72.501 8.5s-46.5 13.5 -68.5 23.5v-213h-56v683c32 11.333 64.833 20 98.5 26s67.5 9 101.5 9zM265.002 42.999c17.333 0 34.3311 2.33105 50.998 6.99805s31.5 11.667 44.5 21s23.5 20.833 31.5 34.5s12 29.834 12 48.501v211
c0 18.667 -3.83301 34.834 -11.5 48.501s-18 25 -31 34s-27.667 15.667 -44 20s-33.166 6.5 -50.499 6.5c-24 0 -48.167 -0.833008 -72.5 -2.5s-48.166 -6.5 -71.499 -14.5v-385c22 -9.33301 45.167 -16.5 69.5 -21.5s48.5 -7.5 72.5 -7.5z" />
    <glyph glyph-name="q" unicode="q" horiz-adv-x="513" 
d="M250 -10c-24.667 0 -48.833 3.33301 -72.5 10s-44.667 16.667 -63 30s-33.166 30.333 -44.499 51s-17 44.667 -17 72v212c0 28 5.66699 52.167 17 72.5s26 37.333 44 51s38.667 23.667 62 30s47 9.5 71 9.5c34.667 0 68.667 -3 102 -9s66 -14.667 98 -26v-684h-56v213
c-22 -10 -44.833 -17.833 -68.5 -23.5s-47.834 -8.5 -72.501 -8.5zM247.001 474c-17.333 0 -34.167 -2.16504 -50.5 -6.49805s-31 -11 -44 -20s-23.333 -20.333 -31 -34s-11.5 -29.834 -11.5 -48.501v-211c0 -18.667 4 -34.834 12 -48.501s18.5 -25 31.5 -34
s27.833 -15.833 44.5 -20.5s33.667 -7 51 -7c49.333 0 96.666 9.33301 141.999 28v385c-23.333 8 -47.166 12.833 -71.499 14.5s-48.5 2.5 -72.5 2.5z" />
    <glyph glyph-name="r" unicode="r" horiz-adv-x="302" 
d="M251 528c6 0 12.165 -0.165039 18.498 -0.498047s12.833 -0.833008 19.5 -1.5v-56c-11.333 2.66699 -22 4 -32 4h-4c-11.333 -0.666992 -23.333 -2.33398 -36 -5.00098c-26 -6 -48.5 -17.833 -67.5 -35.5s-28.5 -41.834 -28.5 -72.501v-361h-56v361
c0 30.667 6.33301 56.667 19 78s28.334 38.5 47.001 51.5s38.834 22.5 60.501 28.5s41.5 9 59.5 9z" />
    <glyph glyph-name="s" unicode="s" horiz-adv-x="440" 
d="M234 44c14 0 27.9971 1.49902 41.9971 4.49902s26.5 8.16699 37.5 15.5s19.667 17 26 29s9.5 27 9.5 45c0 17.333 -3.66699 31.666 -11 42.999s-16.833 20.666 -28.5 27.999s-24.5 12.833 -38.5 16.5s-27.667 6.83398 -41 9.50098
c-21.333 4 -42.666 8.83301 -63.999 14.5s-40.5 13.834 -57.5 24.501s-31 24.5 -42 41.5s-16.5 38.833 -16.5 65.5c0 26 5.66699 48.333 17 67s26 34 44 46s37.833 20.667 59.5 26s42.834 8 63.501 8c26.667 0 52.834 -4.33301 78.501 -13s47.834 -21.667 66.501 -39
l-36 -42c-14.667 15.333 -31.334 25.833 -50.001 31.5s-38.334 8.5 -59.001 8.5c-13.333 0 -27.5 -1.5 -42.5 -4.5s-29 -8 -42 -15s-23.667 -16.5 -32 -28.5s-12.5 -27 -12.5 -45c0 -17.333 4.66699 -31.5 14 -42.5s20.833 -19.833 34.5 -26.5s28.167 -11.667 43.5 -15
l43 -9c20 -4 39.833 -9.33301 59.5 -16s37.334 -15.667 53.001 -27s28.334 -25.666 38.001 -42.999s14.5 -38.666 14.5 -63.999c0 -26 -4.83301 -48.167 -14.5 -66.5s-22.5 -33.5 -38.5 -45.5s-34.167 -20.833 -54.5 -26.5s-41.5 -8.83398 -63.5 -9.50098h-8
c-38 0 -73.333 8.66699 -106 26c-34.667 18 -63.334 45 -86.001 81l43 27c19.333 -26.667 42.833 -46.667 70.5 -60s56.5 -20 86.5 -20z" />
    <glyph glyph-name="t" unicode="t" horiz-adv-x="263" 
d="M209 -12c-15.333 0 -28.999 1.99902 -40.999 5.99902c-23.333 6 -42.5 16.333 -57.5 31s-26.333 33.334 -34 56.001s-11.5 48 -11.5 76v479h49l7 -118h112v-50h-112v-311c0 -18 2 -34.833 6 -50.5s11 -29 21 -40s23.333 -18.833 40 -23.5
c8.66699 -2.66699 18.667 -4 30 -4c9.33301 0 19.666 1 30.999 3v-50c-14 -2.66699 -27.333 -4 -40 -4z" />
    <glyph glyph-name="u" unicode="u" horiz-adv-x="521" 
d="M256 -10c-24 0 -47.502 3.5 -70.502 10.5s-43.5 17.5 -61.5 31.5s-32.5 31.333 -43.5 52s-16.5 45 -16.5 73v362h56v-365c0 -18 3.83301 -33.833 11.5 -47.5s17.834 -25.167 30.501 -34.5s27.167 -16.333 43.5 -21s33.166 -7 50.499 -7c28 0 55 3.5 81 10.5
s46.667 13.833 62 20.5v444h56v-489l-56 -17c-23.333 -6.66699 -47.166 -12.167 -71.499 -16.5s-48.166 -6.5 -71.499 -6.5z" />
    <glyph glyph-name="v" unicode="v" horiz-adv-x="471" 
d="M458 518l-182 -518h-81l-182 518h59l164 -467l163 467h59z" />
    <glyph glyph-name="w" unicode="w" horiz-adv-x="723" 
d="M174 0l-156 518h59l137 -460l112 460h71l112 -460l137 460h59l-156 -518h-80l-107 443l-108 -443h-80z" />
    <glyph glyph-name="x" unicode="x" horiz-adv-x="463" 
d="M265 259l178 -259h-68l-143 218l-144 -218h-68l178 259l-178 259h68l144 -219l143 219h68z" />
    <glyph glyph-name="y" unicode="y" horiz-adv-x="535" 
d="M264 -152c19.333 0 37.834 2.66699 55.501 8s33.167 13.166 46.5 23.499s24 23.333 32 39s12 34.167 12 55.5v50c-22 -14 -45.167 -23 -69.5 -27s-49.166 -6.33301 -74.499 -7c-25.333 0 -50.166 3.66699 -74.499 11s-46 18.333 -65 33s-34.167 32.834 -45.5 54.501
s-17 46.5 -17 74.5v355h58v-357c0 -19.333 4.16699 -36.333 12.5 -51s19.166 -27 32.499 -37s28.5 -17.667 45.5 -23s34.5 -8 52.5 -8c49.333 0 97.666 10.333 144.999 31v445h57v-544c0 -30 -5.5 -56.333 -16.5 -79s-25.833 -41.5 -44.5 -56.5s-40 -26.167 -64 -33.5
s-49.333 -11 -76 -11c-34 0 -66.833 6 -98.5 18s-57.834 29.333 -78.501 52l39 36c17.333 -18 37.5 -31.167 60.5 -39.5s48.167 -12.5 75.5 -12.5z" />
    <glyph glyph-name="z" unicode="z" horiz-adv-x="464" 
d="M45 518h361l23 -41l-323 -418h321v-59h-377l-24 40l326 424h-307v54z" />
    <glyph glyph-name="braceleft" unicode="{" horiz-adv-x="276" 
d="M206 708c-10 0 -17.832 -1.82617 -23.499 -5.49316s-9.83398 -8.83398 -12.501 -15.501s-4.16699 -14.834 -4.5 -24.501s-0.5 -20.834 -0.5 -33.501v-160c0 -26 -2.16699 -48.5 -6.5 -67.5s-9.5 -34.833 -15.5 -47.5s-12.167 -22.334 -18.5 -29.001
s-11.166 -10.667 -14.499 -12v-2c3.33301 -2 8.16602 -6.33301 14.499 -13s12.5 -16.167 18.5 -28.5s11.167 -28 15.5 -47s6.5 -41.5 6.5 -67.5v-164c0 -24.667 2.5 -43.334 7.5 -56.001s17.833 -19 38.5 -19h32v-48h-50c-28 0 -49.667 10.833 -65 32.5s-23 51.167 -23 88.5
v146c0 19.333 -1 38.166 -3 56.499s-5.66699 34.666 -11 48.999s-12.5 25.833 -21.5 34.5s-20.5 13 -34.5 13v48c14 0 25.5 4.33301 34.5 13s16.167 20.167 21.5 34.5s9 30.833 11 49.5s3 37.667 3 57v145c0 38 7.66699 67.667 23 89s37 32 65 32h50v-48h-37z" />
    <glyph glyph-name="bar" unicode="|" horiz-adv-x="188" 
d="M66 -178v932h56v-932h-56z" />
    <glyph glyph-name="braceright" unicode="}" horiz-adv-x="276" 
d="M83 756c28 0 49.668 -10.6738 65.001 -32.0068s23 -51 23 -89v-145c0 -19.333 1 -38.333 3 -57s5.66699 -35.167 11 -49.5s12.5 -25.833 21.5 -34.5s20.5 -13 34.5 -13v-48c-14 0 -25.5 -4.33301 -34.5 -13s-16.167 -20.167 -21.5 -34.5s-9 -30.666 -11 -48.999
s-3 -37.166 -3 -56.499v-146c0 -37.333 -7.66699 -66.833 -23 -88.5s-37 -32.5 -65 -32.5h-50v48h32c20.667 0 33.5 6.33301 38.5 19s7.5 31.334 7.5 56.001v164c0 26 2.16699 48.5 6.5 67.5s9.5 34.667 15.5 47s12.167 21.833 18.5 28.5s11.166 11 14.499 13v2
c-3.33301 1.33301 -8.16602 5.33301 -14.499 12s-12.5 16.334 -18.5 29.001s-11.167 28.5 -15.5 47.5s-6.5 41.5 -6.5 67.5v160c0 12.667 -0.166992 23.834 -0.5 33.501s-1.83301 17.834 -4.5 24.501s-6.83398 11.834 -12.501 15.501s-13.5 5.5 -23.5 5.5h-37v48h50z" />
    <glyph glyph-name="asciitilde" unicode="~" horiz-adv-x="527" 
d="M346 242c-17.333 0 -33 3.66602 -47 10.999s-27.5 15.166 -40.5 23.499s-25.833 16.166 -38.5 23.499s-26 11 -40 11c-20 0 -36.833 -6.66699 -50.5 -20s-26.167 -28.666 -37.5 -45.999l-34 29c5.33301 10.667 11.833 21.334 19.5 32.001s16.5 20.334 26.5 29.001
s21.5 15.667 34.5 21s27.833 8 44.5 8c18.667 0 35.5 -3.5 50.5 -10.5s29 -14.833 42 -23.5s25.5 -16.5 37.5 -23.5s24.333 -10.5 37 -10.5c20 0 36.833 7 50.5 21s26.167 29.667 37.5 47l33 -30c-5.33301 -11.333 -11.833 -22.5 -19.5 -33.5s-16.5 -20.833 -26.5 -29.5
s-21.5 -15.667 -34.5 -21s-27.833 -8 -44.5 -8z" />
    <glyph glyph-name="uni00A0" unicode="&#xa0;" horiz-adv-x="218" 
 />
    <glyph glyph-name="exclamdown" unicode="&#xa1;" horiz-adv-x="198" 
d="M129 -190h-60v518h60v-518zM51 480c0 13.333 4.66699 24.666 14 33.999s20.666 14 33.999 14s24.666 -4.66699 33.999 -14s14 -20.666 14 -33.999s-4.66699 -24.666 -14 -33.999s-20.666 -14 -33.999 -14s-24.666 4.66699 -33.999 14s-14 20.666 -14 33.999z" />
    <glyph glyph-name="cent" unicode="&#xa2;" horiz-adv-x="473" 
d="M268 -94h-46.001v92c-22 2.66699 -43.167 8 -63.5 16s-38.166 19 -53.499 33s-27.666 30.833 -36.999 50.5s-14 42.167 -14 67.5v190c0 25.333 4.66699 47.833 14 67.5s21.666 36.5 36.999 50.5s33.166 25 53.499 33s41.5 13 63.5 15v93h46v-92
c32.667 -2 63.334 -10.167 92.001 -24.5s50.667 -35.5 66 -63.5l-47 -30c-10 19.333 -25.167 34 -45.5 44s-42.166 16 -65.499 18v-412c26.667 2 51.167 9.5 73.5 22.5s37.166 31.833 44.499 56.5l50 -25c-12.667 -34.667 -34.667 -61 -66 -79s-65.333 -28.333 -102 -31v-92
zM109.999 357v-2v-190v-2c0 -16 3 -30.333 9 -43s14.167 -23.5 24.5 -32.5s22.166 -16.167 35.499 -21.5s27.666 -9 42.999 -11v410c-15.333 -2 -29.666 -5.66699 -42.999 -11s-25.166 -12.5 -35.499 -21.5s-18.5 -19.833 -24.5 -32.5s-9 -27 -9 -43z" />
    <glyph glyph-name="sterling" unicode="&#xa3;" horiz-adv-x="527" 
d="M147 349h-104.003v44h104v118c0 22.667 3.16699 46.167 9.5 70.5s17.333 46.666 33 66.999s36.334 37 62.001 50s57.834 19.5 96.501 19.5c26.667 0 50.667 -4.5 72 -13.5s42.666 -22.833 63.999 -41.5l-40 -36c-14 14 -28.667 24 -44 30s-33.666 9 -54.999 9
c-25.333 0 -46.833 -4.83301 -64.5 -14.5s-32.167 -21.667 -43.5 -36s-19.666 -30.166 -24.999 -47.499s-8 -33.333 -8 -48v-127h165v-44h-165v-300h275v-49h-436v49h104v300z" />
    <glyph glyph-name="currency" unicode="&#xa4;" horiz-adv-x="621" 
d="M62 354c0 61.333 20 113.666 60 156.999l-57 55l34 37l57 -56c22 17.333 46.333 30.5 73 39.5s54 13.5 82 13.5s55.333 -4.5 82 -13.5s51 -22.167 73 -39.5l57 56l34 -37l-57 -55c40 -43.333 60 -95.666 60 -156.999s-20 -113.666 -60 -156.999l57 -55l-34 -37l-57 56
c-22 -17.333 -46.333 -30.5 -73 -39.5s-54 -13.5 -82 -13.5s-55.333 4.5 -82 13.5s-51 22.167 -73 39.5l-57 -56l-34 37l57 55c-40 43.333 -60 95.666 -60 156.999zM116 353c0 -27.333 5.16699 -52.666 15.5 -75.999s24.166 -43.833 41.499 -61.5s37.833 -31.5 61.5 -41.5
s48.5 -15 74.5 -15c26.667 0 51.667 5 75 15s43.833 23.833 61.5 41.5s31.667 38.167 42 61.5s15.5 48.666 15.5 75.999s-5.16699 53 -15.5 77s-24.333 44.833 -42 62.5s-38.167 31.667 -61.5 42s-48.333 15.5 -75 15.5c-26 0 -50.833 -5.16699 -74.5 -15.5
s-44.167 -24.333 -61.5 -42s-31.166 -38.5 -41.499 -62.5s-15.5 -49.667 -15.5 -77z" />
    <glyph glyph-name="yen" unicode="&#xa5;" horiz-adv-x="598" 
d="M328 265v-53h169l-10 -44h-159v-167h-59v167h-168l9 44h159v53h-165l10 44h137l-228 400h69l207 -380l206 380h70l-229 -400h150l-10 -44h-158z" />
    <glyph glyph-name="brokenbar" unicode="&#xa6;" horiz-adv-x="200" 
d="M71 356v350h58v-350h-58zM71 -144v350h58v-350h-58z" />
    <glyph glyph-name="section" unicode="&#xa7;" horiz-adv-x="475" 
d="M229 -87c14.667 0 29.665 2.16895 44.998 6.50195s29 10.833 41 19.5s21.833 19.167 29.5 31.5s11.5 26.5 11.5 42.5c0 22.667 -7.5 41.5 -22.5 56.5s-33.833 28.333 -56.5 40s-47 23 -73 34s-50.333 24 -73 39s-41.5 32.667 -56.5 53s-22.5 46.166 -22.5 77.499
c0 16.667 2.83301 31.667 8.5 45s13.5 25.333 23.5 36s21.333 19.834 34 27.501s26 14.5 40 20.5c-24 14.667 -43.667 32 -59 52s-23 45 -23 75c0 26 5.33301 48.667 16 68s24.834 35.666 42.501 48.999s37.5 23.333 59.5 30s44.667 10 68 10
c16.667 0 33.167 -1.83301 49.5 -5.5s31.666 -9.16699 45.999 -16.5s27 -17 38 -29s19.833 -26.333 26.5 -43l-53 -29c-9.33301 22.667 -24 39.5 -44 50.5s-42 16.5 -66 16.5c-15.333 0 -30.333 -2.16699 -45 -6.5s-27.667 -10.833 -39 -19.5
s-20.666 -19.334 -27.999 -32.001s-11 -27 -11 -43c0 -21.333 7.33301 -39.166 22 -53.499s32.834 -27.333 54.501 -39s45.167 -23 70.5 -34s48.833 -23.833 70.5 -38.5s39.834 -32 54.501 -52s22 -44.667 22 -74c0 -30.667 -8.5 -56.834 -25.5 -78.501
s-38.167 -39.5 -63.5 -53.5c22 -13.333 40 -30.5 54 -51.5s21 -44.833 21 -71.5s-5.16699 -50.334 -15.5 -71.001s-24.166 -38.167 -41.499 -52.5s-37.166 -25.166 -59.499 -32.499s-45.5 -11 -69.5 -11c-20.667 0 -40.834 2.33301 -60.501 7s-37.834 12 -54.501 22
s-31.667 22.5 -45 37.5s-24 32.833 -32 53.5l53 25c11.333 -30 29.666 -52.167 54.999 -66.5s53 -21.5 83 -21.5zM372.998 273.002c0 12.667 -2.66699 24 -8 34s-12 19.167 -20 27.5s-16.833 15.5 -26.5 21.5l-26.5 16l-76 43c-11.333 -4 -23 -8.83301 -35 -14.5
s-23 -12.5 -33 -20.5s-18.167 -17.333 -24.5 -28s-9.5 -23 -9.5 -37c0 -26.667 6.83301 -46.5 20.5 -59.5s30.167 -24.5 49.5 -34.5l106 -51c8.66699 4.66699 17.834 10.667 27.501 18s18.667 15.5 27 24.5s15.166 18.5 20.499 28.5s8 20.667 8 32z" />
    <glyph glyph-name="dieresis" unicode="&#xa8;" horiz-adv-x="281" 
d="M191 813c0 13.333 4.66699 24.666 14 33.999s20.666 14 33.999 14s24.666 -4.66699 33.999 -14s14 -20.666 14 -33.999s-4.66699 -24.666 -14 -33.999s-20.666 -14 -33.999 -14s-24.666 4.66699 -33.999 14s-14 20.666 -14 33.999zM11 813
c0 13.333 4.66699 24.666 14 33.999s20.666 14 33.999 14s24.666 -4.66699 33.999 -14s14 -20.666 14 -33.999s-4.66699 -24.666 -14 -33.999s-20.666 -14 -33.999 -14s-24.666 4.66699 -33.999 14s-14 20.666 -14 33.999z" />
    <glyph glyph-name="copyright" unicode="&#xa9;" horiz-adv-x="836" 
d="M46 354c0 51.333 9.83301 99.5 29.5 144.5s46.334 84.333 80.001 118s73 60.334 118 80.001s93.167 29.5 144.5 29.5s99.5 -9.83301 144.5 -29.5s84.333 -46.334 118 -80.001s60.334 -73 80.001 -118s29.5 -93.167 29.5 -144.5s-9.83301 -99.5 -29.5 -144.5
s-46.334 -84.333 -80.001 -118s-73 -60.334 -118 -80.001s-93.167 -29.5 -144.5 -29.5s-99.5 9.83301 -144.5 29.5s-84.333 46.334 -118 80.001s-60.334 73 -80.001 118s-29.5 93.167 -29.5 144.5zM105 354c0 -43.333 8.16699 -84 24.5 -122s38.666 -71.167 66.999 -99.5
s61.5 -50.666 99.5 -66.999s78.667 -24.5 122 -24.5s84 8.16699 122 24.5s71.167 38.666 99.5 66.999s50.666 61.5 66.999 99.5s24.5 78.667 24.5 122s-8.16699 84 -24.5 122s-38.666 71.167 -66.999 99.5s-61.5 50.666 -99.5 66.999s-78.667 24.5 -122 24.5
s-84 -8.16699 -122 -24.5s-71.167 -38.666 -99.5 -66.999s-50.666 -61.5 -66.999 -99.5s-24.5 -78.667 -24.5 -122zM418 542c-17.333 0 -34.499 -2.16602 -51.499 -6.49902s-32 -11 -45 -20s-23.5 -20.5 -31.5 -34.5s-12 -30.333 -12 -49v-2v-151v-2c0 -18.667 4 -35 12 -49
s18.5 -25.5 31.5 -34.5s28 -15.667 45 -20s34.167 -6.5 51.5 -6.5c30 0 58.167 6.5 84.5 19.5s43.5 33.167 51.5 60.5l51 -25c-6.66699 -18.667 -16.5 -35 -29.5 -49s-27.833 -25.5 -44.5 -34.5s-34.667 -15.833 -54 -20.5s-39 -7 -59 -7c-24 0 -47.833 3.5 -71.5 10.5
s-44.667 17.5 -63 31.5s-33.166 31.5 -44.499 52.5s-17 45.5 -17 73.5v151c0 28 5.66699 52.5 17 73.5s26.166 38.5 44.499 52.5s39.333 24.5 63 31.5s47.5 10.5 71.5 10.5c36 0 70.167 -7.33301 102.5 -22s57.166 -37 74.499 -67l-47 -30
c-11.333 21.333 -29 37.166 -53 47.499s-49.667 15.5 -77 15.5z" />
    <glyph glyph-name="ordfeminine" unicode="&#xaa;" horiz-adv-x="378" 
d="M262 610c0 18.667 -8.50098 32.501 -25.501 41.501s-35.833 13.5 -56.5 13.5c-15.333 0 -31.166 -2.5 -47.499 -7.5s-29.5 -13.833 -39.5 -26.5l-34 33c16.667 18.667 36.167 32.334 58.5 41.001s44.5 13 66.5 13c16.667 0 33 -2.33301 49 -7s30.167 -11.5 42.5 -20.5
s22.333 -20.333 30 -34s11.5 -29.834 11.5 -48.501v-230c-24.667 -8 -49 -13.667 -73 -17c-20.667 -2.66699 -41 -4 -61 -4h-12c-35.333 0.666992 -65 11.667 -89 33s-36 51 -36 89c0 20.667 4 38 12 52s18.5 25.167 31.5 33.5s27.833 14.166 44.5 17.499s34 5 52 5
c26.667 0 52 -4.66699 76 -14v37zM183.999 541.001c-10.667 0 -20.998 -0.830078 -30.998 -2.49707s-18.833 -4.83398 -26.5 -9.50098s-13.834 -11 -18.501 -19s-7 -18.333 -7 -31c0 -22.667 7 -40.334 21 -53.001s31 -19.334 51 -20.001c14.667 0 29.5 0.5 44.5 1.5
s29.833 3.16699 44.5 6.5v114c-10.667 3.33301 -22.834 6.33301 -36.501 9s-27.5 4 -41.5 4z" />
    <glyph glyph-name="guillemotleft" unicode="&#xab;" horiz-adv-x="414" 
d="M366 469l-119 -174l119 -174l-48 -29l-137 203l137 203zM221 469l-119 -174l119 -174l-48 -29l-137 203l137 203z" />
    <glyph glyph-name="logicalnot" unicode="&#xac;" horiz-adv-x="610" 
d="M64 399h477v-229h-55v174h-422v55z" />
    <glyph glyph-name="uni00AD" unicode="&#xad;" horiz-adv-x="327" 
d="M287 213h-247v58h247v-58z" />
    <glyph glyph-name="registered" unicode="&#xae;" horiz-adv-x="836" 
d="M46 354c0 51.333 9.83301 99.5 29.5 144.5s46.334 84.333 80.001 118s73 60.334 118 80.001s93.167 29.5 144.5 29.5s99.5 -9.83301 144.5 -29.5s84.333 -46.334 118 -80.001s60.334 -73 80.001 -118s29.5 -93.167 29.5 -144.5s-9.83301 -99.5 -29.5 -144.5
s-46.334 -84.333 -80.001 -118s-73 -60.334 -118 -80.001s-93.167 -29.5 -144.5 -29.5s-99.5 9.83301 -144.5 29.5s-84.333 46.334 -118 80.001s-60.334 73 -80.001 118s-29.5 93.167 -29.5 144.5zM103 354c0 -43.333 8.16699 -84.166 24.5 -122.499
s38.833 -71.833 67.5 -100.5s62.167 -51.167 100.5 -67.5s79.166 -24.5 122.499 -24.5s84.166 8.16699 122.499 24.5s71.666 38.833 99.999 67.5s50.833 62.167 67.5 100.5s25 79.166 25 122.499s-8.33301 84.166 -25 122.499s-39.167 71.666 -67.5 99.999
s-61.666 50.833 -99.999 67.5s-79.166 25 -122.499 25s-84.166 -8.33301 -122.499 -25s-71.833 -39.167 -100.5 -67.5s-51.167 -61.666 -67.5 -99.999s-24.5 -79.166 -24.5 -122.499zM283 570h152.999c48.667 0 85.334 -11.167 110.001 -33.5s37 -52.833 37 -91.5
c0 -20 -2.83301 -37.5 -8.5 -52.5s-13.5 -27.833 -23.5 -38.5s-21.5 -19.167 -34.5 -25.5s-26.833 -10.833 -41.5 -13.5l128 -174h-61l-128 174h-78v-174h-53v429zM405.999 363c14.667 0 29.332 0.999023 43.999 2.99902s27.834 5.83301 39.501 11.5
s21.167 13.834 28.5 24.501s11 25 11 43c0 14 -2.83301 25.833 -8.5 35.5s-13 17.5 -22 23.5s-19.333 10.5 -31 13.5s-23.167 4.5 -34.5 4.5h-97v-159h70z" />
    <glyph glyph-name="macron" unicode="&#xaf;" horiz-adv-x="240" 
d="M264 799h-247v58h247v-58z" />
    <glyph glyph-name="degree" unicode="&#xb0;" horiz-adv-x="354" 
d="M177 449c-18.667 0 -36.168 3.5 -52.501 10.5s-30.5 16.667 -42.5 29s-21.5 26.666 -28.5 42.999s-10.5 33.833 -10.5 52.5s3.5 36 10.5 52s16.5 30 28.5 42s26.167 21.5 42.5 28.5s33.833 10.5 52.5 10.5s36.167 -3.5 52.5 -10.5s30.5 -16.5 42.5 -28.5
s21.5 -26 28.5 -42s10.5 -33.333 10.5 -52s-3.5 -36.167 -10.5 -52.5s-16.667 -30.666 -29 -42.999s-26.666 -22 -42.999 -29s-33.5 -10.5 -51.5 -10.5zM176.999 499c23.333 0 43.166 8.16699 59.499 24.5s24.5 36.166 24.5 59.499s-8.16699 43.166 -24.5 59.499
s-36.166 24.5 -59.499 24.5s-43.166 -8.16699 -59.499 -24.5s-24.5 -36.166 -24.5 -59.499s8.16699 -43.166 24.5 -59.499s36.166 -24.5 59.499 -24.5z" />
    <glyph glyph-name="plusminus" unicode="&#xb1;" horiz-adv-x="564" 
d="M251 615h57v-179h193v-57h-193v-180h-57v180h-188v57h188v179zM497 95h-430v55h430v-55z" />
    <glyph glyph-name="twosuperior" unicode="&#xb2;" horiz-adv-x="412" 
d="M351 284l-283.001 0.000976562l-15 37l208 197c10 9.33301 19 20.5 27 33.5s12 26.5 12 40.5c0 12 -2.83301 22.667 -8.5 32s-13.167 17.166 -22.5 23.499s-19.833 11 -31.5 14s-23.5 4.5 -35.5 4.5c-22 0 -41.833 -4.16699 -59.5 -12.5s-31.167 -21.833 -40.5 -40.5
l-47 20c6 15.333 14.333 28.333 25 39s22.5 19.167 35.5 25.5s26.667 11 41 14s28.833 4.5 43.5 4.5c46 0 82.667 -11.333 110 -34s41 -52 41 -88c0 -21.333 -5.16699 -41.833 -15.5 -61.5s-23.166 -36.5 -38.499 -50.5l-154 -147h208v-51z" />
    <glyph glyph-name="threesuperior" unicode="&#xb3;" horiz-adv-x="393" 
d="M194 287c-9.33301 0 -20.835 1.16602 -34.502 3.49902s-27.5 6.5 -41.5 12.5s-27.333 14.167 -40 24.5s-22.667 23.5 -30 39.5l-4 8l45 22l4 -8c8.66699 -17.333 22.334 -30.166 41.001 -38.499s39 -13.166 61 -14.499c29.333 0 53.666 6.66699 72.999 20s29 33 29 59
c0 28.667 -7.66699 49 -23 61c-14 11.333 -33.667 17 -59 17h-8h-32v40h32c22 0 39.667 6.5 53 19.5s20 28.5 20 46.5c0 20.667 -8.16699 37.167 -24.5 49.5s-36.5 18.5 -60.5 18.5c-17.333 0 -34.333 -3.66699 -51 -11s-29 -18.333 -37 -33l-4 -8l-42 23
c6.66699 17.333 16.334 31.166 29.001 41.499s26 18 40 23s27 8.16699 39 9.5s21 2 27 2c40 0 72 -10.5 96 -31.5s36 -48.833 36 -83.5c0 -17.333 -3.83301 -33.333 -11.5 -48s-19.167 -26 -34.5 -34c22.667 -8.66699 39.334 -22 50.001 -40s16 -38.667 16 -62
c-1.33301 -40.667 -16.333 -72.167 -45 -94.5s-65 -33.5 -109 -33.5z" />
    <glyph glyph-name="acute" unicode="&#xb4;" horiz-adv-x="619" 
d="M346 756h-58l69 113h80z" />
    <glyph glyph-name="mu" unicode="&#xb5;" horiz-adv-x="526" 
d="M123 -228l-58.999 -0.00292969v740h60v-322c0 -18.667 1.66699 -36.834 5 -54.501s9.16602 -33.5 17.499 -47.5s20 -25.167 35 -33.5s34.5 -12.5 58.5 -12.5c22 0 42.833 3.83301 62.5 11.5s36.667 19.334 51 35.001s25.666 35.334 33.999 59.001s12.5 51.5 12.5 83.5
v281h60l3 -512h-58c-0.666992 17.333 -1.16699 32.5 -1.5 45.5s-1.16602 21.833 -2.49902 26.5h-3c-12 -25.333 -31.833 -45.666 -59.5 -60.999s-60.5 -23 -98.5 -23c-27.333 0 -50.333 4.83301 -69 14.5s-34.667 23.834 -48 42.501v-273z" />
    <glyph glyph-name="paragraph" unicode="&#xb6;" horiz-adv-x="567" 
d="M254 266c-50.667 0 -93 10.8311 -127 32.498s-59.667 48.834 -77 81.501c-16 32 -24 66.333 -24 103c0 39.333 9.33301 76.333 28 111c18 32.667 45 59.834 81 81.501s81 32.5 135 32.5h227v-834h-58v786h-125v-786h-60v392z" />
    <glyph glyph-name="periodcentered" unicode="&#xb7;" horiz-adv-x="220" 
d="M62 318c0 13.333 4.66699 24.666 14 33.999s20.666 14 33.999 14s24.666 -4.66699 33.999 -14s14 -20.666 14 -33.999s-4.66699 -24.666 -14 -33.999s-20.666 -14 -33.999 -14s-24.666 4.66699 -33.999 14s-14 20.666 -14 33.999z" />
    <glyph glyph-name="cedilla" unicode="&#xb8;" horiz-adv-x="240" 
d="M137 -69c23.333 0 42.001 -5.66797 56.001 -17.001c16.667 -13.333 25 -33 25 -59v-6c-0.666992 -16 -4.5 -30 -11.5 -42s-15.833 -21.667 -26.5 -29s-22.5 -12.833 -35.5 -16.5s-25.833 -5.5 -38.5 -5.5c-30 0 -59.333 6.66699 -88 20l13 37
c12 -6 23.667 -10.333 35 -13s24 -4 38 -4c16.667 0 31.667 4.33301 45 13c14.667 9.33301 22 24 22 44c0 12.667 -3 22.334 -9 29.001c-7.33301 8 -16 13 -26 15c-6 1.33301 -12 2 -18 2c-4.66699 0 -9.33398 -0.333008 -14.001 -1c-11.333 -2 -20.333 -4.66699 -27 -8
l-14 14l58 109h37l-42 -81l1 -2c7.33301 0.666992 14 1 20 1z" />
    <glyph glyph-name="onesuperior" unicode="&#xb9;" horiz-adv-x="241" 
d="M174 713v-424h-50v346l-61 -68l-38 30l101 116h48z" />
    <glyph glyph-name="ordmasculine" unicode="&#xba;" horiz-adv-x="408" 
d="M204 356c-18.667 0 -37.167 2.5 -55.5 7.5s-34.666 12.833 -48.999 23.5s-26 23.667 -35 39s-13.5 33.666 -13.5 54.999v112c0 20.667 4.5 38.834 13.5 54.501s20.667 28.834 35 39.501s30.666 18.5 48.999 23.5s36.833 7.5 55.5 7.5s37.167 -2.5 55.5 -7.5
s34.666 -12.833 48.999 -23.5s26 -23.834 35 -39.501s13.5 -33.834 13.5 -54.501v-112c0 -21.333 -4.5 -39.666 -13.5 -54.999s-20.667 -28.333 -35 -39s-30.666 -18.5 -48.999 -23.5s-36.833 -7.5 -55.5 -7.5zM102 481c0 -14 3.16699 -25.833 9.5 -35.5
s14.333 -17.334 24 -23.001s20.5 -9.83398 32.5 -12.501s24 -4 36 -4s24 1.33301 36 4s22.833 6.83398 32.5 12.501s17.667 13.334 24 23.001s9.5 21.5 9.5 35.5v112c0 14 -3.16699 25.833 -9.5 35.5s-14.333 17.334 -24 23.001s-20.5 9.83398 -32.5 12.501s-24 4 -36 4
s-24 -1.33301 -36 -4s-22.833 -6.83398 -32.5 -12.501s-17.667 -13.334 -24 -23.001s-9.5 -21.5 -9.5 -35.5v-112z" />
    <glyph glyph-name="guillemotright" unicode="&#xbb;" horiz-adv-x="414" 
d="M193 121l119 174l-119 174l48 29l137 -203l-137 -203zM48 121l119 174l-119 174l48 29l137 -203l-137 -203z" />
    <glyph glyph-name="onequarter" unicode="&#xbc;" horiz-adv-x="720" 
d="M650 426v-276h34v-47h-34v-103h-51v103h-193l-33 48l224 275h53zM603 362l-169 -212h165zM174 713v-424h-50v346l-61 -68l-38 30l101 116h48zM138 -34l-45 28l456 748l46 -28z" />
    <glyph glyph-name="onehalf" unicode="&#xbd;" horiz-adv-x="767" 
d="M726 49l-0.000976562 -49h-283l-15 37l208 194c10 9.33301 19 20.5 27 33.5s12 26.5 12 40.5c0 19.333 -8.5 36.5 -25.5 51.5s-41.167 22.5 -72.5 22.5c-21.333 0 -40.833 -3.83301 -58.5 -11.5s-31.5 -21.5 -41.5 -41.5l-47 20c6 15.333 14.333 28.333 25 39
s22.5 19.167 35.5 25.5s26.667 11 41 14s28.833 4.5 43.5 4.5c46 0 82.667 -11.333 110 -34s41 -52 41 -88c0 -21.333 -5.16699 -41.833 -15.5 -61.5s-23.166 -36.5 -38.499 -50.5l-154 -146h208zM173.999 713v-424h-50v346l-61 -68l-38 30l101 116h48zM117.999 -34l-45 28
l456 748l46 -28z" />
    <glyph glyph-name="threequarters" unicode="&#xbe;" horiz-adv-x="775" 
d="M336 415c0 -21.333 -4.49707 -40.002 -13.4971 -56.002s-20.833 -29.333 -35.5 -40s-31.334 -18.667 -50.001 -24s-37.334 -8 -56.001 -8c-7.33301 0 -17.333 1 -30 3s-26.334 5.83301 -41.001 11.5s-28.667 13.667 -42 24s-24 24.166 -32 41.499l-4 8l45 22l4 -8
c4.66699 -10 11.334 -18.5 20.001 -25.5s18 -12.5 28 -16.5s19.833 -6.83301 29.5 -8.5s18.167 -2.5 25.5 -2.5c11.333 0 23 1.5 35 4.5s22.833 7.83301 32.5 14.5s17.667 15 24 25s9.5 21.667 9.5 35c0 28.667 -7.66699 48.834 -23 60.501s-37.666 17.5 -66.999 17.5h-32
v40h32c18 0 34.667 6 50 18s23 28 23 48c0 20.667 -8.16699 37.167 -24.5 49.5s-36.5 18.5 -60.5 18.5c-17.333 0 -34.333 -3.66699 -51 -11s-29 -18.333 -37 -33l-4 -8l-42 23c5.33301 14 13 25.833 23 35.5s20.833 17.334 32.5 23.001s23.667 9.83398 36 12.501
s24.166 4.33398 35.499 5.00098h7c17.333 0 33.666 -2 48.999 -6c16.667 -4.66699 31.167 -12 43.5 -22s22.166 -22.333 29.499 -37s11 -31.334 11 -50.001c0 -17.333 -3.83301 -33.333 -11.5 -48s-19.167 -26 -34.5 -34c22.667 -8.66699 39.334 -22 50.001 -40
s16 -38.667 16 -62zM705.003 423.998v-275h34v-47h-34v-102h-51v102h-193l-33 48l224 274h53zM489.003 148.998h165l4 211zM226.003 -34.002l-45 28l456 748l46 -28z" />
    <glyph glyph-name="questiondown" unicode="&#xbf;" horiz-adv-x="474" 
d="M256 -200c-28.667 0 -56.502 4.16504 -83.502 12.498s-51 21 -72 38s-37.833 38.333 -50.5 64s-19 55.5 -19 89.5s5.83301 63.333 17.5 88s27 45.667 46 63s40.667 31.166 65 41.499s49.833 17.833 76.5 22.5l8 163h49l6 -210c-27.333 0 -53.666 -3.83301 -78.999 -11.5
s-47.833 -18.667 -67.5 -33s-35.5 -32.166 -47.5 -53.499c-11.333 -19.333 -17 -41.666 -17 -66.999c0 -26 5.33301 -49 16 -69c9.33301 -18 22 -33 38 -45s34 -21 54 -27s40.667 -9 62 -9c28.667 0 56.334 5.5 83.001 16.5s48.667 27.167 66 48.5h1l44 -35
c-23.333 -29.333 -52.5 -51.166 -87.5 -65.499s-71.167 -21.5 -108.5 -21.5zM220.998 480.998c0 13.333 4.66699 24.666 14 33.999s20.666 14 33.999 14s24.666 -4.66699 33.999 -14s14 -20.666 14 -33.999s-4.66699 -24.666 -14 -33.999s-20.666 -14 -33.999 -14
s-24.666 4.66699 -33.999 14s-14 20.666 -14 33.999z" />
    <glyph glyph-name="Agrave" unicode="&#xc0;" horiz-adv-x="609" 
d="M195 869h80l70 -113h-58zM603 0h-62l-85 236h-304l-83 -236h-62l254 708h86zM173 295h262l-131 369z" />
    <glyph glyph-name="Aacute" unicode="&#xc1;" horiz-adv-x="609" 
d="M316 756h-58l69 113h80zM603 0h-62l-85 236h-304l-83 -236h-62l254 708h86zM173 295h262l-131 369z" />
    <glyph glyph-name="Acircumflex" unicode="&#xc2;" horiz-adv-x="609" 
d="M440 756h-63l-75 78l-70 -78h-64l103 113h66zM603 0h-62l-85 236h-304l-83 -236h-62l254 708h86zM173 295h262l-131 369z" />
    <glyph glyph-name="Atilde" unicode="&#xc3;" horiz-adv-x="609" 
d="M253 869c10.667 0 20.668 -2.49902 30.001 -7.49902s18.333 -10.5 27 -16.5s17.167 -11.5 25.5 -16.5s16.5 -7.5 24.5 -7.5c19.333 0 32 12.333 38 37l39 -15c-6 -22.667 -15.667 -40.5 -29 -53.5s-29.333 -19.5 -48 -19.5c-11.333 0 -21.833 2.5 -31.5 7.5
s-18.667 10.5 -27 16.5s-16.833 11.5 -25.5 16.5s-17.667 7.5 -27 7.5c-16.667 0 -29.334 -12.667 -38.001 -38l-40 14c4 23.333 13.167 41.666 27.5 54.999s32.5 20 54.5 20zM603.001 0.000976562h-62l-85 236h-304l-83 -236h-62l254 708h86zM173.001 295.001h262l-131 369
z" />
    <glyph glyph-name="Adieresis" unicode="&#xc4;" horiz-adv-x="609" 
d="M353 813c0 13.333 4.66699 24.666 14 33.999s20.666 14 33.999 14s24.666 -4.66699 33.999 -14s14 -20.666 14 -33.999s-4.66699 -24.666 -14 -33.999s-20.666 -14 -33.999 -14s-24.666 4.66699 -33.999 14s-14 20.666 -14 33.999zM173 813
c0 13.333 4.66699 24.666 14 33.999s20.666 14 33.999 14s24.666 -4.66699 33.999 -14s14 -20.666 14 -33.999s-4.66699 -24.666 -14 -33.999s-20.666 -14 -33.999 -14s-24.666 4.66699 -33.999 14s-14 20.666 -14 33.999zM603 0h-62l-85 236h-304l-83 -236h-62l254 708h86z
M173 295h262l-131 369z" />
    <glyph glyph-name="Aring" unicode="&#xc5;" horiz-adv-x="609" 
d="M207 792c0 12.667 2.5 24.834 7.5 36.501s12 21.834 21 30.501s19.333 15.5 31 20.5s24.167 7.5 37.5 7.5s25.833 -2.5 37.5 -7.5s22 -11.833 31 -20.5s16 -18.834 21 -30.501s7.5 -23.834 7.5 -36.501c0 -18.667 -5 -35.5 -15 -50.5s-23 -26.5 -39 -34.5l256 -707h-62
l-85 236h-304l-83 -236h-62l254 707c-16 8 -29 19.5 -39 34.5s-15 31.833 -15 50.5zM304 843c-14 0 -25.833 -5 -35.5 -15s-14.5 -22 -14.5 -36s4.83301 -26 14.5 -36s21.5 -15 35.5 -15c13.333 0 24.666 5 33.999 15s14 22 14 36s-4.66699 26 -14 36s-20.666 15 -33.999 15
zM304 664l-131 -369h262z" />
    <glyph glyph-name="AE" unicode="&#xc6;" horiz-adv-x="802" 
d="M757 708v-59h-302v-266h271v-59h-271v-265h302v-59h-361v236h-215l-117 -236h-69l361 708h401zM396 295v366l-185 -366h185z" />
    <glyph glyph-name="Ccedilla" unicode="&#xc7;" horiz-adv-x="593" 
d="M322 49c20 0 39.667 1.99805 59 5.99805s37.5 10 54.5 18s32.167 17.833 45.5 29.5s24 25.5 32 41.5l53 -26c-10 -20.667 -23.167 -38.667 -39.5 -54s-34.666 -28.333 -54.999 -39s-42.333 -19 -66 -25s-47.5 -9.33301 -71.5 -10l-30 -58l1 -2
c7.33301 0.666992 14 1 20 1c23.333 0 42 -5.66699 56 -17c16.667 -13.333 25 -33 25 -59v-6c-0.666992 -16 -4.5 -30 -11.5 -42s-15.833 -21.667 -26.5 -29s-22.5 -12.833 -35.5 -16.5s-25.833 -5.5 -38.5 -5.5c-30 0 -59.333 6.66699 -88 20l13 37
c12 -6 23.667 -10.333 35 -13s24 -4 38 -4c16.667 0 31.667 4.33301 45 13c14.667 9.33301 22 24 22 44c0 12.667 -3 22.334 -9 29.001c-7.33301 8 -16 13 -26 15c-6 1.33301 -12 2 -18 2c-4.66699 0 -9.33398 -0.333008 -14.001 -1c-11.333 -2 -20.333 -4.66699 -27 -8
l-14 14l46 87c-30.667 2 -60.334 8 -89.001 18s-54 24 -76 42s-39.667 39.833 -53 65.5s-20 55.167 -20 88.5v298c0 35.333 7.66699 66.5 23 93.5s35.5 49.5 60.5 67.5s53.333 31.5 85 40.5s64.167 13.5 97.5 13.5c24.667 0 49.334 -2.66699 74.001 -8
s47.667 -13.166 69 -23.499s40.5 -23.5 57.5 -39.5s30.5 -34.667 40.5 -56l-53 -26v-1c-8 16 -18.667 29.833 -32 41.5s-28.5 21.5 -45.5 29.5s-35.167 14 -54.5 18s-39 6 -59 6c-25.333 0 -50.333 -3.33301 -75 -10s-46.5 -16.5 -65.5 -29.5s-34.333 -29.167 -46 -48.5
s-17.5 -42 -17.5 -68v-298c0 -26 5.83301 -48.833 17.5 -68.5s27 -36 46 -49s40.833 -22.667 65.5 -29s49.667 -9.5 75 -9.5z" />
    <glyph glyph-name="Egrave" unicode="&#xc8;" horiz-adv-x="569" 
d="M205 869h80l70 -113h-58zM138 384h355v-60h-355v-265h385v-59h-444v708h444v-59h-385v-265z" />
    <glyph glyph-name="Eacute" unicode="&#xc9;" horiz-adv-x="569" 
d="M326 756h-58l69 113h80zM138 384h355v-60h-355v-265h385v-59h-444v708h444v-59h-385v-265z" />
    <glyph glyph-name="Ecircumflex" unicode="&#xca;" horiz-adv-x="569" 
d="M450 756h-63l-75 78l-70 -78h-64l103 113h66zM138 384h355v-60h-355v-265h385v-59h-444v708h444v-59h-385v-265z" />
    <glyph glyph-name="Edieresis" unicode="&#xcb;" horiz-adv-x="569" 
d="M363 813c0 13.333 4.66699 24.666 14 33.999s20.666 14 33.999 14s24.666 -4.66699 33.999 -14s14 -20.666 14 -33.999s-4.66699 -24.666 -14 -33.999s-20.666 -14 -33.999 -14s-24.666 4.66699 -33.999 14s-14 20.666 -14 33.999zM183 813
c0 13.333 4.66699 24.666 14 33.999s20.666 14 33.999 14s24.666 -4.66699 33.999 -14s14 -20.666 14 -33.999s-4.66699 -24.666 -14 -33.999s-20.666 -14 -33.999 -14s-24.666 4.66699 -33.999 14s-14 20.666 -14 33.999zM138 384h355v-60h-355v-265h385v-59h-444v708h444
v-59h-385v-265z" />
    <glyph glyph-name="Igrave" unicode="&#xcc;" horiz-adv-x="217" 
d="M0 869h80l70 -113h-58zM138 0h-59v708h59v-708z" />
    <glyph glyph-name="Iacute" unicode="&#xcd;" horiz-adv-x="217" 
d="M121 756h-58l69 113h80zM138 0h-59v708h59v-708z" />
    <glyph glyph-name="Icircumflex" unicode="&#xce;" horiz-adv-x="217" 
d="M215 773h-63l-41 81l-44 -81h-64l73 113h66zM138 0h-59v708h59v-708z" />
    <glyph glyph-name="Idieresis" unicode="&#xcf;" horiz-adv-x="217" 
d="M138 829c0 13.333 4.66699 24.666 14 33.999s20.666 14 33.999 14s24.666 -4.66699 33.999 -14s14 -20.666 14 -33.999s-4.66699 -24.666 -14 -33.999s-20.666 -14 -33.999 -14s-24.666 4.66699 -33.999 14s-14 20.666 -14 33.999zM-2 829
c0 13.333 4.66699 24.666 14 33.999s20.666 14 33.999 14s24.666 -4.66699 33.999 -14s14 -20.666 14 -33.999s-4.66699 -24.666 -14 -33.999s-20.666 -14 -33.999 -14s-24.666 4.66699 -33.999 14s-14 20.666 -14 33.999zM138 0h-59v708h59v-708z" />
    <glyph glyph-name="Eth" unicode="&#xd0;" horiz-adv-x="644" 
d="M83 708h236c33.333 0 65.833 -4 97.5 -12s60 -20.333 85 -37s45 -38 60 -64s22.5 -57.333 22.5 -94v-295c0 -36 -7.5 -67 -22.5 -93s-35 -47.333 -60 -64s-53.333 -29 -85 -37s-64.167 -12 -97.5 -12h-236v326h-63v50h63v332zM319 59c26 0 51.333 2.66602 76 7.99902
s46.667 14 66 26s34.833 27.333 46.5 46s17.5 41 17.5 67v295c0 26.667 -5.83301 49.334 -17.5 68.001s-27.167 34 -46.5 46s-41.333 20.667 -66 26s-50 8 -76 8h-177v-273h125v-50h-125v-267h177z" />
    <glyph glyph-name="Ntilde" unicode="&#xd1;" horiz-adv-x="689" 
d="M314 869c10.667 0 20.668 -2.49902 30.001 -7.49902s18.333 -10.5 27 -16.5s17.167 -11.5 25.5 -16.5s16.5 -7.5 24.5 -7.5c19.333 0 32 12.333 38 37l39 -15c-6 -22.667 -15.667 -40.5 -29 -53.5s-29.333 -19.5 -48 -19.5c-11.333 0 -21.833 2.5 -31.5 7.5
s-18.667 10.5 -27 16.5s-16.833 11.5 -25.5 16.5s-17.667 7.5 -27 7.5c-16.667 0 -29.334 -12.667 -38.001 -38l-40 14c4 23.333 13.167 41.666 27.5 54.999s32.5 20 54.5 20zM551.001 708.001h59v-708h-88l-384 617v-617h-59v708h72l400 -643v643z" />
    <glyph glyph-name="Ograve" unicode="&#xd2;" horiz-adv-x="677" 
d="M230 869h80l70 -113h-58zM58 500c0 36 8 67.667 24 95s37.167 50.166 63.5 68.499s56.333 32 90 41s68.167 13.5 103.5 13.5c34.667 0 68.834 -4.5 102.501 -13.5s63.667 -22.667 90 -41s47.5 -41.166 63.5 -68.499s24 -59 24 -95v-292c0 -36 -8 -67.667 -24 -95
s-37.167 -50.166 -63.5 -68.499s-56.333 -32 -90 -41s-67.834 -13.5 -102.501 -13.5c-35.333 0 -69.833 4.5 -103.5 13.5s-63.667 22.667 -90 41s-47.5 41.166 -63.5 68.499s-24 59 -24 95v292zM117 208c0 -26.667 6.33105 -49.834 18.998 -69.501s29.5 -36.167 50.5 -49.5
s44.667 -23.333 71 -30s53.5 -10 81.5 -10c27.333 0 54.333 3.33301 81 10s50.334 16.667 71.001 30s37.334 29.833 50.001 49.5s19 42.834 19 69.501v292c0 28 -6.33301 52 -19 72s-29.5 36.5 -50.5 49.5s-44.833 22.5 -71.5 28.5s-54 9 -82 9
c-27.333 0 -54.166 -3.16699 -80.499 -9.5s-49.833 -16 -70.5 -29s-37.334 -29.5 -50.001 -49.5s-19 -43.667 -19 -71v-292z" />
    <glyph glyph-name="Oacute" unicode="&#xd3;" horiz-adv-x="677" 
d="M351 756h-58l69 113h80zM58 500c0 36 8 67.667 24 95s37.167 50.166 63.5 68.499s56.333 32 90 41s68.167 13.5 103.5 13.5c34.667 0 68.834 -4.5 102.501 -13.5s63.667 -22.667 90 -41s47.5 -41.166 63.5 -68.499s24 -59 24 -95v-292c0 -36 -8 -67.667 -24 -95
s-37.167 -50.166 -63.5 -68.499s-56.333 -32 -90 -41s-67.834 -13.5 -102.501 -13.5c-35.333 0 -69.833 4.5 -103.5 13.5s-63.667 22.667 -90 41s-47.5 41.166 -63.5 68.499s-24 59 -24 95v292zM117 208c0 -26.667 6.33105 -49.834 18.998 -69.501s29.5 -36.167 50.5 -49.5
s44.667 -23.333 71 -30s53.5 -10 81.5 -10c27.333 0 54.333 3.33301 81 10s50.334 16.667 71.001 30s37.334 29.833 50.001 49.5s19 42.834 19 69.501v292c0 28 -6.33301 52 -19 72s-29.5 36.5 -50.5 49.5s-44.833 22.5 -71.5 28.5s-54 9 -82 9
c-27.333 0 -54.166 -3.16699 -80.499 -9.5s-49.833 -16 -70.5 -29s-37.334 -29.5 -50.001 -49.5s-19 -43.667 -19 -71v-292z" />
    <glyph glyph-name="Ocircumflex" unicode="&#xd4;" horiz-adv-x="677" 
d="M475 756h-63l-75 78l-70 -78h-64l103 113h66zM58 500c0 36 8 67.667 24 95s37.167 50.166 63.5 68.499s56.333 32 90 41s68.167 13.5 103.5 13.5c34.667 0 68.834 -4.5 102.501 -13.5s63.667 -22.667 90 -41s47.5 -41.166 63.5 -68.499s24 -59 24 -95v-292
c0 -36 -8 -67.667 -24 -95s-37.167 -50.166 -63.5 -68.499s-56.333 -32 -90 -41s-67.834 -13.5 -102.501 -13.5c-35.333 0 -69.833 4.5 -103.5 13.5s-63.667 22.667 -90 41s-47.5 41.166 -63.5 68.499s-24 59 -24 95v292zM117 208c0 -26.667 6.33105 -49.834 18.998 -69.501
s29.5 -36.167 50.5 -49.5s44.667 -23.333 71 -30s53.5 -10 81.5 -10c27.333 0 54.333 3.33301 81 10s50.334 16.667 71.001 30s37.334 29.833 50.001 49.5s19 42.834 19 69.501v292c0 28 -6.33301 52 -19 72s-29.5 36.5 -50.5 49.5s-44.833 22.5 -71.5 28.5s-54 9 -82 9
c-27.333 0 -54.166 -3.16699 -80.499 -9.5s-49.833 -16 -70.5 -29s-37.334 -29.5 -50.001 -49.5s-19 -43.667 -19 -71v-292z" />
    <glyph glyph-name="Otilde" unicode="&#xd5;" horiz-adv-x="677" 
d="M288 869c10.667 0 20.668 -2.49902 30.001 -7.49902s18.333 -10.5 27 -16.5s17.167 -11.5 25.5 -16.5s16.5 -7.5 24.5 -7.5c19.333 0 32 12.333 38 37l39 -15c-6 -22.667 -15.667 -40.5 -29 -53.5s-29.333 -19.5 -48 -19.5c-11.333 0 -21.833 2.5 -31.5 7.5
s-18.667 10.5 -27 16.5s-16.833 11.5 -25.5 16.5s-17.667 7.5 -27 7.5c-16.667 0 -29.334 -12.667 -38.001 -38l-40 14c4 23.333 13.167 41.666 27.5 54.999s32.5 20 54.5 20zM58.001 500.001c0 36 8 67.667 24 95s37.167 50.166 63.5 68.499s56.333 32 90 41
s68.167 13.5 103.5 13.5c34.667 0 68.834 -4.5 102.501 -13.5s63.667 -22.667 90 -41s47.5 -41.166 63.5 -68.499s24 -59 24 -95v-292c0 -36 -8 -67.667 -24 -95s-37.167 -50.166 -63.5 -68.499s-56.333 -32 -90 -41s-67.834 -13.5 -102.501 -13.5
c-35.333 0 -69.833 4.5 -103.5 13.5s-63.667 22.667 -90 41s-47.5 41.166 -63.5 68.499s-24 59 -24 95v292zM117.001 208.001c0 -26.667 6.33105 -49.834 18.998 -69.501s29.5 -36.167 50.5 -49.5s44.667 -23.333 71 -30s53.5 -10 81.5 -10c27.333 0 54.333 3.33301 81 10
s50.334 16.667 71.001 30s37.334 29.833 50.001 49.5s19 42.834 19 69.501v292c0 28 -6.33301 52 -19 72s-29.5 36.5 -50.5 49.5s-44.833 22.5 -71.5 28.5s-54 9 -82 9c-27.333 0 -54.166 -3.16699 -80.499 -9.5s-49.833 -16 -70.5 -29s-37.334 -29.5 -50.001 -49.5
s-19 -43.667 -19 -71v-292z" />
    <glyph glyph-name="Odieresis" unicode="&#xd6;" horiz-adv-x="677" 
d="M388 813c0 13.333 4.66699 24.666 14 33.999s20.666 14 33.999 14s24.666 -4.66699 33.999 -14s14 -20.666 14 -33.999s-4.66699 -24.666 -14 -33.999s-20.666 -14 -33.999 -14s-24.666 4.66699 -33.999 14s-14 20.666 -14 33.999zM208 813
c0 13.333 4.66699 24.666 14 33.999s20.666 14 33.999 14s24.666 -4.66699 33.999 -14s14 -20.666 14 -33.999s-4.66699 -24.666 -14 -33.999s-20.666 -14 -33.999 -14s-24.666 4.66699 -33.999 14s-14 20.666 -14 33.999zM58 500c0 36 8 67.667 24 95
s37.167 50.166 63.5 68.499s56.333 32 90 41s68.167 13.5 103.5 13.5c34.667 0 68.834 -4.5 102.501 -13.5s63.667 -22.667 90 -41s47.5 -41.166 63.5 -68.499s24 -59 24 -95v-292c0 -36 -8 -67.667 -24 -95s-37.167 -50.166 -63.5 -68.499s-56.333 -32 -90 -41
s-67.834 -13.5 -102.501 -13.5c-35.333 0 -69.833 4.5 -103.5 13.5s-63.667 22.667 -90 41s-47.5 41.166 -63.5 68.499s-24 59 -24 95v292zM117 208c0 -26.667 6.33105 -49.834 18.998 -69.501s29.5 -36.167 50.5 -49.5s44.667 -23.333 71 -30s53.5 -10 81.5 -10
c27.333 0 54.333 3.33301 81 10s50.334 16.667 71.001 30s37.334 29.833 50.001 49.5s19 42.834 19 69.501v292c0 28 -6.33301 52 -19 72s-29.5 36.5 -50.5 49.5s-44.833 22.5 -71.5 28.5s-54 9 -82 9c-27.333 0 -54.166 -3.16699 -80.499 -9.5s-49.833 -16 -70.5 -29
s-37.334 -29.5 -50.001 -49.5s-19 -43.667 -19 -71v-292z" />
    <glyph glyph-name="multiply" unicode="&#xd7;" horiz-adv-x="504" 
d="M414 502l39 -40l-159 -159l157 -157l-40 -41l-158 158l-162 -162l-39 41l160 160l-163 164l40 40l164 -165z" />
    <glyph glyph-name="Oslash" unicode="&#xd8;" horiz-adv-x="677" 
d="M619 500l0.000976562 -292c0 -36 -8 -67.667 -24 -95s-37.167 -50.166 -63.5 -68.499s-56.333 -32 -90 -41s-67.834 -13.5 -102.501 -13.5c-44 0 -85.333 6.66699 -124 20l-44 -97l-45 15l45 101c-33.333 17.333 -60.5 41 -81.5 71s-31.5 66 -31.5 108v292
c0 36 8 67.667 24 95s37.167 50.166 63.5 68.499s56.333 32 90 41s68.167 13.5 103.5 13.5c46 0 90 -7.66699 132 -23l40 90l44 -15l-42 -95c31.333 -18 56.833 -41.5 76.5 -70.5s29.5 -63.833 29.5 -104.5zM117.001 208c0 -28.667 7.33105 -53.333 21.998 -74
s33.667 -37.667 57 -51l251 559c-17.333 6 -35.166 10.333 -53.499 13s-37.166 4 -56.499 4c-27.333 0 -54.166 -3.16699 -80.499 -9.5s-49.833 -16 -70.5 -29s-37.334 -29.5 -50.001 -49.5s-19 -43.667 -19 -71v-292zM559.999 500.001
c0 28.667 -6.50195 52.998 -19.502 72.998s-30.167 36.333 -51.5 49l-250 -558c15.333 -5.33301 31.5 -9.16602 48.5 -11.499s34.167 -3.5 51.5 -3.5c27.333 0 54.333 3.33301 81 10s50.334 16.667 71.001 30s37.334 29.833 50.001 49.5s19 42.834 19 69.501v292z" />
    <glyph glyph-name="Ugrave" unicode="&#xd9;" horiz-adv-x="679" 
d="M231 869h80l70 -113h-58zM133 210c0 -26.667 5.83105 -50 17.498 -70s27.334 -36.833 47.001 -50.5s41.834 -23.834 66.501 -30.501s50 -10 76 -10s51.333 3.33301 76 10s46.667 16.834 66 30.501s34.833 30.5 46.5 50.5s17.5 43.333 17.5 70v498h59v-497
c0 -36.667 -7.66699 -68.834 -23 -96.501s-35.333 -50.667 -60 -69s-53 -32.166 -85 -41.499s-64.333 -14 -97 -14c-33.333 0 -65.833 4.66699 -97.5 14s-60 23.166 -85 41.499s-45.167 41.333 -60.5 69s-23 59.834 -23 96.501v497h59v-498z" />
    <glyph glyph-name="Uacute" unicode="&#xda;" horiz-adv-x="679" 
d="M352 756h-58l69 113h80zM133 210c0 -26.667 5.83105 -50 17.498 -70s27.334 -36.833 47.001 -50.5s41.834 -23.834 66.501 -30.501s50 -10 76 -10s51.333 3.33301 76 10s46.667 16.834 66 30.501s34.833 30.5 46.5 50.5s17.5 43.333 17.5 70v498h59v-497
c0 -36.667 -7.66699 -68.834 -23 -96.501s-35.333 -50.667 -60 -69s-53 -32.166 -85 -41.499s-64.333 -14 -97 -14c-33.333 0 -65.833 4.66699 -97.5 14s-60 23.166 -85 41.499s-45.167 41.333 -60.5 69s-23 59.834 -23 96.501v497h59v-498z" />
    <glyph glyph-name="Ucircumflex" unicode="&#xdb;" horiz-adv-x="679" 
d="M476 756h-63l-75 78l-70 -78h-64l103 113h66zM133 210c0 -26.667 5.83105 -50 17.498 -70s27.334 -36.833 47.001 -50.5s41.834 -23.834 66.501 -30.501s50 -10 76 -10s51.333 3.33301 76 10s46.667 16.834 66 30.501s34.833 30.5 46.5 50.5s17.5 43.333 17.5 70v498h59
v-497c0 -36.667 -7.66699 -68.834 -23 -96.501s-35.333 -50.667 -60 -69s-53 -32.166 -85 -41.499s-64.333 -14 -97 -14c-33.333 0 -65.833 4.66699 -97.5 14s-60 23.166 -85 41.499s-45.167 41.333 -60.5 69s-23 59.834 -23 96.501v497h59v-498z" />
    <glyph glyph-name="Udieresis" unicode="&#xdc;" horiz-adv-x="679" 
d="M389 813c0 13.333 4.66699 24.666 14 33.999s20.666 14 33.999 14s24.666 -4.66699 33.999 -14s14 -20.666 14 -33.999s-4.66699 -24.666 -14 -33.999s-20.666 -14 -33.999 -14s-24.666 4.66699 -33.999 14s-14 20.666 -14 33.999zM209 813
c0 13.333 4.66699 24.666 14 33.999s20.666 14 33.999 14s24.666 -4.66699 33.999 -14s14 -20.666 14 -33.999s-4.66699 -24.666 -14 -33.999s-20.666 -14 -33.999 -14s-24.666 4.66699 -33.999 14s-14 20.666 -14 33.999zM133 210c0 -26.667 5.83105 -50 17.498 -70
s27.334 -36.833 47.001 -50.5s41.834 -23.834 66.501 -30.501s50 -10 76 -10s51.333 3.33301 76 10s46.667 16.834 66 30.501s34.833 30.5 46.5 50.5s17.5 43.333 17.5 70v498h59v-497c0 -36.667 -7.66699 -68.834 -23 -96.501s-35.333 -50.667 -60 -69
s-53 -32.166 -85 -41.499s-64.333 -14 -97 -14c-33.333 0 -65.833 4.66699 -97.5 14s-60 23.166 -85 41.499s-45.167 41.333 -60.5 69s-23 59.834 -23 96.501v497h59v-498z" />
    <glyph glyph-name="Yacute" unicode="&#xdd;" horiz-adv-x="559" 
d="M292 756h-58l69 113h80zM309 0h-59v277l-246 431h69l207 -372l206 372h70l-247 -431v-277z" />
    <glyph glyph-name="Thorn" unicode="&#xde;" horiz-adv-x="613" 
d="M79 0l0.000976562 707.999h59v-131h208c52 0 95.333 -11 130 -33s60.667 -49.333 78 -82c18 -32 27 -66.667 27 -104c0 -39.333 -9 -75.666 -27 -108.999c-16.667 -32.667 -42.334 -60 -77.001 -82s-78 -33 -130 -33h-209v-134h-59zM346.001 192.999
c39.333 0 72.168 8.16699 98.501 24.5s45.833 36.5 58.5 60.5s19 50.167 19 78.5s-6.66699 54.5 -20 78.5s-33 44 -59 60c-24.667 15.333 -55.334 23 -92.001 23h-5h-208v-325h208z" />
    <glyph glyph-name="germandbls" unicode="&#xdf;" horiz-adv-x="590" 
d="M292 59c22.667 0 45.0059 2.6709 67.0059 8.00391c24.667 6 46.5 15.333 65.5 28s34.333 28.667 46 48s17.5 42 17.5 68c0 26.667 -4.66699 49.667 -14 69s-22 35.166 -38 47.499s-34.833 21.166 -56.5 26.499s-44.834 8 -69.501 8h-92v56h92
c20 0 38.833 2.83301 56.5 8.5s33.167 14.167 46.5 25.5s23.833 25.5 31.5 42.5s11.5 36.5 11.5 58.5c0 23.333 -4.83301 43.166 -14.5 59.499s-22.334 29.5 -38.001 39.5s-33.334 17.333 -53.001 22s-39.5 7 -59.5 7s-39.833 -2.5 -59.5 -7.5s-37.334 -13 -53.001 -24
s-28.334 -25 -38.001 -42s-14.5 -37.167 -14.5 -60.5v-548h-58v548c0 30.667 6.33301 57.834 19 81.501s29.5 43.5 50.5 59.5s44.833 28.167 71.5 36.5s54 12.5 82 12.5s55.333 -3.83301 82 -11.5s50.5 -19 71.5 -34s38 -34.167 51 -57.5s19.5 -50.333 19.5 -81
c0 -32 -6.33301 -62.5 -19 -91.5s-33.667 -51.833 -63 -68.5c42 -14.667 71.667 -38 89 -70s26 -69.667 26 -113c-0.666992 -36 -8.66699 -67.333 -24 -94s-35.333 -48.834 -60 -66.501s-52.667 -30.834 -84 -39.501c-28.667 -7.33301 -58 -11 -88 -11h-7
c-18.667 0.666992 -37 2.66699 -55 6s-35.667 9.33301 -53 18l1 63c14.667 -7.33301 31.667 -13.5 51 -18.5s37.666 -7.83301 54.999 -8.5h8z" />
    <glyph glyph-name="agrave" unicode="&#xe0;" horiz-adv-x="491" 
d="M137 690h80l70 -113h-58zM373 363c0 18.667 -4.00391 34.8359 -12.0039 48.5029s-18.833 25.167 -32.5 34.5s-29 16.333 -46 21s-34.5 7 -52.5 7c-26 0 -51 -4.33301 -75 -13s-42.667 -21.667 -56 -39l-38 36c21.333 23.333 47.666 40.833 78.999 52.5
s63.333 17.5 96 17.5c24.667 0 48.667 -3.5 72 -10.5s44 -17.333 62 -31s32.333 -30.834 43 -51.501s16 -44.667 16 -72v-340c-64 -22 -130.667 -33 -200 -33h-12c-25.333 0 -49 3.33301 -71 10s-41.167 16.667 -57.5 30s-29.166 29.833 -38.499 49.5s-14 43.167 -14 70.5
c0 29.333 5.83301 54.166 17.5 74.499s26.834 37 45.501 50s39.834 22.5 63.501 28.5s47.834 9 72.501 9c24 0 47.833 -2.33301 71.5 -7s45.834 -11.334 66.501 -20.001v78zM236.996 264.002c-19.333 0 -37.668 -1.83203 -55.001 -5.49902s-32.666 -10 -45.999 -19
s-24 -20.667 -32 -35s-12 -32.5 -12 -54.5c0 -39.333 12.167 -67.333 36.5 -84s54.833 -25.334 91.5 -26.001h17c20 0 40 0.666992 60 2c26 2.66699 51.333 7 76 13v184c-17.333 6.66699 -38 12.5 -62 17.5s-48.667 7.5 -74 7.5z" />
    <glyph glyph-name="aacute" unicode="&#xe1;" horiz-adv-x="491" 
d="M258 577h-58l69 113h80zM373 363c0 18.667 -4.00391 34.8359 -12.0039 48.5029s-18.833 25.167 -32.5 34.5s-29 16.333 -46 21s-34.5 7 -52.5 7c-26 0 -51 -4.33301 -75 -13s-42.667 -21.667 -56 -39l-38 36c21.333 23.333 47.666 40.833 78.999 52.5
s63.333 17.5 96 17.5c24.667 0 48.667 -3.5 72 -10.5s44 -17.333 62 -31s32.333 -30.834 43 -51.501s16 -44.667 16 -72v-340c-64 -22 -130.667 -33 -200 -33h-12c-25.333 0 -49 3.33301 -71 10s-41.167 16.667 -57.5 30s-29.166 29.833 -38.499 49.5s-14 43.167 -14 70.5
c0 29.333 5.83301 54.166 17.5 74.499s26.834 37 45.501 50s39.834 22.5 63.501 28.5s47.834 9 72.501 9c24 0 47.833 -2.33301 71.5 -7s45.834 -11.334 66.501 -20.001v78zM236.996 264.002c-19.333 0 -37.668 -1.83203 -55.001 -5.49902s-32.666 -10 -45.999 -19
s-24 -20.667 -32 -35s-12 -32.5 -12 -54.5c0 -39.333 12.167 -67.333 36.5 -84s54.833 -25.334 91.5 -26.001h17c20 0 40 0.666992 60 2c26 2.66699 51.333 7 76 13v184c-17.333 6.66699 -38 12.5 -62 17.5s-48.667 7.5 -74 7.5z" />
    <glyph glyph-name="acircumflex" unicode="&#xe2;" horiz-adv-x="491" 
d="M382 577h-63l-75 78l-70 -78h-64l103 113h66zM373 363c0 18.667 -4.00391 34.8359 -12.0039 48.5029s-18.833 25.167 -32.5 34.5s-29 16.333 -46 21s-34.5 7 -52.5 7c-26 0 -51 -4.33301 -75 -13s-42.667 -21.667 -56 -39l-38 36
c21.333 23.333 47.666 40.833 78.999 52.5s63.333 17.5 96 17.5c24.667 0 48.667 -3.5 72 -10.5s44 -17.333 62 -31s32.333 -30.834 43 -51.501s16 -44.667 16 -72v-340c-64 -22 -130.667 -33 -200 -33h-12c-25.333 0 -49 3.33301 -71 10s-41.167 16.667 -57.5 30
s-29.166 29.833 -38.499 49.5s-14 43.167 -14 70.5c0 29.333 5.83301 54.166 17.5 74.499s26.834 37 45.501 50s39.834 22.5 63.501 28.5s47.834 9 72.501 9c24 0 47.833 -2.33301 71.5 -7s45.834 -11.334 66.501 -20.001v78zM236.996 264.002
c-19.333 0 -37.668 -1.83203 -55.001 -5.49902s-32.666 -10 -45.999 -19s-24 -20.667 -32 -35s-12 -32.5 -12 -54.5c0 -39.333 12.167 -67.333 36.5 -84s54.833 -25.334 91.5 -26.001h17c20 0 40 0.666992 60 2c26 2.66699 51.333 7 76 13v184
c-17.333 6.66699 -38 12.5 -62 17.5s-48.667 7.5 -74 7.5z" />
    <glyph glyph-name="atilde" unicode="&#xe3;" horiz-adv-x="491" 
d="M195 690c10.667 0 20.668 -2.49902 30.001 -7.49902s18.333 -10.5 27 -16.5s17.167 -11.5 25.5 -16.5s16.5 -7.5 24.5 -7.5c19.333 0 32 12.333 38 37l39 -15c-6 -22.667 -15.667 -40.5 -29 -53.5s-29.333 -19.5 -48 -19.5c-11.333 0 -21.833 2.5 -31.5 7.5
s-18.667 10.5 -27 16.5s-16.833 11.5 -25.5 16.5s-17.667 7.5 -27 7.5c-16.667 0 -29.334 -12.667 -38.001 -38l-40 14c4 23.333 13.167 41.666 27.5 54.999s32.5 20 54.5 20zM373.001 363.001c0 18.667 -4.00391 34.8359 -12.0039 48.5029s-18.833 25.167 -32.5 34.5
s-29 16.333 -46 21s-34.5 7 -52.5 7c-26 0 -51 -4.33301 -75 -13s-42.667 -21.667 -56 -39l-38 36c21.333 23.333 47.666 40.833 78.999 52.5s63.333 17.5 96 17.5c24.667 0 48.667 -3.5 72 -10.5s44 -17.333 62 -31s32.333 -30.834 43 -51.501s16 -44.667 16 -72v-340
c-64 -22 -130.667 -33 -200 -33h-12c-25.333 0 -49 3.33301 -71 10s-41.167 16.667 -57.5 30s-29.166 29.833 -38.499 49.5s-14 43.167 -14 70.5c0 29.333 5.83301 54.166 17.5 74.499s26.834 37 45.501 50s39.834 22.5 63.501 28.5s47.834 9 72.501 9
c24 0 47.833 -2.33301 71.5 -7s45.834 -11.334 66.501 -20.001v78zM236.997 264.003c-19.333 0 -37.668 -1.83203 -55.001 -5.49902s-32.666 -10 -45.999 -19s-24 -20.667 -32 -35s-12 -32.5 -12 -54.5c0 -39.333 12.167 -67.333 36.5 -84s54.833 -25.334 91.5 -26.001h17
c20 0 40 0.666992 60 2c26 2.66699 51.333 7 76 13v184c-17.333 6.66699 -38 12.5 -62 17.5s-48.667 7.5 -74 7.5z" />
    <glyph glyph-name="adieresis" unicode="&#xe4;" horiz-adv-x="491" 
d="M295 634c0 13.333 4.66699 24.666 14 33.999s20.666 14 33.999 14s24.666 -4.66699 33.999 -14s14 -20.666 14 -33.999s-4.66699 -24.666 -14 -33.999s-20.666 -14 -33.999 -14s-24.666 4.66699 -33.999 14s-14 20.666 -14 33.999zM115 634
c0 13.333 4.66699 24.666 14 33.999s20.666 14 33.999 14s24.666 -4.66699 33.999 -14s14 -20.666 14 -33.999s-4.66699 -24.666 -14 -33.999s-20.666 -14 -33.999 -14s-24.666 4.66699 -33.999 14s-14 20.666 -14 33.999zM373 363
c0 18.667 -4.00391 34.8359 -12.0039 48.5029s-18.833 25.167 -32.5 34.5s-29 16.333 -46 21s-34.5 7 -52.5 7c-26 0 -51 -4.33301 -75 -13s-42.667 -21.667 -56 -39l-38 36c21.333 23.333 47.666 40.833 78.999 52.5s63.333 17.5 96 17.5c24.667 0 48.667 -3.5 72 -10.5
s44 -17.333 62 -31s32.333 -30.834 43 -51.501s16 -44.667 16 -72v-340c-64 -22 -130.667 -33 -200 -33h-12c-25.333 0 -49 3.33301 -71 10s-41.167 16.667 -57.5 30s-29.166 29.833 -38.499 49.5s-14 43.167 -14 70.5c0 29.333 5.83301 54.166 17.5 74.499
s26.834 37 45.501 50s39.834 22.5 63.501 28.5s47.834 9 72.501 9c24 0 47.833 -2.33301 71.5 -7s45.834 -11.334 66.501 -20.001v78zM236.996 264.002c-19.333 0 -37.668 -1.83203 -55.001 -5.49902s-32.666 -10 -45.999 -19s-24 -20.667 -32 -35s-12 -32.5 -12 -54.5
c0 -39.333 12.167 -67.333 36.5 -84s54.833 -25.334 91.5 -26.001h17c20 0 40 0.666992 60 2c26 2.66699 51.333 7 76 13v184c-17.333 6.66699 -38 12.5 -62 17.5s-48.667 7.5 -74 7.5z" />
    <glyph glyph-name="aring" unicode="&#xe5;" horiz-adv-x="491" 
d="M153 653c0 12.667 2.5 24.5 7.5 35.5s11.667 20.667 20 29s18.166 14.833 29.499 19.5s23.333 7 36 7s24.667 -2.33301 36 -7s21.166 -11.167 29.499 -19.5s15 -18 20 -29s7.5 -22.833 7.5 -35.5s-2.5 -24.5 -7.5 -35.5s-11.667 -20.667 -20 -29
s-18.166 -14.833 -29.499 -19.5s-23.333 -7 -36 -7s-24.667 2.33301 -36 7s-21.166 11.167 -29.499 19.5s-15 18 -20 29s-7.5 22.833 -7.5 35.5zM299 653c0 15.333 -5.16699 28.5 -15.5 39.5s-22.833 16.5 -37.5 16.5c-15.333 0 -28.333 -5.5 -39 -16.5
s-16 -24.167 -16 -39.5s5.33301 -28.5 16 -39.5s23.667 -16.5 39 -16.5c14.667 0 27.167 5.5 37.5 16.5s15.5 24.167 15.5 39.5zM373 363c0 18.667 -4.00391 34.8359 -12.0039 48.5029s-18.833 25.167 -32.5 34.5s-29 16.333 -46 21s-34.5 7 -52.5 7
c-26 0 -51 -4.33301 -75 -13s-42.667 -21.667 -56 -39l-38 36c21.333 23.333 47.666 40.833 78.999 52.5s63.333 17.5 96 17.5c24.667 0 48.667 -3.5 72 -10.5s44 -17.333 62 -31s32.333 -30.834 43 -51.501s16 -44.667 16 -72v-340c-64 -22 -130.667 -33 -200 -33h-12
c-25.333 0 -49 3.33301 -71 10s-41.167 16.667 -57.5 30s-29.166 29.833 -38.499 49.5s-14 43.167 -14 70.5c0 29.333 5.83301 54.166 17.5 74.499s26.834 37 45.501 50s39.834 22.5 63.501 28.5s47.834 9 72.501 9c24 0 47.833 -2.33301 71.5 -7
s45.834 -11.334 66.501 -20.001v78zM236.996 264.002c-19.333 0 -37.668 -1.83203 -55.001 -5.49902s-32.666 -10 -45.999 -19s-24 -20.667 -32 -35s-12 -32.5 -12 -54.5c0 -39.333 12.167 -67.333 36.5 -84s54.833 -25.334 91.5 -26.001h17c20 0 40 0.666992 60 2
c26 2.66699 51.333 7 76 13v184c-17.333 6.66699 -38 12.5 -62 17.5s-48.667 7.5 -74 7.5z" />
    <glyph glyph-name="ae" unicode="&#xe6;" horiz-adv-x="810" 
d="M373 365c0 18.667 -3.99707 34.8301 -11.9971 48.4971s-18.667 25 -32 34s-28.5 15.667 -45.5 20s-34.5 6.5 -52.5 6.5c-26 0 -51 -4.5 -75 -13.5s-42.667 -22.167 -56 -39.5l-38 36c21.333 23.333 47.5 40.833 78.5 52.5s62.833 17.5 95.5 17.5c34 0 66 -6 96 -18
s53.667 -30.667 71 -56c18 24.667 42 43.334 72 56.001s61.333 19 94 19c24.667 0 48.667 -3.5 72 -10.5s44.166 -17.5 62.499 -31.5s33.166 -31.5 44.499 -52.5s17 -45.5 17 -73.5v-130h-336v-75c0 -18.667 4 -35 12 -49s18.5 -25.5 31.5 -34.5s28 -15.833 45 -20.5
s34.167 -7 51.5 -7c28 0 54.5 5.83301 79.5 17.5s42.5 29.167 52.5 52.5l50 -25c-8 -16.667 -18.333 -31.167 -31 -43.5s-27.167 -22.666 -43.5 -30.999s-33.666 -14.5 -51.999 -18.5s-36.833 -6 -55.5 -6c-30 0 -58.833 4.83301 -86.5 14.5s-50.834 24.834 -69.501 45.501
c-22.667 -19.333 -49.834 -34.166 -81.501 -44.499s-64.167 -15.5 -97.5 -15.5c-25.333 0 -49.833 3.33301 -73.5 10s-44.667 16.834 -63 30.501s-33 31.167 -44 52.5s-16.5 47 -16.5 77c0 30.667 5.83301 56.667 17.5 78s27 38.666 46 51.999s41 23.166 66 29.499
s50.5 9.5 76.5 9.5c46 0 89.333 -9.33301 130 -28v64zM709.003 363.996c0 18 -4 34 -12 48s-18.5 25.5 -31.5 34.5s-28 15.833 -45 20.5s-34.167 7 -51.5 7s-34.333 -2.33301 -51 -7s-31.667 -11.5 -45 -20.5s-24 -20.333 -32 -34s-12 -29.5 -12 -47.5v-87h280v86z
M240.003 278.996c-19.333 0 -37.667 -2 -55 -6s-32.833 -10.5 -46.5 -19.5s-24.667 -21.167 -33 -36.5s-12.5 -34.333 -12.5 -57c0 -20.667 4 -38.334 12 -53.001s18.5 -26.667 31.5 -36s28 -16.166 45 -20.499s34.833 -6.5 53.5 -6.5c28 0 55.333 4.16699 82 12.5
s49.667 19.833 69 34.5c-8.66699 20.667 -13 42.667 -13 66v97c-17.333 7.33301 -37.833 13.333 -61.5 18s-47.5 7 -71.5 7z" />
    <glyph glyph-name="ccedilla" unicode="&#xe7;" horiz-adv-x="461" 
d="M251 -69c23.333 0 42.0039 -5.66699 56.0039 -17c16.667 -13.333 25 -33 25 -59v-6c-0.666992 -16 -4.5 -30 -11.5 -42s-15.833 -21.667 -26.5 -29s-22.5 -12.833 -35.5 -16.5s-25.833 -5.5 -38.5 -5.5c-30 0 -59.333 6.66699 -88 20l13 37c12 -6 23.667 -10.333 35 -13
s24 -4 38 -4c16.667 0 31.667 4.33301 45 13c14.667 9.33301 22 24 22 44c0 12.667 -3 22.334 -9 29.001c-7.33301 8 -16 13 -26 15c-6 1.33301 -12 2 -18 2c-4.66699 0 -9.33398 -0.333008 -14.001 -1c-11.333 -2 -20.333 -4.66699 -27 -8l-14 14l46 87
c-22 2 -43.333 7 -64 15s-38.834 19 -54.501 33s-28.334 30.833 -38.001 50.5s-14.5 42.5 -14.5 68.5v202c0 28 5.66699 52.5 17 73.5s26.166 38.5 44.499 52.5s39.333 24.5 63 31.5s47.5 10.5 71.5 10.5c36 0 70.167 -7.33301 102.5 -22s57.166 -37 74.499 -67l-47 -28
c-11.333 21.333 -29 37.166 -53 47.499s-49.667 15.5 -77 15.5c-17.333 0 -34.5 -2.16699 -51.5 -6.5s-32 -11 -45 -20s-23.5 -20.333 -31.5 -34s-12 -30.167 -12 -49.5v-210c0 -19.333 4 -35.833 12 -49.5s18.5 -25 31.5 -34s28 -15.667 45 -20s34.167 -6.5 51.5 -6.5
c30 0 58.167 6.5 84.5 19.5s43.5 33.167 51.5 60.5l51 -23c-6.66699 -18 -16 -33.667 -28 -47s-25.667 -24.5 -41 -33.5s-32.166 -16.167 -50.499 -21.5s-36.833 -8.33301 -55.5 -9l-30 -58l1 -2c7.33301 0.666992 14 1 20 1z" />
    <glyph glyph-name="egrave" unicode="&#xe8;" 
d="M140 689h80l70 -113h-58zM109 156c0 -19.333 3.99902 -35.999 11.999 -49.999s18.5 -25.667 31.5 -35s27.833 -16.166 44.5 -20.499s34 -6.5 52 -6.5c28 0 54.333 5.66699 79 17s42.334 28.666 53.001 51.999l50 -23c-8 -16.667 -18.333 -31.334 -31 -44.001
s-27.167 -23.167 -43.5 -31.5s-33.666 -14.5 -51.999 -18.5s-36.833 -6 -55.5 -6c-24.667 0 -48.834 3.5 -72.501 10.5s-44.667 17.5 -63 31.5s-33.166 31.5 -44.499 52.5s-17 45.5 -17 73.5v202c0 28 5.66699 52.5 17 73.5s26.166 38.5 44.499 52.5s39.333 24.5 63 31.5
s47.834 10.5 72.501 10.5c24 0 47.833 -3.5 71.5 -10.5s44.667 -17.5 63 -31.5s33.166 -31.5 44.499 -52.5s17 -45.5 17 -73.5v-126h-336v-78zM388.999 364.001c0 18.667 -4 35 -12 49s-18.5 25.5 -31.5 34.5s-28 15.667 -45 20s-34.167 6.5 -51.5 6.5
c-18 0 -35.333 -2.16699 -52 -6.5s-31.667 -11 -45 -20s-23.833 -20.5 -31.5 -34.5s-11.5 -30.333 -11.5 -49v-83h280v83z" />
    <glyph glyph-name="eacute" unicode="&#xe9;" 
d="M261 576h-58l69 113h80zM109 156c0 -19.333 3.99902 -35.999 11.999 -49.999s18.5 -25.667 31.5 -35s27.833 -16.166 44.5 -20.499s34 -6.5 52 -6.5c28 0 54.333 5.66699 79 17s42.334 28.666 53.001 51.999l50 -23c-8 -16.667 -18.333 -31.334 -31 -44.001
s-27.167 -23.167 -43.5 -31.5s-33.666 -14.5 -51.999 -18.5s-36.833 -6 -55.5 -6c-24.667 0 -48.834 3.5 -72.501 10.5s-44.667 17.5 -63 31.5s-33.166 31.5 -44.499 52.5s-17 45.5 -17 73.5v202c0 28 5.66699 52.5 17 73.5s26.166 38.5 44.499 52.5s39.333 24.5 63 31.5
s47.834 10.5 72.501 10.5c24 0 47.833 -3.5 71.5 -10.5s44.667 -17.5 63 -31.5s33.166 -31.5 44.499 -52.5s17 -45.5 17 -73.5v-126h-336v-78zM388.999 364.001c0 18.667 -4 35 -12 49s-18.5 25.5 -31.5 34.5s-28 15.667 -45 20s-34.167 6.5 -51.5 6.5
c-18 0 -35.333 -2.16699 -52 -6.5s-31.667 -11 -45 -20s-23.833 -20.5 -31.5 -34.5s-11.5 -30.333 -11.5 -49v-83h280v83z" />
    <glyph glyph-name="ecircumflex" unicode="&#xea;" 
d="M385 576h-63l-75 78l-70 -78h-64l103 113h66zM109 156c0 -19.333 3.99902 -35.999 11.999 -49.999s18.5 -25.667 31.5 -35s27.833 -16.166 44.5 -20.499s34 -6.5 52 -6.5c28 0 54.333 5.66699 79 17s42.334 28.666 53.001 51.999l50 -23
c-8 -16.667 -18.333 -31.334 -31 -44.001s-27.167 -23.167 -43.5 -31.5s-33.666 -14.5 -51.999 -18.5s-36.833 -6 -55.5 -6c-24.667 0 -48.834 3.5 -72.501 10.5s-44.667 17.5 -63 31.5s-33.166 31.5 -44.499 52.5s-17 45.5 -17 73.5v202c0 28 5.66699 52.5 17 73.5
s26.166 38.5 44.499 52.5s39.333 24.5 63 31.5s47.834 10.5 72.501 10.5c24 0 47.833 -3.5 71.5 -10.5s44.667 -17.5 63 -31.5s33.166 -31.5 44.499 -52.5s17 -45.5 17 -73.5v-126h-336v-78zM388.999 364.001c0 18.667 -4 35 -12 49s-18.5 25.5 -31.5 34.5
s-28 15.667 -45 20s-34.167 6.5 -51.5 6.5c-18 0 -35.333 -2.16699 -52 -6.5s-31.667 -11 -45 -20s-23.833 -20.5 -31.5 -34.5s-11.5 -30.333 -11.5 -49v-83h280v83z" />
    <glyph glyph-name="edieresis" unicode="&#xeb;" 
d="M298 633c0 13.333 4.66699 24.666 14 33.999s20.666 14 33.999 14s24.666 -4.66699 33.999 -14s14 -20.666 14 -33.999s-4.66699 -24.666 -14 -33.999s-20.666 -14 -33.999 -14s-24.666 4.66699 -33.999 14s-14 20.666 -14 33.999zM118 633
c0 13.333 4.66699 24.666 14 33.999s20.666 14 33.999 14s24.666 -4.66699 33.999 -14s14 -20.666 14 -33.999s-4.66699 -24.666 -14 -33.999s-20.666 -14 -33.999 -14s-24.666 4.66699 -33.999 14s-14 20.666 -14 33.999zM109 156
c0 -19.333 3.99902 -35.999 11.999 -49.999s18.5 -25.667 31.5 -35s27.833 -16.166 44.5 -20.499s34 -6.5 52 -6.5c28 0 54.333 5.66699 79 17s42.334 28.666 53.001 51.999l50 -23c-8 -16.667 -18.333 -31.334 -31 -44.001s-27.167 -23.167 -43.5 -31.5
s-33.666 -14.5 -51.999 -18.5s-36.833 -6 -55.5 -6c-24.667 0 -48.834 3.5 -72.501 10.5s-44.667 17.5 -63 31.5s-33.166 31.5 -44.499 52.5s-17 45.5 -17 73.5v202c0 28 5.66699 52.5 17 73.5s26.166 38.5 44.499 52.5s39.333 24.5 63 31.5s47.834 10.5 72.501 10.5
c24 0 47.833 -3.5 71.5 -10.5s44.667 -17.5 63 -31.5s33.166 -31.5 44.499 -52.5s17 -45.5 17 -73.5v-126h-336v-78zM388.999 364.001c0 18.667 -4 35 -12 49s-18.5 25.5 -31.5 34.5s-28 15.667 -45 20s-34.167 6.5 -51.5 6.5c-18 0 -35.333 -2.16699 -52 -6.5
s-31.667 -11 -45 -20s-23.833 -20.5 -31.5 -34.5s-11.5 -30.333 -11.5 -49v-83h280v83z" />
    <glyph glyph-name="igrave" unicode="&#xec;" horiz-adv-x="196" 
d="M-11 689h80l70 -113h-58zM128 0h-60v518h60v-518z" />
    <glyph glyph-name="iacute" unicode="&#xed;" horiz-adv-x="196" 
d="M110 576h-58l69 113h80zM128 0h-60v518h60v-518z" />
    <glyph glyph-name="icircumflex" unicode="&#xee;" horiz-adv-x="196" 
d="M204 583h-63l-41 78l-44 -78h-64l73 113h66zM128 0h-60v518h60v-518z" />
    <glyph glyph-name="idieresis" unicode="&#xef;" horiz-adv-x="196" 
d="M117 641c0 13.333 4.66699 24.666 14 33.999s20.666 14 33.999 14s24.666 -4.66699 33.999 -14s14 -20.666 14 -33.999s-4.66699 -24.666 -14 -33.999s-20.666 -14 -33.999 -14s-24.666 4.66699 -33.999 14s-14 20.666 -14 33.999zM-3 641
c0 13.333 4.66699 24.666 14 33.999s20.666 14 33.999 14s24.666 -4.66699 33.999 -14s14 -20.666 14 -33.999s-4.66699 -24.666 -14 -33.999s-20.666 -14 -33.999 -14s-24.666 4.66699 -33.999 14s-14 20.666 -14 33.999zM128 0h-60v518h60v-518z" />
    <glyph glyph-name="eth" unicode="&#xf0;" horiz-adv-x="505" 
d="M247 716c8.66699 0 16.999 -0.331055 24.999 -0.998047l22 67l44 -15l-19 -61c34 -10 62.5 -27.667 85.5 -53s34.5 -59 34.5 -101v-518c-7.33301 -2.66699 -15.666 -5.33398 -24.999 -8.00098l-30 -9c-23.333 -6.66699 -47 -12.167 -71 -16.5s-48 -6.5 -72 -6.5
s-47.333 3.5 -70 10.5s-42.834 17.5 -60.501 31.5s-32 31.333 -43 52s-16.5 44.667 -16.5 72v152c0 26.667 5.5 50.5 16.5 71.5s25.5 38.5 43.5 52.5s38.667 24.5 62 31.5s47.333 10.5 72 10.5c24 0 47.667 -2.33301 71 -7s46 -12.667 68 -24v105
c0 27.333 -7.83301 49.333 -23.5 66s-35.167 28.667 -58.5 36l-25 -80l-45 16l24 73c-5.33301 0.666992 -10.666 1 -15.999 1c-22.667 0 -44.667 -3.66699 -66 -11c-26.667 -8.66699 -47 -22 -61 -40l-38 35c22.667 25.333 52 43.666 88 54.999c28 8.66699 56 13 84 13z
M242.999 423.002c-17.333 0 -34.167 -2.33203 -50.5 -6.99902s-30.833 -11.5 -43.5 -20.5s-23 -20.333 -31 -34s-12 -29.834 -12 -48.501v-1v-152v-1c0 -18.667 3.83301 -34.834 11.5 -48.501s17.834 -25 30.501 -34s27.167 -15.833 43.5 -20.5s33.166 -7 50.499 -7
c28 0 54.833 3.33301 80.5 10s46.167 13.334 61.5 20.001v315c-44.667 19.333 -91.667 29 -141 29z" />
    <glyph glyph-name="ntilde" unicode="&#xf1;" horiz-adv-x="522" 
d="M214 689c10.667 0 20.668 -2.49902 30.001 -7.49902s18.333 -10.5 27 -16.5s17.167 -11.5 25.5 -16.5s16.5 -7.5 24.5 -7.5c19.333 0 32 12.333 38 37l39 -15c-6 -22.667 -15.667 -40.5 -29 -53.5s-29.333 -19.5 -48 -19.5c-11.333 0 -21.833 2.5 -31.5 7.5
s-18.667 10.5 -27 16.5s-16.833 11.5 -25.5 16.5s-17.667 7.5 -27 7.5c-16.667 0 -29.334 -12.667 -38.001 -38l-40 14c4 23.333 13.167 41.666 27.5 54.999s32.5 20 54.5 20zM457.001 361.001v-360.997h-56v363c0 18.667 -4 35 -12 49s-18.5 25.667 -31.5 35
s-27.5 16.166 -43.5 20.499s-32.333 6.5 -49 6.5c-28 0 -55 -3.33301 -81 -10s-46.667 -13.334 -62 -20.001v-444h-56v487c32 11.333 64.667 21 98 29s67 12 101 12c24 -0.666992 47.5 -4.5 70.5 -11.5s43.5 -17.333 61.5 -31s32.5 -30.834 43.5 -51.501s16.5 -45 16.5 -73z
" />
    <glyph glyph-name="ograve" unicode="&#xf2;" horiz-adv-x="497" 
d="M140 689h80l70 -113h-58zM52 359c0 28 5.66699 52.5 17 73.5s26.166 38.5 44.499 52.5s39.333 24.667 63 32s47.834 11 72.501 11s48.667 -3.66699 72 -11s44.166 -18 62.499 -32s33.166 -31.5 44.499 -52.5s17 -45.5 17 -73.5v-200c0 -28 -5.66699 -52.667 -17 -74
s-26.166 -39 -44.499 -53s-39.166 -24.5 -62.499 -31.5s-47.333 -10.5 -72 -10.5s-48.834 3.5 -72.501 10.5s-44.667 17.5 -63 31.5s-33.166 31.667 -44.499 53s-17 46 -17 74v200zM249 474c-17.333 0 -34.333 -2.16699 -51 -6.5s-31.667 -11 -45 -20
s-24.166 -20.5 -32.499 -34.5s-12.5 -31 -12.5 -51v-205c0 -20 4.16699 -37 12.5 -51s19.166 -25.667 32.499 -35s28.333 -16.166 45 -20.499s33.667 -6.5 51 -6.5c16.667 0 33.334 2.16699 50.001 6.5s31.667 11.166 45 20.499s24.166 21 32.499 35s12.5 31 12.5 51v205
c0 20 -4.16699 37 -12.5 51s-19.166 25.5 -32.499 34.5s-28.333 15.667 -45 20s-33.334 6.5 -50.001 6.5z" />
    <glyph glyph-name="oacute" unicode="&#xf3;" horiz-adv-x="497" 
d="M261 576h-58l69 113h80zM52 359c0 28 5.66699 52.5 17 73.5s26.166 38.5 44.499 52.5s39.333 24.667 63 32s47.834 11 72.501 11s48.667 -3.66699 72 -11s44.166 -18 62.499 -32s33.166 -31.5 44.499 -52.5s17 -45.5 17 -73.5v-200c0 -28 -5.66699 -52.667 -17 -74
s-26.166 -39 -44.499 -53s-39.166 -24.5 -62.499 -31.5s-47.333 -10.5 -72 -10.5s-48.834 3.5 -72.501 10.5s-44.667 17.5 -63 31.5s-33.166 31.667 -44.499 53s-17 46 -17 74v200zM249 474c-17.333 0 -34.333 -2.16699 -51 -6.5s-31.667 -11 -45 -20
s-24.166 -20.5 -32.499 -34.5s-12.5 -31 -12.5 -51v-205c0 -20 4.16699 -37 12.5 -51s19.166 -25.667 32.499 -35s28.333 -16.166 45 -20.499s33.667 -6.5 51 -6.5c16.667 0 33.334 2.16699 50.001 6.5s31.667 11.166 45 20.499s24.166 21 32.499 35s12.5 31 12.5 51v205
c0 20 -4.16699 37 -12.5 51s-19.166 25.5 -32.499 34.5s-28.333 15.667 -45 20s-33.334 6.5 -50.001 6.5z" />
    <glyph glyph-name="ocircumflex" unicode="&#xf4;" horiz-adv-x="497" 
d="M385 576h-63l-75 78l-70 -78h-64l103 113h66zM52 359c0 28 5.66699 52.5 17 73.5s26.166 38.5 44.499 52.5s39.333 24.667 63 32s47.834 11 72.501 11s48.667 -3.66699 72 -11s44.166 -18 62.499 -32s33.166 -31.5 44.499 -52.5s17 -45.5 17 -73.5v-200
c0 -28 -5.66699 -52.667 -17 -74s-26.166 -39 -44.499 -53s-39.166 -24.5 -62.499 -31.5s-47.333 -10.5 -72 -10.5s-48.834 3.5 -72.501 10.5s-44.667 17.5 -63 31.5s-33.166 31.667 -44.499 53s-17 46 -17 74v200zM249 474c-17.333 0 -34.333 -2.16699 -51 -6.5
s-31.667 -11 -45 -20s-24.166 -20.5 -32.499 -34.5s-12.5 -31 -12.5 -51v-205c0 -20 4.16699 -37 12.5 -51s19.166 -25.667 32.499 -35s28.333 -16.166 45 -20.499s33.667 -6.5 51 -6.5c16.667 0 33.334 2.16699 50.001 6.5s31.667 11.166 45 20.499s24.166 21 32.499 35
s12.5 31 12.5 51v205c0 20 -4.16699 37 -12.5 51s-19.166 25.5 -32.499 34.5s-28.333 15.667 -45 20s-33.334 6.5 -50.001 6.5z" />
    <glyph glyph-name="otilde" unicode="&#xf5;" horiz-adv-x="497" 
d="M198 689c10.667 0 20.668 -2.49902 30.001 -7.49902s18.333 -10.5 27 -16.5s17.167 -11.5 25.5 -16.5s16.5 -7.5 24.5 -7.5c19.333 0 32 12.333 38 37l39 -15c-6 -22.667 -15.667 -40.5 -29 -53.5s-29.333 -19.5 -48 -19.5c-11.333 0 -21.833 2.5 -31.5 7.5
s-18.667 10.5 -27 16.5s-16.833 11.5 -25.5 16.5s-17.667 7.5 -27 7.5c-16.667 0 -29.334 -12.667 -38.001 -38l-40 14c4 23.333 13.167 41.666 27.5 54.999s32.5 20 54.5 20zM52.001 359.001c0 28 5.66699 52.5 17 73.5s26.166 38.5 44.499 52.5s39.333 24.667 63 32
s47.834 11 72.501 11s48.667 -3.66699 72 -11s44.166 -18 62.499 -32s33.166 -31.5 44.499 -52.5s17 -45.5 17 -73.5v-200c0 -28 -5.66699 -52.667 -17 -74s-26.166 -39 -44.499 -53s-39.166 -24.5 -62.499 -31.5s-47.333 -10.5 -72 -10.5s-48.834 3.5 -72.501 10.5
s-44.667 17.5 -63 31.5s-33.166 31.667 -44.499 53s-17 46 -17 74v200zM249.001 474.001c-17.333 0 -34.333 -2.16699 -51 -6.5s-31.667 -11 -45 -20s-24.166 -20.5 -32.499 -34.5s-12.5 -31 -12.5 -51v-205c0 -20 4.16699 -37 12.5 -51s19.166 -25.667 32.499 -35
s28.333 -16.166 45 -20.499s33.667 -6.5 51 -6.5c16.667 0 33.334 2.16699 50.001 6.5s31.667 11.166 45 20.499s24.166 21 32.499 35s12.5 31 12.5 51v205c0 20 -4.16699 37 -12.5 51s-19.166 25.5 -32.499 34.5s-28.333 15.667 -45 20s-33.334 6.5 -50.001 6.5z" />
    <glyph glyph-name="odieresis" unicode="&#xf6;" horiz-adv-x="497" 
d="M298 633c0 13.333 4.66699 24.666 14 33.999s20.666 14 33.999 14s24.666 -4.66699 33.999 -14s14 -20.666 14 -33.999s-4.66699 -24.666 -14 -33.999s-20.666 -14 -33.999 -14s-24.666 4.66699 -33.999 14s-14 20.666 -14 33.999zM118 633
c0 13.333 4.66699 24.666 14 33.999s20.666 14 33.999 14s24.666 -4.66699 33.999 -14s14 -20.666 14 -33.999s-4.66699 -24.666 -14 -33.999s-20.666 -14 -33.999 -14s-24.666 4.66699 -33.999 14s-14 20.666 -14 33.999zM52 359c0 28 5.66699 52.5 17 73.5
s26.166 38.5 44.499 52.5s39.333 24.667 63 32s47.834 11 72.501 11s48.667 -3.66699 72 -11s44.166 -18 62.499 -32s33.166 -31.5 44.499 -52.5s17 -45.5 17 -73.5v-200c0 -28 -5.66699 -52.667 -17 -74s-26.166 -39 -44.499 -53s-39.166 -24.5 -62.499 -31.5
s-47.333 -10.5 -72 -10.5s-48.834 3.5 -72.501 10.5s-44.667 17.5 -63 31.5s-33.166 31.667 -44.499 53s-17 46 -17 74v200zM249 474c-17.333 0 -34.333 -2.16699 -51 -6.5s-31.667 -11 -45 -20s-24.166 -20.5 -32.499 -34.5s-12.5 -31 -12.5 -51v-205
c0 -20 4.16699 -37 12.5 -51s19.166 -25.667 32.499 -35s28.333 -16.166 45 -20.499s33.667 -6.5 51 -6.5c16.667 0 33.334 2.16699 50.001 6.5s31.667 11.166 45 20.499s24.166 21 32.499 35s12.5 31 12.5 51v205c0 20 -4.16699 37 -12.5 51s-19.166 25.5 -32.499 34.5
s-28.333 15.667 -45 20s-33.334 6.5 -50.001 6.5z" />
    <glyph glyph-name="divide" unicode="&#xf7;" horiz-adv-x="546" 
d="M491 301h-434v60h434v-60zM228 171c0 13.333 4.66699 24.666 14 33.999s20.666 14 33.999 14s24.666 -4.66699 33.999 -14s14 -20.666 14 -33.999s-4.66699 -24.666 -14 -33.999s-20.666 -14 -33.999 -14s-24.666 4.66699 -33.999 14s-14 20.666 -14 33.999zM228 479
c0 13.333 4.66699 24.666 14 33.999s20.666 14 33.999 14s24.666 -4.66699 33.999 -14s14 -20.666 14 -33.999s-4.66699 -24.666 -14 -33.999s-20.666 -14 -33.999 -14s-24.666 4.66699 -33.999 14s-14 20.666 -14 33.999z" />
    <glyph glyph-name="oslash" unicode="&#xf8;" horiz-adv-x="497" 
d="M445 359l-0.00195312 -200.001c0 -28 -5.66699 -52.667 -17 -74s-26.166 -39 -44.499 -53s-39.166 -24.5 -62.499 -31.5s-47.333 -10.5 -72 -10.5c-30 0 -58.333 5 -85 15l-33 -80l-35 14l35 82c-23.333 14 -42.333 32.333 -57 55s-22 50.334 -22 83.001v200
c0 28 5.66699 52.5 17 73.5s26.166 38.5 44.499 52.5s39.333 24.667 63 32s47.834 11 72.501 11c15.333 0 30.333 -1.33301 45 -4s29 -6.66699 43 -12l29 69l34 -12l-31 -74c22.667 -13.333 41 -31.333 55 -54s21 -50 21 -82zM107.998 156.999
c0 -19.333 3.99805 -36 11.998 -50s18.667 -25.667 32 -35l164 390c-21.333 8 -43.666 12 -66.999 12c-17.333 0 -34.333 -2.16699 -51 -6.5s-31.667 -11 -45 -20s-24.166 -20.5 -32.499 -34.5s-12.5 -31 -12.5 -51v-205zM388.996 361.999
c0 18.667 -3.83301 34.834 -11.5 48.501s-17.5 25.167 -29.5 34.5l-163 -390c10 -4 20.333 -6.83301 31 -8.5s21.667 -2.5 33 -2.5c16.667 0 33.334 2.16699 50.001 6.5s31.667 11.166 45 20.499s24.166 21 32.499 35s12.5 31 12.5 51v205z" />
    <glyph glyph-name="ugrave" unicode="&#xf9;" horiz-adv-x="521" 
d="M151 679h80l70 -113h-58zM256 -10c-24 0 -47.502 3.5 -70.502 10.5s-43.5 17.5 -61.5 31.5s-32.5 31.333 -43.5 52s-16.5 45 -16.5 73v362h56v-365c0 -18 3.83301 -33.833 11.5 -47.5s17.834 -25.167 30.501 -34.5s27.167 -16.333 43.5 -21s33.166 -7 50.499 -7
c28 0 55 3.5 81 10.5s46.667 13.833 62 20.5v444h56v-489l-56 -17c-23.333 -6.66699 -47.166 -12.167 -71.499 -16.5s-48.166 -6.5 -71.499 -6.5z" />
    <glyph glyph-name="uacute" unicode="&#xfa;" horiz-adv-x="521" 
d="M272 566h-58l69 113h80zM256 -10c-24 0 -47.502 3.5 -70.502 10.5s-43.5 17.5 -61.5 31.5s-32.5 31.333 -43.5 52s-16.5 45 -16.5 73v362h56v-365c0 -18 3.83301 -33.833 11.5 -47.5s17.834 -25.167 30.501 -34.5s27.167 -16.333 43.5 -21s33.166 -7 50.499 -7
c28 0 55 3.5 81 10.5s46.667 13.833 62 20.5v444h56v-489l-56 -17c-23.333 -6.66699 -47.166 -12.167 -71.499 -16.5s-48.166 -6.5 -71.499 -6.5z" />
    <glyph glyph-name="ucircumflex" unicode="&#xfb;" horiz-adv-x="521" 
d="M396 566h-63l-75 78l-70 -78h-64l103 113h66zM256 -10c-24 0 -47.502 3.5 -70.502 10.5s-43.5 17.5 -61.5 31.5s-32.5 31.333 -43.5 52s-16.5 45 -16.5 73v362h56v-365c0 -18 3.83301 -33.833 11.5 -47.5s17.834 -25.167 30.501 -34.5s27.167 -16.333 43.5 -21
s33.166 -7 50.499 -7c28 0 55 3.5 81 10.5s46.667 13.833 62 20.5v444h56v-489l-56 -17c-23.333 -6.66699 -47.166 -12.167 -71.499 -16.5s-48.166 -6.5 -71.499 -6.5z" />
    <glyph glyph-name="udieresis" unicode="&#xfc;" horiz-adv-x="521" 
d="M309 623c0 13.333 4.66699 24.666 14 33.999s20.666 14 33.999 14s24.666 -4.66699 33.999 -14s14 -20.666 14 -33.999s-4.66699 -24.666 -14 -33.999s-20.666 -14 -33.999 -14s-24.666 4.66699 -33.999 14s-14 20.666 -14 33.999zM129 623
c0 13.333 4.66699 24.666 14 33.999s20.666 14 33.999 14s24.666 -4.66699 33.999 -14s14 -20.666 14 -33.999s-4.66699 -24.666 -14 -33.999s-20.666 -14 -33.999 -14s-24.666 4.66699 -33.999 14s-14 20.666 -14 33.999zM256 -10c-24 0 -47.502 3.5 -70.502 10.5
s-43.5 17.5 -61.5 31.5s-32.5 31.333 -43.5 52s-16.5 45 -16.5 73v362h56v-365c0 -18 3.83301 -33.833 11.5 -47.5s17.834 -25.167 30.501 -34.5s27.167 -16.333 43.5 -21s33.166 -7 50.499 -7c28 0 55 3.5 81 10.5s46.667 13.833 62 20.5v444h56v-489l-56 -17
c-23.333 -6.66699 -47.166 -12.167 -71.499 -16.5s-48.166 -6.5 -71.499 -6.5z" />
    <glyph glyph-name="yacute" unicode="&#xfd;" horiz-adv-x="535" 
d="M278 566h-58l69 113h80zM264 -152c19.333 0 37.834 2.66699 55.501 8s33.167 13.166 46.5 23.499s24 23.333 32 39s12 34.167 12 55.5v50c-22 -14 -45.167 -23 -69.5 -27s-49.166 -6.33301 -74.499 -7c-25.333 0 -50.166 3.66699 -74.499 11s-46 18.333 -65 33
s-34.167 32.834 -45.5 54.501s-17 46.5 -17 74.5v355h58v-357c0 -19.333 4.16699 -36.333 12.5 -51s19.166 -27 32.499 -37s28.5 -17.667 45.5 -23s34.5 -8 52.5 -8c49.333 0 97.666 10.333 144.999 31v445h57v-544c0 -30 -5.5 -56.333 -16.5 -79s-25.833 -41.5 -44.5 -56.5
s-40 -26.167 -64 -33.5s-49.333 -11 -76 -11c-34 0 -66.833 6 -98.5 18s-57.834 29.333 -78.501 52l39 36c17.333 -18 37.5 -31.167 60.5 -39.5s48.167 -12.5 75.5 -12.5z" />
    <glyph glyph-name="thorn" unicode="&#xfe;" horiz-adv-x="514" 
d="M124 707l0.000976562 -197.001c46.667 12 94.667 18 144 18c24 0 47.667 -3.5 71 -10.5s44.166 -17.5 62.499 -31.5s33 -31.333 44 -52s16.5 -45 16.5 -73v-202c0 -27.333 -5.66699 -51.5 -17 -72.5s-26.166 -38.667 -44.499 -53s-39.333 -25.166 -63 -32.499
s-47.834 -11 -72.501 -11c-49.333 1.33301 -96.333 12 -141 32v-213h-56v898h56zM267.001 43.999c17.333 0 34.334 2.33301 51.001 7s31.5 11.5 44.5 20.5s23.333 20.5 31 34.5s11.5 30 11.5 48v211c0 18 -3.83301 33.833 -11.5 47.5s-17.834 25 -30.501 34
s-27.334 15.833 -44.001 20.5s-33.667 7 -51 7c-24 0 -48.167 -0.833008 -72.5 -2.5s-48.166 -6.5 -71.499 -14.5v-384c46 -19.333 93.667 -29 143 -29z" />
    <glyph glyph-name="ydieresis" unicode="&#xff;" horiz-adv-x="535" 
d="M315 623c0 13.333 4.66699 24.666 14 33.999s20.666 14 33.999 14s24.666 -4.66699 33.999 -14s14 -20.666 14 -33.999s-4.66699 -24.666 -14 -33.999s-20.666 -14 -33.999 -14s-24.666 4.66699 -33.999 14s-14 20.666 -14 33.999zM135 623
c0 13.333 4.66699 24.666 14 33.999s20.666 14 33.999 14s24.666 -4.66699 33.999 -14s14 -20.666 14 -33.999s-4.66699 -24.666 -14 -33.999s-20.666 -14 -33.999 -14s-24.666 4.66699 -33.999 14s-14 20.666 -14 33.999zM264 -152c19.333 0 37.834 2.66699 55.501 8
s33.167 13.166 46.5 23.499s24 23.333 32 39s12 34.167 12 55.5v50c-22 -14 -45.167 -23 -69.5 -27s-49.166 -6.33301 -74.499 -7c-25.333 0 -50.166 3.66699 -74.499 11s-46 18.333 -65 33s-34.167 32.834 -45.5 54.501s-17 46.5 -17 74.5v355h58v-357
c0 -19.333 4.16699 -36.333 12.5 -51s19.166 -27 32.499 -37s28.5 -17.667 45.5 -23s34.5 -8 52.5 -8c49.333 0 97.666 10.333 144.999 31v445h57v-544c0 -30 -5.5 -56.333 -16.5 -79s-25.833 -41.5 -44.5 -56.5s-40 -26.167 -64 -33.5s-49.333 -11 -76 -11
c-34 0 -66.833 6 -98.5 18s-57.834 29.333 -78.501 52l39 36c17.333 -18 37.5 -31.167 60.5 -39.5s48.167 -12.5 75.5 -12.5z" />
    <glyph glyph-name="Amacron" unicode="&#x100;" horiz-adv-x="609" 
d="M179 813h250v-48h-250v48zM603 0h-62l-85 236h-304l-83 -236h-62l254 708h86zM173 295h262l-131 369z" />
    <glyph glyph-name="amacron" unicode="&#x101;" horiz-adv-x="491" 
d="M368 620h-247v58h247v-58zM373 363c0 18.667 -4.00391 34.8359 -12.0039 48.5029s-18.833 25.167 -32.5 34.5s-29 16.333 -46 21s-34.5 7 -52.5 7c-26 0 -51 -4.33301 -75 -13s-42.667 -21.667 -56 -39l-38 36c21.333 23.333 47.666 40.833 78.999 52.5
s63.333 17.5 96 17.5c24.667 0 48.667 -3.5 72 -10.5s44 -17.333 62 -31s32.333 -30.834 43 -51.501s16 -44.667 16 -72v-340c-64 -22 -130.667 -33 -200 -33h-12c-25.333 0 -49 3.33301 -71 10s-41.167 16.667 -57.5 30s-29.166 29.833 -38.499 49.5s-14 43.167 -14 70.5
c0 29.333 5.83301 54.166 17.5 74.499s26.834 37 45.501 50s39.834 22.5 63.501 28.5s47.834 9 72.501 9c24 0 47.833 -2.33301 71.5 -7s45.834 -11.334 66.501 -20.001v78zM236.996 264.002c-19.333 0 -37.668 -1.83203 -55.001 -5.49902s-32.666 -10 -45.999 -19
s-24 -20.667 -32 -35s-12 -32.5 -12 -54.5c0 -39.333 12.167 -67.333 36.5 -84s54.833 -25.334 91.5 -26.001h17c20 0 40 0.666992 60 2c26 2.66699 51.333 7 76 13v184c-17.333 6.66699 -38 12.5 -62 17.5s-48.667 7.5 -74 7.5z" />
    <glyph glyph-name="Abreve" unicode="&#x102;" horiz-adv-x="609" 
d="M425 869c0 -35.333 -11 -63.666 -33 -84.999s-51.333 -32 -88 -32s-66 10.667 -88 32s-33 49.666 -33 84.999h47c0 -20.667 6.83301 -37.334 20.5 -50.001s31.5 -19 53.5 -19s39.833 6.33301 53.5 19s20.5 29.334 20.5 50.001h47zM603 0h-62l-85 236h-304l-83 -236h-62
l254 708h86zM173 295h262l-131 369z" />
    <glyph glyph-name="abreve" unicode="&#x103;" horiz-adv-x="491" 
d="M367 690c0 -35.333 -11 -63.666 -33 -84.999s-51.333 -32 -88 -32s-66 10.667 -88 32s-33 49.666 -33 84.999h47c0 -20.667 6.83301 -37.334 20.5 -50.001s31.5 -19 53.5 -19s39.833 6.33301 53.5 19s20.5 29.334 20.5 50.001h47zM373 363
c0 18.667 -4.00391 34.8359 -12.0039 48.5029s-18.833 25.167 -32.5 34.5s-29 16.333 -46 21s-34.5 7 -52.5 7c-26 0 -51 -4.33301 -75 -13s-42.667 -21.667 -56 -39l-38 36c21.333 23.333 47.666 40.833 78.999 52.5s63.333 17.5 96 17.5c24.667 0 48.667 -3.5 72 -10.5
s44 -17.333 62 -31s32.333 -30.834 43 -51.501s16 -44.667 16 -72v-340c-64 -22 -130.667 -33 -200 -33h-12c-25.333 0 -49 3.33301 -71 10s-41.167 16.667 -57.5 30s-29.166 29.833 -38.499 49.5s-14 43.167 -14 70.5c0 29.333 5.83301 54.166 17.5 74.499
s26.834 37 45.501 50s39.834 22.5 63.501 28.5s47.834 9 72.501 9c24 0 47.833 -2.33301 71.5 -7s45.834 -11.334 66.501 -20.001v78zM236.996 264.002c-19.333 0 -37.668 -1.83203 -55.001 -5.49902s-32.666 -10 -45.999 -19s-24 -20.667 -32 -35s-12 -32.5 -12 -54.5
c0 -39.333 12.167 -67.333 36.5 -84s54.833 -25.334 91.5 -26.001h17c20 0 40 0.666992 60 2c26 2.66699 51.333 7 76 13v184c-17.333 6.66699 -38 12.5 -62 17.5s-48.667 7.5 -74 7.5z" />
    <glyph glyph-name="Aogonek" unicode="&#x104;" horiz-adv-x="608" 
d="M561 -244c-25.333 0 -45.3291 8.16602 -59.9961 24.499s-22 37.166 -22 62.499c0 10.667 2.16699 22.834 6.5 36.501s10.166 27.5 17.499 41.5s15.833 27.833 25.5 41.5s20.167 26.167 31.5 37.5h-20l-85 236h-304l-83 -236h-62l254 708h86l256 -708
c-26.667 -30 -45.334 -58.667 -56.001 -86c-10 -24 -15 -43.333 -15 -58v-5c0.666992 -11.333 4.33398 -20.5 11.001 -27.5s14.667 -11.5 24 -13.5c3.33301 -0.666992 6.66602 -1 9.99902 -1c6.66699 0 13.667 1.33301 21 4c11.333 4 22.333 11 33 21l16 -45
c-10.667 -9.33301 -22.834 -17.166 -36.501 -23.499s-29.834 -9.5 -48.501 -9.5zM172.004 294.999h262l-131 369z" />
    <glyph glyph-name="aogonek" unicode="&#x105;" horiz-adv-x="493" 
d="M373 363c0 18.667 -4.00391 34.8398 -12.0039 48.5068s-18.833 25.167 -32.5 34.5s-29 16.333 -46 21s-34.5 7 -52.5 7c-26 0 -51 -4.33301 -75 -13s-42.667 -21.667 -56 -39l-38 36c21.333 23.333 47.666 40.833 78.999 52.5s63.333 17.5 96 17.5
c24.667 0 48.667 -3.5 72 -10.5s44 -17.333 62 -31s32.333 -30.834 43 -51.501s16 -44.667 16 -72v-340c-18.667 -22 -34 -42 -46 -60s-21.333 -34 -28 -48s-11 -26.333 -13 -37s-2.66699 -19.667 -2 -27c0.666992 -11.333 4.33398 -20.5 11.001 -27.5
s14.667 -11.5 24 -13.5c3.33301 -0.666992 6.66602 -1 9.99902 -1c6.66699 0 13.667 1.33301 21 4c11.333 4 22.333 11 33 21l16 -45c-10.667 -9.33301 -22.834 -17.166 -36.501 -23.499s-29.834 -9.5 -48.501 -9.5c-25.333 0 -45.333 8.16699 -60 24.5
s-22 37.166 -22 62.499c0 11.333 2.33301 24.166 7 38.499s10.834 28.666 18.501 42.999s16.667 28.666 27 42.999s21.5 27.166 33.5 38.499l-1 1c-25.333 -6 -51.166 -10.333 -77.499 -13s-52.5 -4 -78.5 -4c-25.333 0 -49 3.33301 -71 10s-41.167 16.667 -57.5 30
s-29.166 29.833 -38.499 49.5s-14 43.167 -14 70.5c0 29.333 5.83301 54.166 17.5 74.499s26.834 37 45.501 50s39.834 22.5 63.501 28.5s47.834 9 72.501 9c24 0 47.833 -2.33301 71.5 -7s45.834 -11.334 66.501 -20.001v78zM236.996 264.006
c-19.333 0 -37.668 -1.83203 -55.001 -5.49902s-32.666 -10 -45.999 -19s-24 -20.667 -32 -35s-12 -32.5 -12 -54.5c0 -39.333 12.167 -67.333 36.5 -84s54.833 -25.334 91.5 -26.001h17c20 0 40 0.666992 60 2c26 2.66699 51.333 7 76 13v184
c-17.333 6.66699 -38 12.5 -62 17.5s-48.667 7.5 -74 7.5z" />
    <glyph glyph-name="Cacute" unicode="&#x106;" horiz-adv-x="593" 
d="M337 756h-58l69 113h80zM325 718c24.667 0 49.333 -2.66797 74 -8.00098s47.667 -13.166 69 -23.499s40.5 -23.5 57.5 -39.5s30.5 -34.667 40.5 -56l-53 -26v-1c-8 16 -18.667 29.833 -32 41.5s-28.5 21.5 -45.5 29.5s-35.167 14 -54.5 18s-39 6 -59 6
c-25.333 0 -50.333 -3.33301 -75 -10s-46.5 -16.5 -65.5 -29.5s-34.333 -29.167 -46 -48.5s-17.5 -42 -17.5 -68v-298c0 -26 5.83301 -48.833 17.5 -68.5s27 -36 46 -49s40.833 -22.667 65.5 -29s49.667 -9.5 75 -9.5c20 0 39.667 2 59 6s37.5 10 54.5 18
s32.167 17.833 45.5 29.5s24 25.5 32 41.5l53 -26c-10 -21.333 -23.667 -40 -41 -56s-36.833 -29.333 -58.5 -40s-44.834 -18.667 -69.501 -24s-49.667 -8 -75 -8c-33.333 0 -65.666 4.5 -96.999 13.5s-59.333 22.5 -84 40.5s-44.5 40.333 -59.5 67s-22.5 58 -22.5 94v298
c0 35.333 7.66699 66.5 23 93.5s35.5 49.5 60.5 67.5s53.333 31.5 85 40.5s64.167 13.5 97.5 13.5z" />
    <glyph glyph-name="cacute" unicode="&#x107;" horiz-adv-x="461" 
d="M260 576h-58l69 113h80zM248 474c-17.333 0 -34.499 -2.16602 -51.499 -6.49902s-32 -11 -45 -20s-23.5 -20.333 -31.5 -34s-12 -30.167 -12 -49.5v-210c0 -19.333 4 -35.833 12 -49.5s18.5 -25 31.5 -34s28 -15.667 45 -20s34.167 -6.5 51.5 -6.5
c30 0 58.167 6.5 84.5 19.5s43.5 33.167 51.5 60.5l51 -23c-6.66699 -18.667 -16.5 -35 -29.5 -49s-27.833 -25.5 -44.5 -34.5s-34.667 -15.833 -54 -20.5s-39 -7 -59 -7c-24 0 -47.833 3.5 -71.5 10.5s-44.667 17.5 -63 31.5s-33.166 31.5 -44.499 52.5s-17 45.5 -17 73.5
v202c0 28 5.66699 52.5 17 73.5s26.166 38.5 44.499 52.5s39.333 24.5 63 31.5s47.5 10.5 71.5 10.5c36 0 70.167 -7.33301 102.5 -22s57.166 -37 74.499 -67l-47 -28c-11.333 21.333 -29 37.166 -53 47.499s-49.667 15.5 -77 15.5z" />
    <glyph glyph-name="Cdotaccent" unicode="&#x10a;" horiz-adv-x="593" 
d="M280 813c0 13.333 4.66699 24.666 14 33.999s20.666 14 33.999 14s24.666 -4.66699 33.999 -14s14 -20.666 14 -33.999s-4.66699 -24.666 -14 -33.999s-20.666 -14 -33.999 -14s-24.666 4.66699 -33.999 14s-14 20.666 -14 33.999zM325 718
c24.667 0 49.333 -2.66797 74 -8.00098s47.667 -13.166 69 -23.499s40.5 -23.5 57.5 -39.5s30.5 -34.667 40.5 -56l-53 -26v-1c-8 16 -18.667 29.833 -32 41.5s-28.5 21.5 -45.5 29.5s-35.167 14 -54.5 18s-39 6 -59 6c-25.333 0 -50.333 -3.33301 -75 -10
s-46.5 -16.5 -65.5 -29.5s-34.333 -29.167 -46 -48.5s-17.5 -42 -17.5 -68v-298c0 -26 5.83301 -48.833 17.5 -68.5s27 -36 46 -49s40.833 -22.667 65.5 -29s49.667 -9.5 75 -9.5c20 0 39.667 2 59 6s37.5 10 54.5 18s32.167 17.833 45.5 29.5s24 25.5 32 41.5l53 -26
c-10 -21.333 -23.667 -40 -41 -56s-36.833 -29.333 -58.5 -40s-44.834 -18.667 -69.501 -24s-49.667 -8 -75 -8c-33.333 0 -65.666 4.5 -96.999 13.5s-59.333 22.5 -84 40.5s-44.5 40.333 -59.5 67s-22.5 58 -22.5 94v298c0 35.333 7.66699 66.5 23 93.5
s35.5 49.5 60.5 67.5s53.333 31.5 85 40.5s64.167 13.5 97.5 13.5z" />
    <glyph glyph-name="cdotaccent" unicode="&#x10b;" horiz-adv-x="461" 
d="M203 633c0 13.333 4.66699 24.666 14 33.999s20.666 14 33.999 14s24.666 -4.66699 33.999 -14s14 -20.666 14 -33.999s-4.66699 -24.666 -14 -33.999s-20.666 -14 -33.999 -14s-24.666 4.66699 -33.999 14s-14 20.666 -14 33.999zM248 474
c-17.333 0 -34.499 -2.16602 -51.499 -6.49902s-32 -11 -45 -20s-23.5 -20.333 -31.5 -34s-12 -30.167 -12 -49.5v-210c0 -19.333 4 -35.833 12 -49.5s18.5 -25 31.5 -34s28 -15.667 45 -20s34.167 -6.5 51.5 -6.5c30 0 58.167 6.5 84.5 19.5s43.5 33.167 51.5 60.5l51 -23
c-6.66699 -18.667 -16.5 -35 -29.5 -49s-27.833 -25.5 -44.5 -34.5s-34.667 -15.833 -54 -20.5s-39 -7 -59 -7c-24 0 -47.833 3.5 -71.5 10.5s-44.667 17.5 -63 31.5s-33.166 31.5 -44.499 52.5s-17 45.5 -17 73.5v202c0 28 5.66699 52.5 17 73.5s26.166 38.5 44.499 52.5
s39.333 24.5 63 31.5s47.5 10.5 71.5 10.5c36 0 70.167 -7.33301 102.5 -22s57.166 -37 74.499 -67l-47 -28c-11.333 21.333 -29 37.166 -53 47.499s-49.667 15.5 -77 15.5z" />
    <glyph glyph-name="Ccaron" unicode="&#x10c;" horiz-adv-x="593" 
d="M175 869h66l79 -76l74 76h67l-108 -113h-70zM325 718c24.667 0 49.333 -2.66797 74 -8.00098s47.667 -13.166 69 -23.499s40.5 -23.5 57.5 -39.5s30.5 -34.667 40.5 -56l-53 -26v-1c-8 16 -18.667 29.833 -32 41.5s-28.5 21.5 -45.5 29.5s-35.167 14 -54.5 18
s-39 6 -59 6c-25.333 0 -50.333 -3.33301 -75 -10s-46.5 -16.5 -65.5 -29.5s-34.333 -29.167 -46 -48.5s-17.5 -42 -17.5 -68v-298c0 -26 5.83301 -48.833 17.5 -68.5s27 -36 46 -49s40.833 -22.667 65.5 -29s49.667 -9.5 75 -9.5c20 0 39.667 2 59 6s37.5 10 54.5 18
s32.167 17.833 45.5 29.5s24 25.5 32 41.5l53 -26c-10 -21.333 -23.667 -40 -41 -56s-36.833 -29.333 -58.5 -40s-44.834 -18.667 -69.501 -24s-49.667 -8 -75 -8c-33.333 0 -65.666 4.5 -96.999 13.5s-59.333 22.5 -84 40.5s-44.5 40.333 -59.5 67s-22.5 58 -22.5 94v298
c0 35.333 7.66699 66.5 23 93.5s35.5 49.5 60.5 67.5s53.333 31.5 85 40.5s64.167 13.5 97.5 13.5z" />
    <glyph glyph-name="ccaron" unicode="&#x10d;" horiz-adv-x="461" 
d="M98 689h66l79 -76l74 76h67l-108 -113h-70zM248 474c-17.333 0 -34.499 -2.16602 -51.499 -6.49902s-32 -11 -45 -20s-23.5 -20.333 -31.5 -34s-12 -30.167 -12 -49.5v-210c0 -19.333 4 -35.833 12 -49.5s18.5 -25 31.5 -34s28 -15.667 45 -20s34.167 -6.5 51.5 -6.5
c30 0 58.167 6.5 84.5 19.5s43.5 33.167 51.5 60.5l51 -23c-6.66699 -18.667 -16.5 -35 -29.5 -49s-27.833 -25.5 -44.5 -34.5s-34.667 -15.833 -54 -20.5s-39 -7 -59 -7c-24 0 -47.833 3.5 -71.5 10.5s-44.667 17.5 -63 31.5s-33.166 31.5 -44.499 52.5s-17 45.5 -17 73.5
v202c0 28 5.66699 52.5 17 73.5s26.166 38.5 44.499 52.5s39.333 24.5 63 31.5s47.5 10.5 71.5 10.5c36 0 70.167 -7.33301 102.5 -22s57.166 -37 74.499 -67l-47 -28c-11.333 21.333 -29 37.166 -53 47.499s-49.667 15.5 -77 15.5z" />
    <glyph glyph-name="Dcaron" unicode="&#x10e;" horiz-adv-x="640" 
d="M168 869h66l79 -76l74 76h67l-108 -113h-70zM79 708h236c33.333 0 65.833 -4 97.5 -12s60 -20.333 85 -37s45 -38 60 -64s22.5 -57.333 22.5 -94v-295c0 -36 -7.5 -67 -22.5 -93s-35 -47.333 -60 -64s-53.333 -29 -85 -37s-64.167 -12 -97.5 -12h-236v708zM315 59
c26 0 51.333 2.66602 76 7.99902s46.667 14 66 26s34.833 27.333 46.5 46s17.5 41 17.5 67v295c0 26.667 -5.83301 49.334 -17.5 68.001s-27.167 34 -46.5 46s-41.333 20.667 -66 26s-50 8 -76 8h-177v-590h177z" />
    <glyph glyph-name="dcaron" unicode="&#x10f;" horiz-adv-x="524" 
d="M525 555h-39l25 153h50zM52 158l-0.000976562 201c0 27.333 5.66699 51.5 17 72.5s26.166 38.667 44.499 53s39.333 25 63 32s47.834 10.5 72.501 10.5c48.667 0 95.667 -10.333 141 -31v214h56v-685c-32 -11.333 -64.833 -20 -98.5 -26s-67.5 -9 -101.5 -9
c-24 0.666992 -47.667 4.5 -71 11.5s-44.166 17.5 -62.499 31.5s-33 31.333 -44 52s-16.5 45 -16.5 73zM247.999 471c-17.333 0 -34.498 -2.33203 -51.498 -6.99902s-32 -11.5 -45 -20.5s-23.333 -20.5 -31 -34.5s-11.5 -30.333 -11.5 -49v-204
c0 -18.667 3.83301 -34.834 11.5 -48.501s18 -25.167 31 -34.5s27.667 -16.333 44 -21s33.166 -7 50.499 -7c24 0 48.167 1.16699 72.5 3.5s48.166 7.5 71.499 15.5v378c-22 9.33301 -45.167 16.5 -69.5 21.5s-48.5 7.5 -72.5 7.5z" />
    <glyph glyph-name="Dcroat" unicode="&#x110;" horiz-adv-x="644" 
d="M83 708h236c33.333 0 65.833 -4 97.5 -12s60 -20.333 85 -37s45 -38 60 -64s22.5 -57.333 22.5 -94v-295c0 -36 -7.5 -67 -22.5 -93s-35 -47.333 -60 -64s-53.333 -29 -85 -37s-64.167 -12 -97.5 -12h-236v326h-63v50h63v332zM319 59c26 0 51.333 2.66602 76 7.99902
s46.667 14 66 26s34.833 27.333 46.5 46s17.5 41 17.5 67v295c0 26.667 -5.83301 49.334 -17.5 68.001s-27.167 34 -46.5 46s-41.333 20.667 -66 26s-50 8 -76 8h-177v-273h125v-50h-125v-267h177z" />
    <glyph glyph-name="dcroat" unicode="&#x111;" horiz-adv-x="512" 
d="M446 601l-0.000976562 -576c-32 -11.333 -64.833 -20 -98.5 -26s-67.5 -9 -101.5 -9c-24 0.666992 -47.667 4.5 -71 11.5s-44.166 17.5 -62.499 31.5s-33 31.333 -44 52s-16.5 45 -16.5 73v201c0 27.333 5.66699 51.5 17 72.5s26.166 38.667 44.499 53s39.333 25 63 32
s47.834 10.5 72.501 10.5c48.667 0 95.667 -10.333 141 -31v105h-117v43h117v66h56v-66h61v-43h-61zM247.999 471c-17.333 0 -34.498 -2.33203 -51.498 -6.99902s-32 -11.5 -45 -20.5s-23.333 -20.5 -31 -34.5s-11.5 -30.333 -11.5 -49v-204
c0 -18.667 3.83301 -34.834 11.5 -48.501s18 -25.167 31 -34.5s27.667 -16.333 44 -21s33.166 -7 50.499 -7c24 0 48.167 1.16699 72.5 3.5s48.166 7.5 71.499 15.5v378c-22 9.33301 -45.167 16.5 -69.5 21.5s-48.5 7.5 -72.5 7.5z" />
    <glyph glyph-name="Emacron" unicode="&#x112;" horiz-adv-x="569" 
d="M436 799h-247v58h247v-58zM138 384h355v-60h-355v-265h385v-59h-444v708h444v-59h-385v-265z" />
    <glyph glyph-name="emacron" unicode="&#x113;" 
d="M371 619h-247v58h247v-58zM109 156c0 -19.333 3.99902 -35.999 11.999 -49.999s18.5 -25.667 31.5 -35s27.833 -16.166 44.5 -20.499s34 -6.5 52 -6.5c28 0 54.333 5.66699 79 17s42.334 28.666 53.001 51.999l50 -23c-8 -16.667 -18.333 -31.334 -31 -44.001
s-27.167 -23.167 -43.5 -31.5s-33.666 -14.5 -51.999 -18.5s-36.833 -6 -55.5 -6c-24.667 0 -48.834 3.5 -72.501 10.5s-44.667 17.5 -63 31.5s-33.166 31.5 -44.499 52.5s-17 45.5 -17 73.5v202c0 28 5.66699 52.5 17 73.5s26.166 38.5 44.499 52.5s39.333 24.5 63 31.5
s47.834 10.5 72.501 10.5c24 0 47.833 -3.5 71.5 -10.5s44.667 -17.5 63 -31.5s33.166 -31.5 44.499 -52.5s17 -45.5 17 -73.5v-126h-336v-78zM388.999 364.001c0 18.667 -4 35 -12 49s-18.5 25.5 -31.5 34.5s-28 15.667 -45 20s-34.167 6.5 -51.5 6.5
c-18 0 -35.333 -2.16699 -52 -6.5s-31.667 -11 -45 -20s-23.833 -20.5 -31.5 -34.5s-11.5 -30.333 -11.5 -49v-83h280v83z" />
    <glyph glyph-name="Edotaccent" unicode="&#x116;" horiz-adv-x="569" 
d="M269 813c0 13.333 4.66699 24.666 14 33.999s20.666 14 33.999 14s24.666 -4.66699 33.999 -14s14 -20.666 14 -33.999s-4.66699 -24.666 -14 -33.999s-20.666 -14 -33.999 -14s-24.666 4.66699 -33.999 14s-14 20.666 -14 33.999zM138 384h355v-60h-355v-265h385v-59
h-444v708h444v-59h-385v-265z" />
    <glyph glyph-name="edotaccent" unicode="&#x117;" 
d="M204 633c0 13.333 4.66699 24.666 14 33.999s20.666 14 33.999 14s24.666 -4.66699 33.999 -14s14 -20.666 14 -33.999s-4.66699 -24.666 -14 -33.999s-20.666 -14 -33.999 -14s-24.666 4.66699 -33.999 14s-14 20.666 -14 33.999zM109 156
c0 -19.333 3.99902 -35.999 11.999 -49.999s18.5 -25.667 31.5 -35s27.833 -16.166 44.5 -20.499s34 -6.5 52 -6.5c28 0 54.333 5.66699 79 17s42.334 28.666 53.001 51.999l50 -23c-8 -16.667 -18.333 -31.334 -31 -44.001s-27.167 -23.167 -43.5 -31.5
s-33.666 -14.5 -51.999 -18.5s-36.833 -6 -55.5 -6c-24.667 0 -48.834 3.5 -72.501 10.5s-44.667 17.5 -63 31.5s-33.166 31.5 -44.499 52.5s-17 45.5 -17 73.5v202c0 28 5.66699 52.5 17 73.5s26.166 38.5 44.499 52.5s39.333 24.5 63 31.5s47.834 10.5 72.501 10.5
c24 0 47.833 -3.5 71.5 -10.5s44.667 -17.5 63 -31.5s33.166 -31.5 44.499 -52.5s17 -45.5 17 -73.5v-126h-336v-78zM388.999 364.001c0 18.667 -4 35 -12 49s-18.5 25.5 -31.5 34.5s-28 15.667 -45 20s-34.167 6.5 -51.5 6.5c-18 0 -35.333 -2.16699 -52 -6.5
s-31.667 -11 -45 -20s-23.833 -20.5 -31.5 -34.5s-11.5 -30.333 -11.5 -49v-83h280v83z" />
    <glyph glyph-name="Eogonek" unicode="&#x118;" horiz-adv-x="568" 
d="M481 -244c-25.333 0 -45.3291 8.16602 -59.9961 24.499s-22 37.166 -22 62.499c0 10.667 2.16699 22.834 6.5 36.501s10.166 27.5 17.499 41.5s15.833 27.833 25.5 41.5s20.167 26.167 31.5 37.5h-402v708h444v-59h-385v-265h355v-60h-355v-265h385v-59
c-26.667 -30 -45.334 -58.667 -56.001 -86c-10 -24 -15 -43.333 -15 -58v-5c0.666992 -11.333 4.33398 -20.5 11.001 -27.5s14.667 -11.5 24 -13.5c3.33301 -0.666992 6.66602 -1 9.99902 -1c6.66699 0 13.667 1.33301 21 4c11.333 4 22.333 11 33 21l16 -45
c-10.667 -9.33301 -22.834 -17.166 -36.501 -23.499s-29.834 -9.5 -48.501 -9.5z" />
    <glyph glyph-name="eogonek" unicode="&#x119;" 
d="M109 156c0 -19.333 4.00195 -35.998 12.002 -49.998s18.5 -25.667 31.5 -35s27.833 -16.166 44.5 -20.499s34 -6.5 52 -6.5c28 0 54.333 5.66699 79 17s42.334 28.666 53.001 51.999l50 -23c-3.33301 -7.33301 -6.83301 -14 -10.5 -20s-8.66699 -12.333 -15 -19
s-14.5 -14.334 -24.5 -23.001l-37 -31c-15.333 -12 -27.666 -25 -36.999 -39s-16.833 -27.667 -22.5 -41s-9.33398 -25.833 -11.001 -37.5s-2.16699 -21.167 -1.5 -28.5c0.666992 -11.333 4.33398 -20.5 11.001 -27.5s14.667 -11.5 24 -13.5
c3.33301 -0.666992 6.66602 -1 9.99902 -1c6.66699 0 13.667 1.33301 21 4c11.333 4 22.333 11 33 21l16 -45c-10.667 -9.33301 -22.834 -17.166 -36.501 -23.499s-29.834 -9.5 -48.501 -9.5c-25.333 0 -45.333 8.16699 -60 24.5s-22 37.166 -22 62.499
c0 21.333 5.83301 44.666 17.5 69.999s31.167 52.333 58.5 81c-8 -1.33301 -15.833 -2.33301 -23.5 -3s-15.5 -1 -23.5 -1c-24.667 0 -48.834 3.5 -72.501 10.5s-44.667 17.5 -63 31.5s-33.166 31.5 -44.499 52.5s-17 45.5 -17 73.5v202c0 28 5.66699 52.5 17 73.5
s26.166 38.5 44.499 52.5s39.333 24.5 63 31.5s47.834 10.5 72.501 10.5c24 0 47.833 -3.5 71.5 -10.5s44.667 -17.5 63 -31.5s33.166 -31.5 44.499 -52.5s17 -45.5 17 -73.5v-133h-336v-71zM249.002 474.002c-18 0 -35.333 -2.16699 -52 -6.5s-31.667 -11 -45 -20
s-23.833 -20.5 -31.5 -34.5s-11.5 -30.333 -11.5 -49v-88h280v88c0 18.667 -4 35 -12 49s-18.5 25.5 -31.5 34.5s-28 15.667 -45 20s-34.167 6.5 -51.5 6.5z" />
    <glyph glyph-name="Ecaron" unicode="&#x11a;" horiz-adv-x="569" 
d="M164 869h66l79 -76l74 76h67l-108 -113h-70zM138 384h355v-60h-355v-265h385v-59h-444v708h444v-59h-385v-265z" />
    <glyph glyph-name="ecaron" unicode="&#x11b;" 
d="M99 689h66l79 -76l74 76h67l-108 -113h-70zM109 156c0 -19.333 3.99902 -35.999 11.999 -49.999s18.5 -25.667 31.5 -35s27.833 -16.166 44.5 -20.499s34 -6.5 52 -6.5c28 0 54.333 5.66699 79 17s42.334 28.666 53.001 51.999l50 -23
c-8 -16.667 -18.333 -31.334 -31 -44.001s-27.167 -23.167 -43.5 -31.5s-33.666 -14.5 -51.999 -18.5s-36.833 -6 -55.5 -6c-24.667 0 -48.834 3.5 -72.501 10.5s-44.667 17.5 -63 31.5s-33.166 31.5 -44.499 52.5s-17 45.5 -17 73.5v202c0 28 5.66699 52.5 17 73.5
s26.166 38.5 44.499 52.5s39.333 24.5 63 31.5s47.834 10.5 72.501 10.5c24 0 47.833 -3.5 71.5 -10.5s44.667 -17.5 63 -31.5s33.166 -31.5 44.499 -52.5s17 -45.5 17 -73.5v-126h-336v-78zM388.999 364.001c0 18.667 -4 35 -12 49s-18.5 25.5 -31.5 34.5
s-28 15.667 -45 20s-34.167 6.5 -51.5 6.5c-18 0 -35.333 -2.16699 -52 -6.5s-31.667 -11 -45 -20s-23.833 -20.5 -31.5 -34.5s-11.5 -30.333 -11.5 -49v-83h280v83z" />
    <glyph glyph-name="Gbreve" unicode="&#x11e;" horiz-adv-x="634" 
d="M445 869c0 -35.333 -11 -63.666 -33 -84.999s-51.333 -32 -88 -32s-66 10.667 -88 32s-33 49.666 -33 84.999h47c0 -20.667 6.83301 -37.334 20.5 -50.001s31.5 -19 53.5 -19s39.833 6.33301 53.5 19s20.5 29.334 20.5 50.001h47zM324 718
c24.667 0 49.3301 -2.66699 73.9971 -8s47.667 -13.333 69 -24s40.5 -24 57.5 -40s30.5 -34.667 40.5 -56l-53 -26c-8 16 -18.667 29.833 -32 41.5s-28.333 21.5 -45 29.5s-34.667 14 -54 18s-39 6 -59 6c-25.333 0 -50.333 -3.33301 -75 -10s-46.5 -16.5 -65.5 -29.5
s-34.333 -29.167 -46 -48.5s-17.5 -42 -17.5 -68v-296c0 -26 5.83301 -49 17.5 -69s27.334 -36.5 47.001 -49.5s41.834 -22.833 66.501 -29.5s50 -10 76 -10s51.333 3.33301 76 10s46.667 16.5 66 29.5s34.833 29.5 46.5 49.5s17.5 43 17.5 69v89h-217v59h276v-147
c0 -36 -7.66699 -67.667 -23 -95s-35.333 -50.166 -60 -68.499s-53 -32 -85 -41s-64.333 -13.5 -97 -13.5c-33.333 0 -65.833 4.5 -97.5 13.5s-60 22.667 -85 41s-45.167 41.166 -60.5 68.499s-23 59 -23 95v295c0 35.333 7.66699 66.5 23 93.5s35.333 49.5 60 67.5
s52.834 31.5 84.501 40.5s64.167 13.5 97.5 13.5z" />
    <glyph glyph-name="gbreve" unicode="&#x11f;" horiz-adv-x="507" 
d="M384 689c0 -35.333 -11 -63.666 -33 -84.999s-51.333 -32 -88 -32s-66 10.667 -88 32s-33 49.666 -33 84.999h47c0 -20.667 6.83301 -37.334 20.5 -50.001s31.5 -19 53.5 -19s39.833 6.33301 53.5 19s20.5 29.334 20.5 50.001h47zM245 -155
c18.667 0 36.668 2.49902 54.001 7.49902s32.333 12.5 45 22.5s22.834 22.5 30.501 37.5s11.5 32.5 11.5 52.5v56c-22 -11.333 -44.667 -19.333 -68 -24s-47 -7 -71 -7c-24.667 0 -48.667 3.5 -72 10.5s-44.166 17.5 -62.499 31.5s-33 31.5 -44 52.5
s-16.5 45.167 -16.5 72.5v205c0 27.333 5.5 51.333 16.5 72s25.333 38 43 52s38 24.5 61 31.5s46.5 10.5 70.5 10.5c23.333 0 47.166 -2.16699 71.499 -6.5s48.166 -9.83301 71.499 -16.5l55 -17v-522c0 -28 -5.5 -52.667 -16.5 -74s-25.5 -39.333 -43.5 -54
s-38.667 -25.667 -62 -33s-47.666 -11 -72.999 -11c-32 0 -63 5.33301 -93 16s-55.667 27.334 -77 50.001l35 33c15.333 -16 35.166 -28 59.499 -36s49.166 -12 74.499 -12zM243.001 473.999c-17.333 0 -33.9971 -2.33398 -49.9971 -7.00098s-30.333 -11.5 -43 -20.5
s-22.834 -20.333 -30.501 -34s-11.5 -29.834 -11.5 -48.501v-211c0 -18 3.83301 -34 11.5 -48s18 -25.5 31 -34.5s27.667 -15.833 44 -20.5s33.166 -7 50.499 -7c23.333 0.666992 47.166 3.33398 71.499 8.00098s47.5 11.667 69.5 21v372
c-15.333 6.66699 -36 13.334 -62 20.001s-53 10 -81 10z" />
    <glyph glyph-name="Gdotaccent" unicode="&#x120;" horiz-adv-x="634" 
d="M279 813c0 13.333 4.66699 24.666 14 33.999s20.666 14 33.999 14s24.666 -4.66699 33.999 -14s14 -20.666 14 -33.999s-4.66699 -24.666 -14 -33.999s-20.666 -14 -33.999 -14s-24.666 4.66699 -33.999 14s-14 20.666 -14 33.999zM324 718
c24.667 0 49.3301 -2.66699 73.9971 -8s47.667 -13.333 69 -24s40.5 -24 57.5 -40s30.5 -34.667 40.5 -56l-53 -26c-8 16 -18.667 29.833 -32 41.5s-28.333 21.5 -45 29.5s-34.667 14 -54 18s-39 6 -59 6c-25.333 0 -50.333 -3.33301 -75 -10s-46.5 -16.5 -65.5 -29.5
s-34.333 -29.167 -46 -48.5s-17.5 -42 -17.5 -68v-296c0 -26 5.83301 -49 17.5 -69s27.334 -36.5 47.001 -49.5s41.834 -22.833 66.501 -29.5s50 -10 76 -10s51.333 3.33301 76 10s46.667 16.5 66 29.5s34.833 29.5 46.5 49.5s17.5 43 17.5 69v89h-217v59h276v-147
c0 -36 -7.66699 -67.667 -23 -95s-35.333 -50.166 -60 -68.499s-53 -32 -85 -41s-64.333 -13.5 -97 -13.5c-33.333 0 -65.833 4.5 -97.5 13.5s-60 22.667 -85 41s-45.167 41.166 -60.5 68.499s-23 59 -23 95v295c0 35.333 7.66699 66.5 23 93.5s35.333 49.5 60 67.5
s52.834 31.5 84.501 40.5s64.167 13.5 97.5 13.5z" />
    <glyph glyph-name="gdotaccent" unicode="&#x121;" horiz-adv-x="507" 
d="M218 633c0 13.333 4.66699 24.666 14 33.999s20.666 14 33.999 14s24.666 -4.66699 33.999 -14s14 -20.666 14 -33.999s-4.66699 -24.666 -14 -33.999s-20.666 -14 -33.999 -14s-24.666 4.66699 -33.999 14s-14 20.666 -14 33.999zM245 -155
c18.667 0 36.668 2.49902 54.001 7.49902s32.333 12.5 45 22.5s22.834 22.5 30.501 37.5s11.5 32.5 11.5 52.5v56c-22 -11.333 -44.667 -19.333 -68 -24s-47 -7 -71 -7c-24.667 0 -48.667 3.5 -72 10.5s-44.166 17.5 -62.499 31.5s-33 31.5 -44 52.5
s-16.5 45.167 -16.5 72.5v205c0 27.333 5.5 51.333 16.5 72s25.333 38 43 52s38 24.5 61 31.5s46.5 10.5 70.5 10.5c23.333 0 47.166 -2.16699 71.499 -6.5s48.166 -9.83301 71.499 -16.5l55 -17v-522c0 -28 -5.5 -52.667 -16.5 -74s-25.5 -39.333 -43.5 -54
s-38.667 -25.667 -62 -33s-47.666 -11 -72.999 -11c-32 0 -63 5.33301 -93 16s-55.667 27.334 -77 50.001l35 33c15.333 -16 35.166 -28 59.499 -36s49.166 -12 74.499 -12zM243.001 473.999c-17.333 0 -33.9971 -2.33398 -49.9971 -7.00098s-30.333 -11.5 -43 -20.5
s-22.834 -20.333 -30.501 -34s-11.5 -29.834 -11.5 -48.501v-211c0 -18 3.83301 -34 11.5 -48s18 -25.5 31 -34.5s27.667 -15.833 44 -20.5s33.166 -7 50.499 -7c23.333 0.666992 47.166 3.33398 71.499 8.00098s47.5 11.667 69.5 21v372
c-15.333 6.66699 -36 13.334 -62 20.001s-53 10 -81 10z" />
    <glyph glyph-name="Gcommaaccent" unicode="&#x122;" horiz-adv-x="634" 
d="M303 -242h-58l50 166h69zM324 718c24.667 0 49.3301 -2.66699 73.9971 -8s47.667 -13.333 69 -24s40.5 -24 57.5 -40s30.5 -34.667 40.5 -56l-53 -26c-8 16 -18.667 29.833 -32 41.5s-28.333 21.5 -45 29.5s-34.667 14 -54 18s-39 6 -59 6
c-25.333 0 -50.333 -3.33301 -75 -10s-46.5 -16.5 -65.5 -29.5s-34.333 -29.167 -46 -48.5s-17.5 -42 -17.5 -68v-296c0 -26 5.83301 -49 17.5 -69s27.334 -36.5 47.001 -49.5s41.834 -22.833 66.501 -29.5s50 -10 76 -10s51.333 3.33301 76 10s46.667 16.5 66 29.5
s34.833 29.5 46.5 49.5s17.5 43 17.5 69v89h-217v59h276v-147c0 -36 -7.66699 -67.667 -23 -95s-35.333 -50.166 -60 -68.499s-53 -32 -85 -41s-64.333 -13.5 -97 -13.5c-33.333 0 -65.833 4.5 -97.5 13.5s-60 22.667 -85 41s-45.167 41.166 -60.5 68.499s-23 59 -23 95v295
c0 35.333 7.66699 66.5 23 93.5s35.333 49.5 60 67.5s52.834 31.5 84.501 40.5s64.167 13.5 97.5 13.5z" />
    <glyph glyph-name="gcommaaccent" unicode="&#x123;" horiz-adv-x="507" 
d="M270 708h59l-37 -128h-70zM245 -155c18.667 0 36.668 2.49902 54.001 7.49902s32.333 12.5 45 22.5s22.834 22.5 30.501 37.5s11.5 32.5 11.5 52.5v56c-22 -11.333 -44.667 -19.333 -68 -24s-47 -7 -71 -7c-24.667 0 -48.667 3.5 -72 10.5s-44.166 17.5 -62.499 31.5
s-33 31.5 -44 52.5s-16.5 45.167 -16.5 72.5v205c0 27.333 5.5 51.333 16.5 72s25.333 38 43 52s38 24.5 61 31.5s46.5 10.5 70.5 10.5c23.333 0 47.166 -2.16699 71.499 -6.5s48.166 -9.83301 71.499 -16.5l55 -17v-522c0 -28 -5.5 -52.667 -16.5 -74
s-25.5 -39.333 -43.5 -54s-38.667 -25.667 -62 -33s-47.666 -11 -72.999 -11c-32 0 -63 5.33301 -93 16s-55.667 27.334 -77 50.001l35 33c15.333 -16 35.166 -28 59.499 -36s49.166 -12 74.499 -12zM243.001 473.999c-17.333 0 -33.9971 -2.33398 -49.9971 -7.00098
s-30.333 -11.5 -43 -20.5s-22.834 -20.333 -30.501 -34s-11.5 -29.834 -11.5 -48.501v-211c0 -18 3.83301 -34 11.5 -48s18 -25.5 31 -34.5s27.667 -15.833 44 -20.5s33.166 -7 50.499 -7c23.333 0.666992 47.166 3.33398 71.499 8.00098s47.5 11.667 69.5 21v372
c-15.333 6.66699 -36 13.334 -62 20.001s-53 10 -81 10z" />
    <glyph glyph-name="Hbar" unicode="&#x126;" horiz-adv-x="699" 
d="M615 523v-523h-59v327h-413v-327h-59v523h-65v48h65v137h59v-137h413v137h59v-137h65v-48h-65zM143 523v-140h413v140h-413z" />
    <glyph glyph-name="hbar" unicode="&#x127;" horiz-adv-x="525" 
d="M264 528c24.667 0 48.668 -3.66797 72.001 -11.001s44.166 -18 62.499 -32s33.166 -31.333 44.499 -52s17 -44.667 17 -72v-361h-56v364c0 18.667 -4 34.834 -12 48.501s-18.5 25 -31.5 34s-27.833 15.833 -44.5 20.5s-33.667 7 -51 7
c-48.667 0 -95.667 -9.33301 -141 -28v-446h-56v601h-71v43h71v64h56v-64h127v-43h-127v-104c44.667 20.667 91.334 31 140.001 31z" />
    <glyph glyph-name="Imacron" unicode="&#x12a;" horiz-adv-x="217" 
d="M9 839h194v-53h-194v53zM138 0h-59v708h59v-708z" />
    <glyph glyph-name="imacron" unicode="&#x12b;" horiz-adv-x="196" 
d="M1 669h194v-53h-194v53zM128 0h-60v518h60v-518z" />
    <glyph glyph-name="Iogonek" unicode="&#x12e;" horiz-adv-x="217" 
d="M97 -244c-25.333 0 -45.3291 8.16602 -59.9961 24.499s-22 37.166 -22 62.499c0 10.667 2.16699 22.834 6.5 36.501s10.166 27.5 17.499 41.5s15.833 27.833 25.5 41.5s20.167 26.167 31.5 37.5h-17v708h59v-708c-26.667 -30 -45.334 -58.667 -56.001 -86
c-10 -24 -15 -43.333 -15 -58v-5c0.666992 -11.333 4.33398 -20.5 11.001 -27.5s14.667 -11.5 24 -13.5c3.33301 -0.666992 6.66602 -1 9.99902 -1c6.66699 0 13.667 1.33301 21 4c11.333 4 22.333 11 33 21l16 -45c-10.667 -9.33301 -22.834 -17.166 -36.501 -23.499
s-29.834 -9.5 -48.501 -9.5z" />
    <glyph glyph-name="iogonek" unicode="&#x12f;" horiz-adv-x="192" 
d="M83 -244c-25.333 0 -45.3291 8.16602 -59.9961 24.499s-22 37.166 -22 62.499c0 10.667 2.16699 22.834 6.5 36.501s10.166 27.5 17.499 41.5s15.833 27.833 25.5 41.5s20.167 26.167 31.5 37.5h-14v518h56v-518c-26.667 -30 -45.334 -58.667 -56.001 -86
c-10 -24 -15 -43.333 -15 -58v-5c0.666992 -11.333 4.33398 -20.5 11.001 -27.5s14.667 -11.5 24 -13.5c3.33301 -0.666992 6.66602 -1 9.99902 -1c6.66699 0 13.667 1.33301 21 4c11.333 4 22.333 11 33 21l16 -45c-10.667 -9.33301 -22.834 -17.166 -36.501 -23.499
s-29.834 -9.5 -48.501 -9.5zM51.0039 644.999c0 13.333 4.66699 24.666 14 33.999s20.666 14 33.999 14s24.666 -4.66699 33.999 -14s14 -20.666 14 -33.999s-4.66699 -24.666 -14 -33.999s-20.666 -14 -33.999 -14s-24.666 4.66699 -33.999 14s-14 20.666 -14 33.999z" />
    <glyph glyph-name="Idotaccent" unicode="&#x130;" horiz-adv-x="217" 
d="M64 813c0 13.333 4.66699 24.666 14 33.999s20.666 14 33.999 14s24.666 -4.66699 33.999 -14s14 -20.666 14 -33.999s-4.66699 -24.666 -14 -33.999s-20.666 -14 -33.999 -14s-24.666 4.66699 -33.999 14s-14 20.666 -14 33.999zM138 0h-59v708h59v-708z" />
    <glyph glyph-name="dotlessi" unicode="&#x131;" horiz-adv-x="196" 
d="M128 0h-60v518h60v-518z" />
    <glyph glyph-name="IJ" unicode="&#x132;" horiz-adv-x="810" 
d="M441 708l295.001 -0.00292969v-504c0 -35.333 -7.33301 -66.333 -22 -93s-34 -49 -58 -67s-51.167 -31.5 -81.5 -40.5s-61.5 -13.5 -93.5 -13.5c-28 0 -55.5 3.66699 -82.5 11s-51.667 18.333 -74 33s-41.5 32.834 -57.5 54.501s-26.667 46.834 -32 75.501l58 14
c4 -21.333 12.167 -40.166 24.5 -56.499s27.166 -29.833 44.499 -40.5s36.5 -18.667 57.5 -24s42.5 -8 64.5 -8c24 0 47.667 3.33301 71 10s44 16.5 62 29.5s32.5 29.5 43.5 49.5s16.5 43 16.5 69v442h-236v59zM138.001 -0.00292969h-59v708h59v-708z" />
    <glyph glyph-name="ij" unicode="&#x133;" horiz-adv-x="384" 
d="M157 -136c36 0 62.166 10 78.499 30s24.5 48 24.5 84v540h56v-540c0 -52.667 -13.667 -94.167 -41 -124.5s-66.666 -45.5 -117.999 -45.5v56zM242.999 645c0 13.333 4.66699 24.666 14 33.999s20.666 14 33.999 14s24.666 -4.66699 33.999 -14s14 -20.666 14 -33.999
s-4.66699 -24.666 -14 -33.999s-20.666 -14 -33.999 -14s-24.666 4.66699 -33.999 14s-14 20.666 -14 33.999zM50.999 645c0 13.333 4.66699 24.666 14 33.999s20.666 14 33.999 14s24.666 -4.66699 33.999 -14s14 -20.666 14 -33.999s-4.66699 -24.666 -14 -33.999
s-20.666 -14 -33.999 -14s-24.666 4.66699 -33.999 14s-14 20.666 -14 33.999zM123.999 0h-60v518h60v-518z" />
    <glyph glyph-name="Kcommaaccent" unicode="&#x136;" horiz-adv-x="616" 
d="M318 -234h-52l45 150h62zM138 0h-59v708h59v-389l396 389h76l-341 -341l339 -367h-76l-305 325l-89 -89v-236z" />
    <glyph glyph-name="kcommaaccent" unicode="&#x137;" horiz-adv-x="483" 
d="M236 -234h-52l45 150h62zM124 0h-56v708h56v-462l273 272h70l-232 -234l230 -284h-69l-200 244l-72 -72v-172z" />
    <glyph glyph-name="Lacute" unicode="&#x139;" horiz-adv-x="508" 
d="M121 756h-58l69 113h80zM79 0v708h59v-649h354v-59h-413z" />
    <glyph glyph-name="lacute" unicode="&#x13a;" horiz-adv-x="229" 
d="M105 756h-58l69 113h80zM223 -10c-50.667 0 -89.666 14.334 -116.999 43.001s-41 69 -41 121v554h56v-554c0 -34.667 8.16699 -61.334 24.5 -80.001s42.166 -28 77.499 -28v-56z" />
    <glyph glyph-name="Lcommaaccent" unicode="&#x13b;" horiz-adv-x="508" 
d="M275 -242h-58l50 166h69zM79 0v708h59v-649h354v-59h-413z" />
    <glyph glyph-name="lcommaaccent" unicode="&#x13c;" horiz-adv-x="229" 
d="M131 -234h-52l45 150h62zM223 -10c-50.667 0 -89.666 14.334 -116.999 43.001s-41 69 -41 121v554h56v-554c0 -34.667 8.16699 -61.334 24.5 -80.001s42.166 -28 77.499 -28v-56z" />
    <glyph glyph-name="Lcaron" unicode="&#x13d;" horiz-adv-x="508" 
d="M346 518h-59l53 190h70zM79 0v708h59v-649h354v-59h-413z" />
    <glyph glyph-name="lcaron" unicode="&#x13e;" horiz-adv-x="240" 
d="M213 543h-44l36 156h54zM223 -10c-50.667 0 -89.666 14.334 -116.999 43.001s-41 69 -41 121v554h56v-554c0 -34.667 8.16699 -61.334 24.5 -80.001s42.166 -28 77.499 -28v-56z" />
    <glyph glyph-name="Ldot" unicode="&#x13f;" horiz-adv-x="511" 
d="M273 356c0 13.333 4.66699 24.666 14 33.999s20.666 14 33.999 14s24.666 -4.66699 33.999 -14s14 -20.666 14 -33.999s-4.66699 -24.666 -14 -33.999s-20.666 -14 -33.999 -14s-24.666 4.66699 -33.999 14s-14 20.666 -14 33.999zM79 0v708h59v-649h354v-59h-413z" />
    <glyph glyph-name="ldot" unicode="&#x140;" horiz-adv-x="251" 
d="M175 355c0 13.333 4.66699 24.666 14 33.999s20.666 14 33.999 14s24.666 -4.66699 33.999 -14s14 -20.666 14 -33.999s-4.66699 -24.666 -14 -33.999s-20.666 -14 -33.999 -14s-24.666 4.66699 -33.999 14s-14 20.666 -14 33.999zM223 -10
c-50.667 0 -89.666 14.334 -116.999 43.001s-41 69 -41 121v554h56v-554c0 -34.667 8.16699 -61.334 24.5 -80.001s42.166 -28 77.499 -28v-56z" />
    <glyph glyph-name="Lslash" unicode="&#x141;" horiz-adv-x="520" 
d="M504 0h-413v299l-67 -34l-20 37l87 45v361h59v-331l117 60l20 -37l-137 -70v-271h354v-59z" />
    <glyph glyph-name="lslash" unicode="&#x142;" horiz-adv-x="258" 
d="M141 154c0 -34.667 8.16797 -61.333 24.501 -80s42.166 -28 77.499 -28v-56c-50.667 0 -89.667 14.333 -117 43s-41 69 -41 121v118l-60 -34l-19 37l79 46v387h56v-355l82 48l19 -39l-101 -58v-150z" />
    <glyph glyph-name="Nacute" unicode="&#x143;" horiz-adv-x="689" 
d="M367 756h-58l69 113h80zM551 708h59v-708h-88l-384 617v-617h-59v708h72l400 -643v643z" />
    <glyph glyph-name="nacute" unicode="&#x144;" horiz-adv-x="522" 
d="M277 576h-58l69 113h80zM457 361v-360.997h-56v363c0 18.667 -4 35 -12 49s-18.5 25.667 -31.5 35s-27.5 16.166 -43.5 20.499s-32.333 6.5 -49 6.5c-28 0 -55 -3.33301 -81 -10s-46.667 -13.334 -62 -20.001v-444h-56v487c32 11.333 64.667 21 98 29s67 12 101 12
c24 -0.666992 47.5 -4.5 70.5 -11.5s43.5 -17.333 61.5 -31s32.5 -30.834 43.5 -51.501s16.5 -45 16.5 -73z" />
    <glyph glyph-name="Ncommaaccent" unicode="&#x145;" horiz-adv-x="689" 
d="M323 -242h-58l50 166h69zM551 708h59v-708h-88l-384 617v-617h-59v708h72l400 -643v643z" />
    <glyph glyph-name="ncommaaccent" unicode="&#x146;" horiz-adv-x="522" 
d="M239 -242h-58l50 166h69zM457 361v-360.997h-56v363c0 18.667 -4 35 -12 49s-18.5 25.667 -31.5 35s-27.5 16.166 -43.5 20.499s-32.333 6.5 -49 6.5c-28 0 -55 -3.33301 -81 -10s-46.667 -13.334 -62 -20.001v-444h-56v487c32 11.333 64.667 21 98 29s67 12 101 12
c24 -0.666992 47.5 -4.5 70.5 -11.5s43.5 -17.333 61.5 -31s32.5 -30.834 43.5 -51.501s16.5 -45 16.5 -73z" />
    <glyph glyph-name="Ncaron" unicode="&#x147;" horiz-adv-x="689" 
d="M195 869h66l79 -76l74 76h67l-108 -113h-70zM551 708h59v-708h-88l-384 617v-617h-59v708h72l400 -643v643z" />
    <glyph glyph-name="ncaron" unicode="&#x148;" horiz-adv-x="522" 
d="M115 689h66l79 -76l74 76h67l-108 -113h-70zM457 361v-360.997h-56v363c0 18.667 -4 35 -12 49s-18.5 25.667 -31.5 35s-27.5 16.166 -43.5 20.499s-32.333 6.5 -49 6.5c-28 0 -55 -3.33301 -81 -10s-46.667 -13.334 -62 -20.001v-444h-56v487c32 11.333 64.667 21 98 29
s67 12 101 12c24 -0.666992 47.5 -4.5 70.5 -11.5s43.5 -17.333 61.5 -31s32.5 -30.834 43.5 -51.501s16.5 -45 16.5 -73z" />
    <glyph glyph-name="Eng" unicode="&#x14a;" horiz-adv-x="688" 
d="M609 -22c0 -52.667 -15.333 -94.167 -46 -124.5s-71.667 -45.5 -123 -45.5v56c36 0 63.833 10 83.5 30s29.5 48 29.5 84v22h-32l-384 617v-617h-59v708h72l400 -643v643h59v-730z" />
    <glyph glyph-name="eng" unicode="&#x14b;" horiz-adv-x="521" 
d="M456 361v-382.997c0 -52.667 -15.333 -94.167 -46 -124.5s-71.667 -45.5 -123 -45.5v56c36 0 63.833 10 83.5 30s29.5 48 29.5 84v385c0 18.667 -4 35 -12 49s-18.5 25.667 -31.5 35s-27.5 16.166 -43.5 20.499s-32.333 6.5 -49 6.5c-28 0 -55 -3.33301 -81 -10
s-46.667 -13.334 -62 -20.001v-444h-56v487c32 11.333 64.667 21 98 29s67 12 101 12c24 -0.666992 47.5 -4.5 70.5 -11.5s43.5 -17.333 61.5 -31s32.5 -30.834 43.5 -51.501s16.5 -45 16.5 -73z" />
    <glyph glyph-name="Omacron" unicode="&#x14c;" horiz-adv-x="677" 
d="M461 799h-247v58h247v-58zM58 500c0 36 8 67.667 24 95s37.167 50.166 63.5 68.499s56.333 32 90 41s68.167 13.5 103.5 13.5c34.667 0 68.834 -4.5 102.501 -13.5s63.667 -22.667 90 -41s47.5 -41.166 63.5 -68.499s24 -59 24 -95v-292c0 -36 -8 -67.667 -24 -95
s-37.167 -50.166 -63.5 -68.499s-56.333 -32 -90 -41s-67.834 -13.5 -102.501 -13.5c-35.333 0 -69.833 4.5 -103.5 13.5s-63.667 22.667 -90 41s-47.5 41.166 -63.5 68.499s-24 59 -24 95v292zM117 208c0 -26.667 6.33105 -49.834 18.998 -69.501s29.5 -36.167 50.5 -49.5
s44.667 -23.333 71 -30s53.5 -10 81.5 -10c27.333 0 54.333 3.33301 81 10s50.334 16.667 71.001 30s37.334 29.833 50.001 49.5s19 42.834 19 69.501v292c0 28 -6.33301 52 -19 72s-29.5 36.5 -50.5 49.5s-44.833 22.5 -71.5 28.5s-54 9 -82 9
c-27.333 0 -54.166 -3.16699 -80.499 -9.5s-49.833 -16 -70.5 -29s-37.334 -29.5 -50.001 -49.5s-19 -43.667 -19 -71v-292z" />
    <glyph glyph-name="omacron" unicode="&#x14d;" horiz-adv-x="497" 
d="M371 619h-247v58h247v-58zM52 359c0 28 5.66699 52.5 17 73.5s26.166 38.5 44.499 52.5s39.333 24.667 63 32s47.834 11 72.501 11s48.667 -3.66699 72 -11s44.166 -18 62.499 -32s33.166 -31.5 44.499 -52.5s17 -45.5 17 -73.5v-200c0 -28 -5.66699 -52.667 -17 -74
s-26.166 -39 -44.499 -53s-39.166 -24.5 -62.499 -31.5s-47.333 -10.5 -72 -10.5s-48.834 3.5 -72.501 10.5s-44.667 17.5 -63 31.5s-33.166 31.667 -44.499 53s-17 46 -17 74v200zM249 474c-17.333 0 -34.333 -2.16699 -51 -6.5s-31.667 -11 -45 -20
s-24.166 -20.5 -32.499 -34.5s-12.5 -31 -12.5 -51v-205c0 -20 4.16699 -37 12.5 -51s19.166 -25.667 32.499 -35s28.333 -16.166 45 -20.499s33.667 -6.5 51 -6.5c16.667 0 33.334 2.16699 50.001 6.5s31.667 11.166 45 20.499s24.166 21 32.499 35s12.5 31 12.5 51v205
c0 20 -4.16699 37 -12.5 51s-19.166 25.5 -32.499 34.5s-28.333 15.667 -45 20s-33.334 6.5 -50.001 6.5z" />
    <glyph glyph-name="Ohungarumlaut" unicode="&#x150;" horiz-adv-x="677" 
d="M286 773h-50l49 113h80zM432 773h-50l49 113h80zM58 500c0 36 8 67.667 24 95s37.167 50.166 63.5 68.499s56.333 32 90 41s68.167 13.5 103.5 13.5c34.667 0 68.834 -4.5 102.501 -13.5s63.667 -22.667 90 -41s47.5 -41.166 63.5 -68.499s24 -59 24 -95v-292
c0 -36 -8 -67.667 -24 -95s-37.167 -50.166 -63.5 -68.499s-56.333 -32 -90 -41s-67.834 -13.5 -102.501 -13.5c-35.333 0 -69.833 4.5 -103.5 13.5s-63.667 22.667 -90 41s-47.5 41.166 -63.5 68.499s-24 59 -24 95v292zM117 208c0 -26.667 6.33105 -49.834 18.998 -69.501
s29.5 -36.167 50.5 -49.5s44.667 -23.333 71 -30s53.5 -10 81.5 -10c27.333 0 54.333 3.33301 81 10s50.334 16.667 71.001 30s37.334 29.833 50.001 49.5s19 42.834 19 69.501v292c0 28 -6.33301 52 -19 72s-29.5 36.5 -50.5 49.5s-44.833 22.5 -71.5 28.5s-54 9 -82 9
c-27.333 0 -54.166 -3.16699 -80.499 -9.5s-49.833 -16 -70.5 -29s-37.334 -29.5 -50.001 -49.5s-19 -43.667 -19 -71v-292z" />
    <glyph glyph-name="ohungarumlaut" unicode="&#x151;" horiz-adv-x="497" 
d="M196 576h-40l49 113h70zM322 576h-40l49 113h70zM52 359c0 28 5.66699 52.5 17 73.5s26.166 38.5 44.499 52.5s39.333 24.667 63 32s47.834 11 72.501 11s48.667 -3.66699 72 -11s44.166 -18 62.499 -32s33.166 -31.5 44.499 -52.5s17 -45.5 17 -73.5v-200
c0 -28 -5.66699 -52.667 -17 -74s-26.166 -39 -44.499 -53s-39.166 -24.5 -62.499 -31.5s-47.333 -10.5 -72 -10.5s-48.834 3.5 -72.501 10.5s-44.667 17.5 -63 31.5s-33.166 31.667 -44.499 53s-17 46 -17 74v200zM249 474c-17.333 0 -34.333 -2.16699 -51 -6.5
s-31.667 -11 -45 -20s-24.166 -20.5 -32.499 -34.5s-12.5 -31 -12.5 -51v-205c0 -20 4.16699 -37 12.5 -51s19.166 -25.667 32.499 -35s28.333 -16.166 45 -20.499s33.667 -6.5 51 -6.5c16.667 0 33.334 2.16699 50.001 6.5s31.667 11.166 45 20.499s24.166 21 32.499 35
s12.5 31 12.5 51v205c0 20 -4.16699 37 -12.5 51s-19.166 25.5 -32.499 34.5s-28.333 15.667 -45 20s-33.334 6.5 -50.001 6.5z" />
    <glyph glyph-name="OE" unicode="&#x152;" horiz-adv-x="924" 
d="M534 649l0.00195312 -267h313v-59h-313v-264h344v-59h-403v18c-21.333 -11.333 -44.5 -18.833 -69.5 -22.5s-49.833 -5.5 -74.5 -5.5c-34.667 0 -68.334 4.66699 -101.001 14s-61.834 23.166 -87.501 41.499s-46.167 41 -61.5 68s-23 58.167 -23 93.5v294
c0 36 8 67.5 24 94.5s37 49.5 63 67.5s55.667 31.667 89 41s67.333 14 102 14c24 0 48.333 -2.16699 73 -6.5s46.667 -13.166 66 -26.499v23h403v-59h-344zM346.002 659l-9 0.000976562c-27.333 0 -54.166 -3 -80.499 -9s-49.833 -15.5 -70.5 -28.5
s-37.334 -29.5 -50.001 -49.5s-19 -43.667 -19 -71v-294c0 -38 12.667 -69.333 38 -94s56.333 -42.334 93 -53.001c28.667 -8 58.334 -12 89.001 -12c9.33301 0 18.666 0.666992 27.999 2c41.333 2.66699 78 12.667 110 30v551c-19.333 10 -41 17.333 -65 22
c-20.667 4 -42 6 -64 6z" />
    <glyph glyph-name="oe" unicode="&#x153;" horiz-adv-x="823" 
d="M52 360c0 28 5.66211 52.502 16.9951 73.502s26.166 38.333 44.499 52s39.166 24 62.499 31s47 10.5 71 10.5c34 0 66.667 -7.66699 98 -23s54.333 -39 69 -71c6 16.667 14.833 31 26.5 43s25.334 21.833 41.001 29.5s32.167 13.334 49.5 17.001s34.333 5.5 51 5.5
c24 0 47.833 -3.5 71.5 -10.5s44.667 -17.5 63 -31.5s33.166 -31.5 44.499 -52.5s17 -45.5 17 -73.5v-128l-336 1v-72c0 -19.333 4.16699 -36.166 12.5 -50.499s19.166 -26 32.499 -35s28.333 -15.667 45 -20s33.334 -6.5 50.001 -6.5c28 0 54.333 5.66699 79 17
s42.334 28.666 53.001 51.999l50 -26c-8 -16.667 -18.333 -31.334 -31 -44.001s-27.167 -23.334 -43.5 -32.001s-33.666 -15.167 -51.999 -19.5s-36.833 -6.5 -55.5 -6.5c-34 0 -66.667 7.5 -98 22.5s-54.666 38.5 -69.999 70.5c-15.333 -32 -38.666 -55.333 -69.999 -70
s-63.666 -22.334 -96.999 -23.001c-24 0 -47.667 3.5 -71 10.5s-44.166 17.5 -62.499 31.5s-33.166 31.333 -44.499 52s-17 45 -17 73v203zM246.995 474.002c-16.667 0 -33.3369 -2.16504 -50.0039 -6.49805s-31.5 -11 -44.5 -20s-23.667 -20.5 -32 -34.5
s-12.5 -30.667 -12.5 -50v-206c0 -19.333 4.16699 -36 12.5 -50s19 -25.5 32 -34.5s27.833 -15.667 44.5 -20s33.334 -6.5 50.001 -6.5s33.334 2.33301 50.001 7s31.5 11.667 44.5 21s23.667 21.166 32 35.499s12.5 31.166 12.5 50.499v204
c0 19.333 -4.16699 35.833 -12.5 49.5s-19.166 25 -32.499 34s-28.166 15.667 -44.499 20s-32.833 6.5 -49.5 6.5zM721.992 363.004c0 18.667 -4 35 -12 49s-18.5 25.5 -31.5 34.5s-28 15.833 -45 20.5s-34.167 7 -51.5 7s-34.333 -2.16699 -51 -6.5s-31.5 -11 -44.5 -20
s-23.667 -20.5 -32 -34.5s-12.5 -31 -12.5 -51v-80l280 -1v82z" />
    <glyph glyph-name="Racute" unicode="&#x154;" horiz-adv-x="618" 
d="M336 756h-58l69 113h80zM138 300l0.000976562 -299.998h-59v708h267c33.333 0 64.333 -3.83301 93 -11.5s53.5 -19.834 74.5 -36.501s37.667 -38 50 -64s18.833 -57.333 19.5 -94c0 -36.667 -6.33301 -67.834 -19 -93.501s-29.834 -46.5 -51.501 -62.5
s-46.667 -27.667 -75 -35s-58.5 -11 -90.5 -11h-2l237 -300h-73l-232 300h-139zM347.001 354.002c27.333 0 51.8359 2.5 73.5029 7.5s40.167 13.167 55.5 24.5s27.166 26.5 35.499 45.5s12.5 42.5 12.5 70.5s-4.33301 51.333 -13 70s-20.834 33.667 -36.501 45
s-34.334 19.5 -56.001 24.5s-45.5 7.5 -71.5 7.5h-209v-295h209z" />
    <glyph glyph-name="racute" unicode="&#x155;" horiz-adv-x="302" 
d="M206 569h-58l69 113h80zM251 528c6 0 12.165 -0.165039 18.498 -0.498047s12.833 -0.833008 19.5 -1.5v-56c-11.333 2.66699 -22 4 -32 4h-4c-11.333 -0.666992 -23.333 -2.33398 -36 -5.00098c-26 -6 -48.5 -17.833 -67.5 -35.5s-28.5 -41.834 -28.5 -72.501v-361h-56
v361c0 30.667 6.33301 56.667 19 78s28.334 38.5 47.001 51.5s38.834 22.5 60.501 28.5s41.5 9 59.5 9z" />
    <glyph glyph-name="Rcommaaccent" unicode="&#x156;" horiz-adv-x="618" 
d="M295 -242h-58l50 166h69zM138 300l0.000976562 -299.998h-59v708h267c33.333 0 64.333 -3.83301 93 -11.5s53.5 -19.834 74.5 -36.501s37.667 -38 50 -64s18.833 -57.333 19.5 -94c0 -36.667 -6.33301 -67.834 -19 -93.501s-29.834 -46.5 -51.501 -62.5
s-46.667 -27.667 -75 -35s-58.5 -11 -90.5 -11h-2l237 -300h-73l-232 300h-139zM347.001 354.002c27.333 0 51.8359 2.5 73.5029 7.5s40.167 13.167 55.5 24.5s27.166 26.5 35.499 45.5s12.5 42.5 12.5 70.5s-4.33301 51.333 -13 70s-20.834 33.667 -36.501 45
s-34.334 19.5 -56.001 24.5s-45.5 7.5 -71.5 7.5h-209v-295h209z" />
    <glyph glyph-name="rcommaaccent" unicode="&#x157;" horiz-adv-x="302" 
d="M79 -240h-52l39 137h62zM251 528c6 0 12.165 -0.165039 18.498 -0.498047s12.833 -0.833008 19.5 -1.5v-56c-11.333 2.66699 -22 4 -32 4h-4c-11.333 -0.666992 -23.333 -2.33398 -36 -5.00098c-26 -6 -48.5 -17.833 -67.5 -35.5s-28.5 -41.834 -28.5 -72.501v-361h-56
v361c0 30.667 6.33301 56.667 19 78s28.334 38.5 47.001 51.5s38.834 22.5 60.501 28.5s41.5 9 59.5 9z" />
    <glyph glyph-name="Rcaron" unicode="&#x158;" horiz-adv-x="618" 
d="M168 869h66l79 -76l74 76h67l-108 -113h-70zM138 300l0.000976562 -299.998h-59v708h267c33.333 0 64.333 -3.83301 93 -11.5s53.5 -19.834 74.5 -36.501s37.667 -38 50 -64s18.833 -57.333 19.5 -94c0 -36.667 -6.33301 -67.834 -19 -93.501
s-29.834 -46.5 -51.501 -62.5s-46.667 -27.667 -75 -35s-58.5 -11 -90.5 -11h-2l237 -300h-73l-232 300h-139zM347.001 354.002c27.333 0 51.8359 2.5 73.5029 7.5s40.167 13.167 55.5 24.5s27.166 26.5 35.499 45.5s12.5 42.5 12.5 70.5s-4.33301 51.333 -13 70
s-20.834 33.667 -36.501 45s-34.334 19.5 -56.001 24.5s-45.5 7.5 -71.5 7.5h-209v-295h209z" />
    <glyph glyph-name="rcaron" unicode="&#x159;" horiz-adv-x="302" 
d="M59 676h66l79 -76l74 76h67l-108 -113h-70zM251 528c6 0 12.165 -0.165039 18.498 -0.498047s12.833 -0.833008 19.5 -1.5v-56c-11.333 2.66699 -22 4 -32 4h-4c-11.333 -0.666992 -23.333 -2.33398 -36 -5.00098c-26 -6 -48.5 -17.833 -67.5 -35.5
s-28.5 -41.834 -28.5 -72.501v-361h-56v361c0 30.667 6.33301 56.667 19 78s28.334 38.5 47.001 51.5s38.834 22.5 60.501 28.5s41.5 9 59.5 9z" />
    <glyph glyph-name="Sacute" unicode="&#x15a;" horiz-adv-x="591" 
d="M306 756h-58l69 113h80zM106 526c0 -20 4.33105 -36.668 12.998 -50.001c10 -16 24 -29.167 42 -39.5s38.833 -18.5 62.5 -24.5s48.5 -11.333 74.5 -16c30.667 -6 61.167 -12.833 91.5 -20.5s57.5 -19.334 81.5 -35.001s43 -36.5 57 -62.5c12 -22.667 18 -51.667 18 -87
v-15c-1.33301 -31.333 -9.5 -58.5 -24.5 -81.5s-34.167 -42.333 -57.5 -58s-49.833 -27.334 -79.5 -35.001s-60.167 -11.5 -91.5 -11.5c-26.667 0 -53 2.83301 -79 8.5s-50.333 14.334 -73 26.001s-43 26 -61 43s-32 36.833 -42 59.5l54 24
c7.33301 -17.333 18 -32.333 32 -45s30.167 -23.167 48.5 -31.5s38 -14.666 59 -18.999s42.167 -6.5 63.5 -6.5c23.333 0 46.166 2.66699 68.499 8s42.333 13.333 60 24s32.167 24 43.5 40s18 35 20 57v13c0 23.333 -4.33301 43 -13 59
c-10.667 18.667 -25.667 33.834 -45 45.501s-41.666 20.834 -66.999 27.501s-51.666 13 -78.999 19c-29.333 6 -58.166 12.667 -86.499 20s-53.666 18 -75.999 32s-40.166 32.333 -53.499 55c-12 20.667 -18 47 -18 79v10c0.666992 30 8.16699 56.167 22.5 78.5
s32.833 41 55.5 56s48.5 26.333 77.5 34s58.833 11.5 89.5 11.5c26 0 51.833 -2.83301 77.5 -8.5s49.667 -14 72 -25s42.166 -24.833 59.499 -41.5s31 -36 41 -58l-53 -24c-7.33301 16.667 -17.833 31.167 -31.5 43.5s-29.334 22.666 -47.001 30.999s-36.667 14.5 -57 18.5
s-40.833 6 -61.5 6c-23.333 0 -45.833 -2.5 -67.5 -7.5s-41.167 -12.5 -58.5 -22.5s-31.5 -22.667 -42.5 -38s-17.167 -33.333 -18.5 -54c-0.666992 -4 -1 -8 -1 -12z" />
    <glyph glyph-name="sacute" unicode="&#x15b;" horiz-adv-x="440" 
d="M246 576h-58l69 113h80zM234 44c14 0 27.9971 1.49902 41.9971 4.49902s26.5 8.16699 37.5 15.5s19.667 17 26 29s9.5 27 9.5 45c0 17.333 -3.66699 31.666 -11 42.999s-16.833 20.666 -28.5 27.999s-24.5 12.833 -38.5 16.5s-27.667 6.83398 -41 9.50098
c-21.333 4 -42.666 8.83301 -63.999 14.5s-40.5 13.834 -57.5 24.501s-31 24.5 -42 41.5s-16.5 38.833 -16.5 65.5c0 26 5.66699 48.333 17 67s26 34 44 46s37.833 20.667 59.5 26s42.834 8 63.501 8c26.667 0 52.834 -4.33301 78.501 -13s47.834 -21.667 66.501 -39
l-36 -42c-14.667 15.333 -31.334 25.833 -50.001 31.5s-38.334 8.5 -59.001 8.5c-13.333 0 -27.5 -1.5 -42.5 -4.5s-29 -8 -42 -15s-23.667 -16.5 -32 -28.5s-12.5 -27 -12.5 -45c0 -17.333 4.66699 -31.5 14 -42.5s20.833 -19.833 34.5 -26.5s28.167 -11.667 43.5 -15
l43 -9c20 -4 39.833 -9.33301 59.5 -16s37.334 -15.667 53.001 -27s28.334 -25.666 38.001 -42.999s14.5 -38.666 14.5 -63.999c0 -26 -4.83301 -48.167 -14.5 -66.5s-22.5 -33.5 -38.5 -45.5s-34.167 -20.833 -54.5 -26.5s-41.5 -8.83398 -63.5 -9.50098h-8
c-38 0 -73.333 8.66699 -106 26c-34.667 18 -63.334 45 -86.001 81l43 27c19.333 -26.667 42.833 -46.667 70.5 -60s56.5 -20 86.5 -20z" />
    <glyph glyph-name="Scedilla" unicode="&#x15e;" horiz-adv-x="591" 
d="M546 191v-15.002c-1.33301 -29.333 -8.66602 -55 -21.999 -77s-30.5 -40.833 -51.5 -56.5s-45 -27.667 -72 -36s-55.167 -13.5 -84.5 -15.5l-30 -59l1 -2c7.33301 0.666992 14 1 20 1c23.333 0 42 -5.66699 56 -17c16.667 -13.333 25 -33 25 -59v-6
c-0.666992 -16 -4.5 -30 -11.5 -42s-15.833 -21.667 -26.5 -29s-22.5 -12.833 -35.5 -16.5s-25.833 -5.5 -38.5 -5.5c-30 0 -59.333 6.66699 -88 20l13 37c12 -6 23.667 -10.333 35 -13s24 -4 38 -4c16.667 0 31.667 4.33301 45 13c14.667 9.33301 22 24 22 44
c0 12.667 -3 22.334 -9 29.001c-7.33301 8 -16 13 -26 15c-6 1.33301 -12 2 -18 2c-4.66699 0 -9.33398 -0.333008 -14.001 -1c-11.333 -2 -20.333 -4.66699 -27 -8l-14 14l46 86c-25.333 0.666992 -50.333 4.16699 -75 10.5s-47.834 15.333 -69.501 27
s-40.834 25.667 -57.501 42s-29.667 35.5 -39 57.5l54 24c7.33301 -17.333 18 -32.333 32 -45s30.167 -23.167 48.5 -31.5s38 -14.666 59 -18.999s42.167 -6.5 63.5 -6.5c23.333 0 46.166 2.66699 68.499 8s42.333 13.333 60 24s32.167 24 43.5 40s18 35 20 57v13
c0 23.333 -4.33301 43 -13 59c-10.667 18.667 -25.667 33.834 -45 45.501s-41.666 20.834 -66.999 27.501s-51.666 13 -78.999 19c-29.333 6 -58.166 12.667 -86.499 20s-53.666 18 -75.999 32s-40.166 32.333 -53.499 55c-12 20.667 -18 47 -18 79v10
c0.666992 30 8.16699 56.167 22.5 78.5s32.833 41 55.5 56s48.5 26.333 77.5 34s58.833 11.5 89.5 11.5c26 0 51.833 -2.83301 77.5 -8.5s49.667 -14 72 -25s42.166 -24.833 59.499 -41.5s31 -36 41 -58l-53 -24c-7.33301 16.667 -17.833 31.167 -31.5 43.5
s-29.334 22.666 -47.001 30.999s-36.667 14.5 -57 18.5s-40.833 6 -61.5 6c-23.333 0 -45.833 -2.5 -67.5 -7.5s-41.167 -12.5 -58.5 -22.5s-31.5 -22.667 -42.5 -38s-17.167 -33.333 -18.5 -54c-0.666992 -4 -1 -8 -1 -12c0 -20 4.33301 -36.667 13 -50
c10 -16 24 -29.167 42 -39.5s38.833 -18.5 62.5 -24.5s48.5 -11.333 74.5 -16c30.667 -6 61.167 -12.833 91.5 -20.5s57.5 -19.334 81.5 -35.001s43 -36.5 57 -62.5c12 -22.667 18 -51.667 18 -87z" />
    <glyph glyph-name="scedilla" unicode="&#x15f;" horiz-adv-x="440" 
d="M405 138c0 -24.667 -4.33496 -45.8389 -13.002 -63.5059s-20.334 -32.5 -35.001 -44.5s-31.667 -21.167 -51 -27.5s-39.333 -10.166 -60 -11.499l-30 -59l1 -2c7.33301 0.666992 14 1 20 1c23.333 0 42 -5.66699 56 -17c16.667 -13.333 25 -33 25 -59v-6
c-0.666992 -16 -4.5 -30 -11.5 -42s-15.833 -21.667 -26.5 -29s-22.5 -12.833 -35.5 -16.5s-25.833 -5.5 -38.5 -5.5c-30 0 -59.333 6.66699 -88 20l13 37c12 -6 23.667 -10.333 35 -13s24 -4 38 -4c16.667 0 31.667 4.33301 45 13c14.667 9.33301 22 24 22 44
c0 12.667 -3 22.334 -9 29.001c-7.33301 8 -16 13 -26 15c-6 1.33301 -12 2 -18 2c-4.66699 0 -9.33398 -0.333008 -14.001 -1c-11.333 -2 -20.333 -4.66699 -27 -8l-14 14l46 87c-36 2.66699 -69.167 12.834 -99.5 30.501s-55.5 42.834 -75.5 75.501l43 27
c19.333 -26.667 42.833 -46.667 70.5 -60s56.5 -20 86.5 -20c14 0 28 1.5 42 4.5s26.5 8.16699 37.5 15.5s19.667 17 26 29s9.5 27 9.5 45c0 17.333 -3.66699 31.666 -11 42.999s-16.833 20.666 -28.5 27.999s-24.5 12.833 -38.5 16.5s-27.667 6.83398 -41 9.50098
c-21.333 4 -42.666 8.83301 -63.999 14.5s-40.5 13.834 -57.5 24.501s-31 24.5 -42 41.5s-16.5 38.833 -16.5 65.5c0 26 5.66699 48.333 17 67s26 34 44 46s37.833 20.667 59.5 26s42.834 8 63.501 8c26.667 0 52.834 -4.33301 78.501 -13s47.834 -21.667 66.501 -39
l-36 -42c-14.667 15.333 -31.334 25.833 -50.001 31.5s-38.334 8.5 -59.001 8.5c-13.333 0 -27.5 -1.5 -42.5 -4.5s-29 -8 -42 -15s-23.667 -16.5 -32 -28.5s-12.5 -27 -12.5 -45c0 -17.333 4.66699 -31.5 14 -42.5s20.833 -19.833 34.5 -26.5s28.167 -11.667 43.5 -15
l43 -9c20 -4 39.833 -9.33301 59.5 -16s37.334 -15.667 53.001 -27s28.334 -25.666 38.001 -42.999s14.5 -38.666 14.5 -63.999z" />
    <glyph glyph-name="Scaron" unicode="&#x160;" horiz-adv-x="591" 
d="M144 869h66l79 -76l74 76h67l-108 -113h-70zM106 526c0 -20 4.33105 -36.668 12.998 -50.001c10 -16 24 -29.167 42 -39.5s38.833 -18.5 62.5 -24.5s48.5 -11.333 74.5 -16c30.667 -6 61.167 -12.833 91.5 -20.5s57.5 -19.334 81.5 -35.001s43 -36.5 57 -62.5
c12 -22.667 18 -51.667 18 -87v-15c-1.33301 -31.333 -9.5 -58.5 -24.5 -81.5s-34.167 -42.333 -57.5 -58s-49.833 -27.334 -79.5 -35.001s-60.167 -11.5 -91.5 -11.5c-26.667 0 -53 2.83301 -79 8.5s-50.333 14.334 -73 26.001s-43 26 -61 43s-32 36.833 -42 59.5l54 24
c7.33301 -17.333 18 -32.333 32 -45s30.167 -23.167 48.5 -31.5s38 -14.666 59 -18.999s42.167 -6.5 63.5 -6.5c23.333 0 46.166 2.66699 68.499 8s42.333 13.333 60 24s32.167 24 43.5 40s18 35 20 57v13c0 23.333 -4.33301 43 -13 59
c-10.667 18.667 -25.667 33.834 -45 45.501s-41.666 20.834 -66.999 27.501s-51.666 13 -78.999 19c-29.333 6 -58.166 12.667 -86.499 20s-53.666 18 -75.999 32s-40.166 32.333 -53.499 55c-12 20.667 -18 47 -18 79v10c0.666992 30 8.16699 56.167 22.5 78.5
s32.833 41 55.5 56s48.5 26.333 77.5 34s58.833 11.5 89.5 11.5c26 0 51.833 -2.83301 77.5 -8.5s49.667 -14 72 -25s42.166 -24.833 59.499 -41.5s31 -36 41 -58l-53 -24c-7.33301 16.667 -17.833 31.167 -31.5 43.5s-29.334 22.666 -47.001 30.999s-36.667 14.5 -57 18.5
s-40.833 6 -61.5 6c-23.333 0 -45.833 -2.5 -67.5 -7.5s-41.167 -12.5 -58.5 -22.5s-31.5 -22.667 -42.5 -38s-17.167 -33.333 -18.5 -54c-0.666992 -4 -1 -8 -1 -12z" />
    <glyph glyph-name="scaron" unicode="&#x161;" horiz-adv-x="440" 
d="M84 689h66l79 -76l74 76h67l-108 -113h-70zM234 44c14 0 27.9971 1.49902 41.9971 4.49902s26.5 8.16699 37.5 15.5s19.667 17 26 29s9.5 27 9.5 45c0 17.333 -3.66699 31.666 -11 42.999s-16.833 20.666 -28.5 27.999s-24.5 12.833 -38.5 16.5
s-27.667 6.83398 -41 9.50098c-21.333 4 -42.666 8.83301 -63.999 14.5s-40.5 13.834 -57.5 24.501s-31 24.5 -42 41.5s-16.5 38.833 -16.5 65.5c0 26 5.66699 48.333 17 67s26 34 44 46s37.833 20.667 59.5 26s42.834 8 63.501 8c26.667 0 52.834 -4.33301 78.501 -13
s47.834 -21.667 66.501 -39l-36 -42c-14.667 15.333 -31.334 25.833 -50.001 31.5s-38.334 8.5 -59.001 8.5c-13.333 0 -27.5 -1.5 -42.5 -4.5s-29 -8 -42 -15s-23.667 -16.5 -32 -28.5s-12.5 -27 -12.5 -45c0 -17.333 4.66699 -31.5 14 -42.5s20.833 -19.833 34.5 -26.5
s28.167 -11.667 43.5 -15l43 -9c20 -4 39.833 -9.33301 59.5 -16s37.334 -15.667 53.001 -27s28.334 -25.666 38.001 -42.999s14.5 -38.666 14.5 -63.999c0 -26 -4.83301 -48.167 -14.5 -66.5s-22.5 -33.5 -38.5 -45.5s-34.167 -20.833 -54.5 -26.5
s-41.5 -8.83398 -63.5 -9.50098h-8c-38 0 -73.333 8.66699 -106 26c-34.667 18 -63.334 45 -86.001 81l43 27c19.333 -26.667 42.833 -46.667 70.5 -60s56.5 -20 86.5 -20z" />
    <glyph glyph-name="Tcommaaccent" unicode="&#x162;" horiz-adv-x="559" 
d="M258 -242h-58l50 166h69zM545 651h-236v-651h-59v651h-236v57h531v-57z" />
    <glyph glyph-name="tcommaaccent" unicode="&#x163;" horiz-adv-x="263" 
d="M142 -229h-54l46 153h64zM65 157v478.999h49l7 -118h112v-50h-112v-311c0 -18 2 -34.833 6 -50.5s11 -29 21 -40s23.167 -18.833 39.5 -23.5s36.833 -5 61.5 -1v-50c-31.333 -5.33301 -58.5 -4.83301 -81.5 1.5s-42 16.833 -57 31.5s-26.333 33.334 -34 56.001
s-11.5 48 -11.5 76zM65 -0.000976562z" />
    <glyph glyph-name="Tcaron" unicode="&#x164;" horiz-adv-x="559" 
d="M130 869h66l79 -76l74 76h67l-108 -113h-70zM545 651h-236v-651h-59v651h-236v57h531v-57z" />
    <glyph glyph-name="tcaron" unicode="&#x165;" horiz-adv-x="263" 
d="M230 568h-47l38 140h56zM209 -12c-15.333 0 -28.999 1.99902 -40.999 5.99902c-23.333 6 -42.5 16.333 -57.5 31s-26.333 33.334 -34 56.001s-11.5 48 -11.5 76v479h49l7 -118h112v-50h-112v-311c0 -18 2 -34.833 6 -50.5s11 -29 21 -40s23.333 -18.833 40 -23.5
c8.66699 -2.66699 18.667 -4 30 -4c9.33301 0 19.666 1 30.999 3v-50c-14 -2.66699 -27.333 -4 -40 -4z" />
    <glyph glyph-name="Tbar" unicode="&#x166;" horiz-adv-x="565" 
d="M312 394h105v-48h-105v-346h-59v346h-106v48h106v257h-236v57h531v-57h-236v-257z" />
    <glyph glyph-name="tbar" unicode="&#x167;" horiz-adv-x="268" 
d="M214 -12c-15.333 0 -29.3311 1.99902 -41.998 5.99902c-22.667 6 -41.5 16.333 -56.5 31s-26.333 33.334 -34 56.001s-11.5 48 -11.5 76v132h-54v43h54v304h49l7 -118h112v-50h-112v-136h93v-43h-93v-132c0 -18 2 -34.833 6 -50.5s11 -29 21 -40s23 -18.833 39 -23.5
c9.33301 -2.66699 19.666 -4 30.999 -4c9.33301 0 19.666 1 30.999 3v-50c-14 -2.66699 -27.333 -4 -40 -4z" />
    <glyph glyph-name="Umacron" unicode="&#x16a;" horiz-adv-x="679" 
d="M462 799h-247v58h247v-58zM133 210c0 -26.667 5.83105 -50 17.498 -70s27.334 -36.833 47.001 -50.5s41.834 -23.834 66.501 -30.501s50 -10 76 -10s51.333 3.33301 76 10s46.667 16.834 66 30.501s34.833 30.5 46.5 50.5s17.5 43.333 17.5 70v498h59v-497
c0 -36.667 -7.66699 -68.834 -23 -96.501s-35.333 -50.667 -60 -69s-53 -32.166 -85 -41.499s-64.333 -14 -97 -14c-33.333 0 -65.833 4.66699 -97.5 14s-60 23.166 -85 41.499s-45.167 41.333 -60.5 69s-23 59.834 -23 96.501v497h59v-498z" />
    <glyph glyph-name="umacron" unicode="&#x16b;" horiz-adv-x="521" 
d="M382 609h-247v58h247v-58zM256 -10c-24 0 -47.502 3.5 -70.502 10.5s-43.5 17.5 -61.5 31.5s-32.5 31.333 -43.5 52s-16.5 45 -16.5 73v362h56v-365c0 -18 3.83301 -33.833 11.5 -47.5s17.834 -25.167 30.501 -34.5s27.167 -16.333 43.5 -21s33.166 -7 50.499 -7
c28 0 55 3.5 81 10.5s46.667 13.833 62 20.5v444h56v-489l-56 -17c-23.333 -6.66699 -47.166 -12.167 -71.499 -16.5s-48.166 -6.5 -71.499 -6.5z" />
    <glyph glyph-name="Uring" unicode="&#x16e;" horiz-adv-x="679" 
d="M247 827c0 12.667 2.5 24.5 7.5 35.5s11.667 20.667 20 29s18.166 14.833 29.499 19.5s23.333 7 36 7s24.667 -2.33301 36 -7s21.166 -11.167 29.499 -19.5s15 -18 20 -29s7.5 -22.833 7.5 -35.5s-2.5 -24.5 -7.5 -35.5s-11.667 -20.667 -20 -29
s-18.166 -14.833 -29.499 -19.5s-23.333 -7 -36 -7s-24.667 2.33301 -36 7s-21.166 11.167 -29.499 19.5s-15 18 -20 29s-7.5 22.833 -7.5 35.5zM393 827c0 15.333 -5.16699 28.5 -15.5 39.5s-22.833 16.5 -37.5 16.5c-15.333 0 -28.333 -5.5 -39 -16.5
s-16 -24.167 -16 -39.5s5.33301 -28.5 16 -39.5s23.667 -16.5 39 -16.5c14.667 0 27.167 5.5 37.5 16.5s15.5 24.167 15.5 39.5zM133 210c0 -26.667 5.83105 -50 17.498 -70s27.334 -36.833 47.001 -50.5s41.834 -23.834 66.501 -30.501s50 -10 76 -10s51.333 3.33301 76 10
s46.667 16.834 66 30.501s34.833 30.5 46.5 50.5s17.5 43.333 17.5 70v498h59v-497c0 -36.667 -7.66699 -68.834 -23 -96.501s-35.333 -50.667 -60 -69s-53 -32.166 -85 -41.499s-64.333 -14 -97 -14c-33.333 0 -65.833 4.66699 -97.5 14s-60 23.166 -85 41.499
s-45.167 41.333 -60.5 69s-23 59.834 -23 96.501v497h59v-498z" />
    <glyph glyph-name="uring" unicode="&#x16f;" horiz-adv-x="521" 
d="M173 634c0 12.667 2.5 24.5 7.5 35.5s11.667 20.667 20 29s18.166 14.833 29.499 19.5s23.333 7 36 7s24.667 -2.33301 36 -7s21.166 -11.167 29.499 -19.5s15 -18 20 -29s7.5 -22.833 7.5 -35.5s-2.5 -24.5 -7.5 -35.5s-11.667 -20.667 -20 -29
s-18.166 -14.833 -29.499 -19.5s-23.333 -7 -36 -7s-24.667 2.33301 -36 7s-21.166 11.167 -29.499 19.5s-15 18 -20 29s-7.5 22.833 -7.5 35.5zM319 634c0 15.333 -5.16699 28.5 -15.5 39.5s-22.833 16.5 -37.5 16.5c-15.333 0 -28.333 -5.5 -39 -16.5
s-16 -24.167 -16 -39.5s5.33301 -28.5 16 -39.5s23.667 -16.5 39 -16.5c14.667 0 27.167 5.5 37.5 16.5s15.5 24.167 15.5 39.5zM256 -10c-24 0 -47.502 3.5 -70.502 10.5s-43.5 17.5 -61.5 31.5s-32.5 31.333 -43.5 52s-16.5 45 -16.5 73v362h56v-365
c0 -18 3.83301 -33.833 11.5 -47.5s17.834 -25.167 30.501 -34.5s27.167 -16.333 43.5 -21s33.166 -7 50.499 -7c28 0 55 3.5 81 10.5s46.667 13.833 62 20.5v444h56v-489l-56 -17c-23.333 -6.66699 -47.166 -12.167 -71.499 -16.5s-48.166 -6.5 -71.499 -6.5z" />
    <glyph glyph-name="Uhungarumlaut" unicode="&#x170;" horiz-adv-x="679" 
d="M297 756h-40l49 113h70zM423 756h-40l49 113h70zM133 210c0 -26.667 5.83105 -50 17.498 -70s27.334 -36.833 47.001 -50.5s41.834 -23.834 66.501 -30.501s50 -10 76 -10s51.333 3.33301 76 10s46.667 16.834 66 30.501s34.833 30.5 46.5 50.5s17.5 43.333 17.5 70v498
h59v-497c0 -36.667 -7.66699 -68.834 -23 -96.501s-35.333 -50.667 -60 -69s-53 -32.166 -85 -41.499s-64.333 -14 -97 -14c-33.333 0 -65.833 4.66699 -97.5 14s-60 23.166 -85 41.499s-45.167 41.333 -60.5 69s-23 59.834 -23 96.501v497h59v-498z" />
    <glyph glyph-name="uhungarumlaut" unicode="&#x171;" horiz-adv-x="521" 
d="M217 566h-40l49 113h70zM343 566h-40l49 113h70zM256 -10c-24 0 -47.502 3.5 -70.502 10.5s-43.5 17.5 -61.5 31.5s-32.5 31.333 -43.5 52s-16.5 45 -16.5 73v362h56v-365c0 -18 3.83301 -33.833 11.5 -47.5s17.834 -25.167 30.501 -34.5s27.167 -16.333 43.5 -21
s33.166 -7 50.499 -7c28 0 55 3.5 81 10.5s46.667 13.833 62 20.5v444h56v-489l-56 -17c-23.333 -6.66699 -47.166 -12.167 -71.499 -16.5s-48.166 -6.5 -71.499 -6.5z" />
    <glyph glyph-name="Uogonek" unicode="&#x172;" horiz-adv-x="679" 
d="M605 211c0 -22.667 -2.66602 -43.332 -7.99902 -61.999s-13.833 -36.334 -25.5 -53.001s-26.5 -32.834 -44.5 -48.501s-39.667 -32.167 -65 -49.5c-16 -10.667 -29 -23 -39 -37s-17.833 -27.833 -23.5 -41.5s-9.33398 -26.667 -11.001 -39s-2.16699 -22.166 -1.5 -29.499
c0.666992 -11.333 4.33398 -20.5 11.001 -27.5s14.667 -11.5 24 -13.5c3.33301 -0.666992 6.66602 -1 9.99902 -1c6.66699 0 13.667 1.33301 21 4c11.333 4 22.333 11 33 21l16 -45c-10.667 -9.33301 -22.834 -17.166 -36.501 -23.499s-29.834 -9.5 -48.501 -9.5
c-25.333 0 -45.333 8.16699 -60 24.5s-22 37.166 -22 62.499c0 10.667 1.83301 23 5.5 37s9 28.167 16 42.5s15.333 28 25 41s20.5 24.5 32.5 34.5c-25.333 -5.33301 -50 -8 -74 -8c-33.333 0 -65.833 4.66699 -97.5 14s-60 23.166 -85 41.499s-45.167 41.333 -60.5 69
s-23 59.834 -23 96.501v497h59v-498c0 -26.667 5.83301 -50 17.5 -70s27.334 -36.833 47.001 -50.5s41.834 -23.834 66.501 -30.501s50 -10 76 -10s51.333 3.33301 76 10s46.667 16.834 66 30.501s34.833 30.5 46.5 50.5s17.5 43.333 17.5 70v498h59v-497z" />
    <glyph glyph-name="uogonek" unicode="&#x173;" horiz-adv-x="522" 
d="M256 -10c-24 0 -47.499 3.50098 -70.499 10.501s-43.5 17.5 -61.5 31.5s-32.5 31.333 -43.5 52s-16.5 45 -16.5 73v362h56v-365c0 -18 3.83301 -33.833 11.5 -47.5s17.834 -25.167 30.501 -34.5s27.167 -16.333 43.5 -21s33.166 -7 50.499 -7c28 0 55 3.5 81 10.5
s46.667 13.833 62 20.5v444h56v-489c-20 -24 -36.333 -45.333 -49 -64s-22.5 -35.167 -29.5 -49.5s-11.5 -26.833 -13.5 -37.5s-2.66699 -20 -2 -28c0.666992 -11.333 4.33398 -20.5 11.001 -27.5s14.667 -11.5 24 -13.5c3.33301 -0.666992 6.66602 -1 9.99902 -1
c6.66699 0 13.667 1.33301 21 4c11.333 4 22.333 11 33 21l16 -45c-10.667 -9.33301 -22.834 -17.166 -36.501 -23.499s-29.834 -9.5 -48.501 -9.5c-25.333 0 -45.333 8.16699 -60 24.5s-22 37.166 -22 62.499c0 10.667 2.33301 23.167 7 37.5s10.834 29 18.501 44
s16.5 29.667 26.5 44s20.667 27.166 32 38.499l-2 4c-22 -6 -44.5 -11 -67.5 -15s-45.5 -6 -67.5 -6z" />
    <glyph glyph-name="Wcircumflex" unicode="&#x174;" horiz-adv-x="941" 
d="M607 756h-63l-75 78l-70 -78h-64l103 113h66zM865 708h62l-205 -708h-86l-165 522l-166 -522h-86l-205 708h62l186 -664l180 571h57l180 -571z" />
    <glyph glyph-name="wcircumflex" unicode="&#x175;" horiz-adv-x="723" 
d="M498 566h-63l-75 78l-70 -78h-64l103 113h66zM174 0l-156 518h59l137 -460l112 460h71l112 -460l137 460h59l-156 -518h-80l-107 443l-108 -443h-80z" />
    <glyph glyph-name="Ycircumflex" unicode="&#x176;" horiz-adv-x="559" 
d="M416 756h-63l-75 78l-70 -78h-64l103 113h66zM309 0h-59v277l-246 431h69l207 -372l206 372h70l-247 -431v-277z" />
    <glyph glyph-name="ycircumflex" unicode="&#x177;" horiz-adv-x="535" 
d="M407 566h-63l-75 78l-70 -78h-64l103 113h66zM264 -152c19.333 0 37.834 2.66699 55.501 8s33.167 13.166 46.5 23.499s24 23.333 32 39s12 34.167 12 55.5v50c-22 -14 -45.167 -23 -69.5 -27s-49.166 -6.33301 -74.499 -7c-25.333 0 -50.166 3.66699 -74.499 11
s-46 18.333 -65 33s-34.167 32.834 -45.5 54.501s-17 46.5 -17 74.5v355h58v-357c0 -19.333 4.16699 -36.333 12.5 -51s19.166 -27 32.499 -37s28.5 -17.667 45.5 -23s34.5 -8 52.5 -8c49.333 0 97.666 10.333 144.999 31v445h57v-544c0 -30 -5.5 -56.333 -16.5 -79
s-25.833 -41.5 -44.5 -56.5s-40 -26.167 -64 -33.5s-49.333 -11 -76 -11c-34 0 -66.833 6 -98.5 18s-57.834 29.333 -78.501 52l39 36c17.333 -18 37.5 -31.167 60.5 -39.5s48.167 -12.5 75.5 -12.5z" />
    <glyph glyph-name="Ydieresis" unicode="&#x178;" horiz-adv-x="559" 
d="M329 813c0 13.333 4.66699 24.666 14 33.999s20.666 14 33.999 14s24.666 -4.66699 33.999 -14s14 -20.666 14 -33.999s-4.66699 -24.666 -14 -33.999s-20.666 -14 -33.999 -14s-24.666 4.66699 -33.999 14s-14 20.666 -14 33.999zM149 813
c0 13.333 4.66699 24.666 14 33.999s20.666 14 33.999 14s24.666 -4.66699 33.999 -14s14 -20.666 14 -33.999s-4.66699 -24.666 -14 -33.999s-20.666 -14 -33.999 -14s-24.666 4.66699 -33.999 14s-14 20.666 -14 33.999zM309 0h-59v277l-246 431h69l207 -372l206 372h70
l-247 -431v-277z" />
    <glyph glyph-name="Zacute" unicode="&#x179;" horiz-adv-x="577" 
d="M321 756h-58l69 113h80zM42 708h486l21 -45l-441 -604h431v-59h-497l-18 45l441 604h-423v59z" />
    <glyph glyph-name="zacute" unicode="&#x17a;" horiz-adv-x="464" 
d="M248 576h-58l69 113h80zM45 518h361l23 -41l-323 -418h321v-59h-377l-24 40l326 424h-307v54z" />
    <glyph glyph-name="Zdotaccent" unicode="&#x17b;" horiz-adv-x="577" 
d="M256 813c0 13.333 4.66699 24.666 14 33.999s20.666 14 33.999 14s24.666 -4.66699 33.999 -14s14 -20.666 14 -33.999s-4.66699 -24.666 -14 -33.999s-20.666 -14 -33.999 -14s-24.666 4.66699 -33.999 14s-14 20.666 -14 33.999zM42 708h486l21 -45l-441 -604h431v-59
h-497l-18 45l441 604h-423v59z" />
    <glyph glyph-name="zdotaccent" unicode="&#x17c;" horiz-adv-x="464" 
d="M191 633c0 13.333 4.66699 24.666 14 33.999s20.666 14 33.999 14s24.666 -4.66699 33.999 -14s14 -20.666 14 -33.999s-4.66699 -24.666 -14 -33.999s-20.666 -14 -33.999 -14s-24.666 4.66699 -33.999 14s-14 20.666 -14 33.999zM45 518h361l23 -41l-323 -418h321v-59
h-377l-24 40l326 424h-307v54z" />
    <glyph glyph-name="Zcaron" unicode="&#x17d;" horiz-adv-x="577" 
d="M151 869h66l79 -76l74 76h67l-108 -113h-70zM42 708h486l21 -45l-441 -604h431v-59h-497l-18 45l441 604h-423v59z" />
    <glyph glyph-name="zcaron" unicode="&#x17e;" horiz-adv-x="464" 
d="M86 689h66l79 -76l74 76h67l-108 -113h-70zM45 518h361l23 -41l-323 -418h321v-59h-377l-24 40l326 424h-307v54z" />
    <glyph glyph-name="florin" unicode="&#x192;" horiz-adv-x="473" 
d="M36 -144c-14 0 -27.8281 1.66895 -41.4951 5.00195s-26.167 9.66602 -37.5 18.999l30 47c7.33301 -6 15.666 -10.333 24.999 -13s18.666 -4 27.999 -4c26.667 0 46.167 9.5 58.5 28.5s21.833 46.5 28.5 82.5l64 345h-108v53h117l28 152
c3.33301 17.333 8.16602 34.833 14.499 52.5s15.166 33.5 26.499 47.5s25.333 25.333 42 34s36.667 13 60 13c32.667 0 62.667 -10 90 -30l-32 -45c-8.66699 6 -17.834 11 -27.501 15s-19.834 6 -30.501 6c-25.333 0 -44.333 -8.83301 -57 -26.5
s-21.334 -38.834 -26.001 -63.501l-28 -155h108v-53h-117l-72 -386c-7.33301 -38.667 -22.166 -69 -44.499 -91s-55.166 -33 -98.499 -33z" />
    <glyph glyph-name="Scommaaccent" unicode="&#x218;" horiz-adv-x="591" 
d="M271 -242h-58l50 166h69zM106 526c0 -20 4.33105 -36.668 12.998 -50.001c10 -16 24 -29.167 42 -39.5s38.833 -18.5 62.5 -24.5s48.5 -11.333 74.5 -16c30.667 -6 61.167 -12.833 91.5 -20.5s57.5 -19.334 81.5 -35.001s43 -36.5 57 -62.5c12 -22.667 18 -51.667 18 -87
v-15c-1.33301 -31.333 -9.5 -58.5 -24.5 -81.5s-34.167 -42.333 -57.5 -58s-49.833 -27.334 -79.5 -35.001s-60.167 -11.5 -91.5 -11.5c-26.667 0 -53 2.83301 -79 8.5s-50.333 14.334 -73 26.001s-43 26 -61 43s-32 36.833 -42 59.5l54 24
c7.33301 -17.333 18 -32.333 32 -45s30.167 -23.167 48.5 -31.5s38 -14.666 59 -18.999s42.167 -6.5 63.5 -6.5c23.333 0 46.166 2.66699 68.499 8s42.333 13.333 60 24s32.167 24 43.5 40s18 35 20 57v13c0 23.333 -4.33301 43 -13 59
c-10.667 18.667 -25.667 33.834 -45 45.501s-41.666 20.834 -66.999 27.501s-51.666 13 -78.999 19c-29.333 6 -58.166 12.667 -86.499 20s-53.666 18 -75.999 32s-40.166 32.333 -53.499 55c-12 20.667 -18 47 -18 79v10c0.666992 30 8.16699 56.167 22.5 78.5
s32.833 41 55.5 56s48.5 26.333 77.5 34s58.833 11.5 89.5 11.5c26 0 51.833 -2.83301 77.5 -8.5s49.667 -14 72 -25s42.166 -24.833 59.499 -41.5s31 -36 41 -58l-53 -24c-7.33301 16.667 -17.833 31.167 -31.5 43.5s-29.334 22.666 -47.001 30.999s-36.667 14.5 -57 18.5
s-40.833 6 -61.5 6c-23.333 0 -45.833 -2.5 -67.5 -7.5s-41.167 -12.5 -58.5 -22.5s-31.5 -22.667 -42.5 -38s-17.167 -33.333 -18.5 -54c-0.666992 -4 -1 -8 -1 -12z" />
    <glyph glyph-name="scommaaccent" unicode="&#x219;" horiz-adv-x="440" 
d="M214 -234h-52l45 150h62zM234 44c14 0 27.9971 1.49902 41.9971 4.49902s26.5 8.16699 37.5 15.5s19.667 17 26 29s9.5 27 9.5 45c0 17.333 -3.66699 31.666 -11 42.999s-16.833 20.666 -28.5 27.999s-24.5 12.833 -38.5 16.5s-27.667 6.83398 -41 9.50098
c-21.333 4 -42.666 8.83301 -63.999 14.5s-40.5 13.834 -57.5 24.501s-31 24.5 -42 41.5s-16.5 38.833 -16.5 65.5c0 26 5.66699 48.333 17 67s26 34 44 46s37.833 20.667 59.5 26s42.834 8 63.501 8c26.667 0 52.834 -4.33301 78.501 -13s47.834 -21.667 66.501 -39
l-36 -42c-14.667 15.333 -31.334 25.833 -50.001 31.5s-38.334 8.5 -59.001 8.5c-13.333 0 -27.5 -1.5 -42.5 -4.5s-29 -8 -42 -15s-23.667 -16.5 -32 -28.5s-12.5 -27 -12.5 -45c0 -17.333 4.66699 -31.5 14 -42.5s20.833 -19.833 34.5 -26.5s28.167 -11.667 43.5 -15
l43 -9c20 -4 39.833 -9.33301 59.5 -16s37.334 -15.667 53.001 -27s28.334 -25.666 38.001 -42.999s14.5 -38.666 14.5 -63.999c0 -26 -4.83301 -48.167 -14.5 -66.5s-22.5 -33.5 -38.5 -45.5s-34.167 -20.833 -54.5 -26.5s-41.5 -8.83398 -63.5 -9.50098h-8
c-38 0 -73.333 8.66699 -106 26c-34.667 18 -63.334 45 -86.001 81l43 27c19.333 -26.667 42.833 -46.667 70.5 -60s56.5 -20 86.5 -20z" />
    <glyph glyph-name="uni021A" unicode="&#x21a;" horiz-adv-x="559" 
d="M258 -242h-58l50 166h69zM545 651h-236v-651h-59v651h-236v57h531v-57z" />
    <glyph glyph-name="uni021B" unicode="&#x21b;" horiz-adv-x="263" 
d="M142 -229h-54l46 153h64zM209 -12c-15.333 0 -28.999 1.99902 -40.999 5.99902c-23.333 6 -42.5 16.333 -57.5 31s-26.333 33.334 -34 56.001s-11.5 48 -11.5 76v479h49l7 -118h112v-50h-112v-311c0 -18 2 -34.833 6 -50.5s11 -29 21 -40s23.333 -18.833 40 -23.5
c8.66699 -2.66699 18.667 -4 30 -4c9.33301 0 19.666 1 30.999 3v-50c-14 -2.66699 -27.333 -4 -40 -4z" />
    <glyph glyph-name="circumflex" unicode="&#x2c6;" horiz-adv-x="262" 
d="M264 756h-63l-75 78l-70 -78h-64l103 113h66z" />
    <glyph glyph-name="caron" unicode="&#x2c7;" horiz-adv-x="257" 
d="M-18 869h66l79 -76l74 76h67l-108 -113h-70z" />
    <glyph glyph-name="breve" unicode="&#x2d8;" horiz-adv-x="240" 
d="M229 869c0 -35.333 -11 -63.666 -33 -84.999s-51.333 -32 -88 -32s-66 10.667 -88 32s-33 49.666 -33 84.999h47c0 -20.667 6.83301 -37.334 20.5 -50.001s31.5 -19 53.5 -19s39.833 6.33301 53.5 19s20.5 29.334 20.5 50.001h47z" />
    <glyph glyph-name="dotaccent" unicode="&#x2d9;" horiz-adv-x="240" 
d="M78 813c0 13.333 4.66699 24.666 14 33.999s20.666 14 33.999 14s24.666 -4.66699 33.999 -14s14 -20.666 14 -33.999s-4.66699 -24.666 -14 -33.999s-20.666 -14 -33.999 -14s-24.666 4.66699 -33.999 14s-14 20.666 -14 33.999z" />
    <glyph glyph-name="ring" unicode="&#x2da;" horiz-adv-x="240" 
d="M28 827c0 12.667 2.5 24.5 7.5 35.5s11.667 20.667 20 29s18.166 14.833 29.499 19.5s23.333 7 36 7s24.667 -2.33301 36 -7s21.166 -11.167 29.499 -19.5s15 -18 20 -29s7.5 -22.833 7.5 -35.5s-2.5 -24.5 -7.5 -35.5s-11.667 -20.667 -20 -29
s-18.166 -14.833 -29.499 -19.5s-23.333 -7 -36 -7s-24.667 2.33301 -36 7s-21.166 11.167 -29.499 19.5s-15 18 -20 29s-7.5 22.833 -7.5 35.5zM174 827c0 15.333 -5.16699 28.5 -15.5 39.5s-22.833 16.5 -37.5 16.5c-15.333 0 -28.333 -5.5 -39 -16.5
s-16 -24.167 -16 -39.5s5.33301 -28.5 16 -39.5s23.667 -16.5 39 -16.5c14.667 0 27.167 5.5 37.5 16.5s15.5 24.167 15.5 39.5z" />
    <glyph glyph-name="ogonek" unicode="&#x2db;" horiz-adv-x="240" 
d="M102 -244c-25.333 0 -45.332 8.16699 -59.999 24.5s-22 37.166 -22 62.499c0 11.333 2.33301 24 7 38s10.834 28.333 18.501 43s16.667 29 27 43s21.5 26.667 33.5 38l37 -5c-26.667 -30 -45.667 -58.667 -57 -86c-9.33301 -24 -14 -43.333 -14 -58v-5
c0.666992 -11.333 4.33398 -20.5 11.001 -27.5s14.667 -11.5 24 -13.5c3.33301 -0.666992 6.66602 -1 9.99902 -1c6.66699 0 13.667 1.33301 21 4c11.333 4 22.333 11 33 21l16 -45c-10.667 -9.33301 -22.834 -17.166 -36.501 -23.499s-29.834 -9.5 -48.501 -9.5z" />
    <glyph glyph-name="tilde" unicode="&#x2dc;" horiz-adv-x="271" 
d="M80 869c10.667 0 20.668 -2.49902 30.001 -7.49902s18.333 -10.5 27 -16.5s17.167 -11.5 25.5 -16.5s16.5 -7.5 24.5 -7.5c19.333 0 32 12.333 38 37l39 -15c-6 -22.667 -15.667 -40.5 -29 -53.5s-29.333 -19.5 -48 -19.5c-11.333 0 -21.833 2.5 -31.5 7.5
s-18.667 10.5 -27 16.5s-16.833 11.5 -25.5 16.5s-17.667 7.5 -27 7.5c-16.667 0 -29.334 -12.667 -38.001 -38l-40 14c4 23.333 13.167 41.666 27.5 54.999s32.5 20 54.5 20z" />
    <glyph glyph-name="hungarumlaut" unicode="&#x2dd;" horiz-adv-x="273" 
d="M75 756h-40l49 113h70zM201 756h-40l49 113h70z" />
    <glyph glyph-name="uni0326" unicode="&#x326;" horiz-adv-x="0" 
d="M137 -242h-58l50 166h69z" />
    <glyph glyph-name="uni03A9" unicode="&#x3a9;" horiz-adv-x="777" 
d="M56 378c0 51.333 8.83496 97.835 26.502 139.502s41.834 77.167 72.501 106.5s66.5 52 107.5 68s84.833 24 131.5 24c48.667 0 93.167 -8.83301 133.5 -26.5s74.833 -41.5 103.5 -71.5s50.834 -65.333 66.501 -106s23.5 -84 23.5 -130c0 -38 -4.16699 -73.333 -12.5 -106
s-19.5 -62.834 -33.5 -90.501s-30.167 -52.334 -48.5 -74.001s-37.5 -39.834 -57.5 -54.501v-3h165v-54h-268v37c27.333 16 53 35.5 77 58.5s44.833 49.167 62.5 78.5s31.5 61.5 41.5 96.5s15 72.167 15 111.5c0 33.333 -6 66.666 -18 99.999s-29.5 63.333 -52.5 90
s-51.333 48.334 -85 65.001s-71.834 25 -114.501 25c-40 0 -76.833 -7.16699 -110.5 -21.5s-62.834 -34.166 -87.501 -59.499s-43.834 -55.5 -57.501 -90.5s-20.5 -73.167 -20.5 -114.5c0 -37.333 5.16699 -72.5 15.5 -105.5s24.5 -63.667 42.5 -92s39.167 -54.5 63.5 -78.5
s50.5 -45 78.5 -63v-37h-272v54h166v3c-20.667 16.667 -40.334 36 -59.001 58s-35 46.5 -49 73.5s-25.167 56.333 -33.5 88s-12.5 65.5 -12.5 101.5z" />
    <glyph glyph-name="uni03BC" unicode="&#x3bc;" horiz-adv-x="534" 
d="M127 -228l-58.999 -0.00292969v740h60v-322c0 -18.667 1.66699 -36.834 5 -54.501s9.16602 -33.5 17.499 -47.5s20 -25.167 35 -33.5s34.5 -12.5 58.5 -12.5c22 0 42.833 3.83301 62.5 11.5s36.667 19.334 51 35.001s25.666 35.334 33.999 59.001s12.5 51.5 12.5 83.5
v281h60l3 -512h-58c-0.666992 17.333 -1.16699 32.5 -1.5 45.5s-1.16602 21.833 -2.49902 26.5h-3c-12 -25.333 -31.833 -45.666 -59.5 -60.999s-60.5 -23 -98.5 -23c-27.333 0 -50.333 4.83301 -69 14.5s-34.667 23.834 -48 42.501v-273z" />
    <glyph glyph-name="pi" unicode="&#x3c0;" horiz-adv-x="557" 
d="M391 139l-0.00195312 332.998h-208v-472h-55v472c-30.667 0 -53.667 -1.33301 -69 -4s-27.666 -5.66699 -36.999 -9l-11 40c11.333 7.33301 27 13.333 47 18s47.667 7 83 7h391l-6 -52h-77v-327c0 -33.333 3.66699 -57.666 11 -72.999
c6.66699 -13.333 19.334 -20 38.001 -20h5l1 -53c-22 0.666992 -40.333 4.66699 -55 12s-26.167 17 -34.5 29s-14.333 26.333 -18 43s-5.5 35.334 -5.5 56.001z" />
    <glyph glyph-name="uni0401" unicode="&#x401;" horiz-adv-x="569" 
d="M363 813c0 13.333 4.66699 24.666 14 33.999s20.666 14 33.999 14s24.666 -4.66699 33.999 -14s14 -20.666 14 -33.999s-4.66699 -24.666 -14 -33.999s-20.666 -14 -33.999 -14s-24.666 4.66699 -33.999 14s-14 20.666 -14 33.999zM183 813
c0 13.333 4.66699 24.666 14 33.999s20.666 14 33.999 14s24.666 -4.66699 33.999 -14s14 -20.666 14 -33.999s-4.66699 -24.666 -14 -33.999s-20.666 -14 -33.999 -14s-24.666 4.66699 -33.999 14s-14 20.666 -14 33.999zM138 384h355v-60h-355v-265h385v-59h-444v708h444
v-59h-385v-265z" />
    <glyph glyph-name="uni0410" unicode="&#x410;" horiz-adv-x="609" 
d="M603 0h-62l-85 236h-304l-83 -236h-62l254 708h86zM173 295h262l-131 369z" />
    <glyph glyph-name="uni0411" unicode="&#x411;" horiz-adv-x="613" 
d="M346 409c36.667 0 69.502 -3.83203 98.502 -11.499s53.5 -20 73.5 -37s35 -38.667 45 -65s15 -58.166 15 -95.499s-6 -68.833 -18 -94.5s-28.333 -46.334 -49 -62.001s-45.334 -26.834 -74.001 -33.501s-59.334 -10 -92.001 -10h-266v708h446v-58h-387v-241h208z
M347.002 58.001c25.333 0 48.5 2.16602 69.5 6.49902s39.167 12 54.5 23s27.333 25.667 36 44s13 41.5 13 69.5c0 52.667 -14.5 91.334 -43.5 116.001s-73.167 37 -132.5 37h-206v-296h209z" />
    <glyph glyph-name="uni0412" unicode="&#x412;" horiz-adv-x="627" 
d="M347 0l-268 0.00195312v708h269c27.333 0 53.333 -3.66699 78 -11s46.167 -18.333 64.5 -33s32.833 -33.334 43.5 -56.001s16 -49 16 -79c0 -32 -5.66699 -61.333 -17 -88s-31 -48 -59 -64c41.333 -14.667 70 -37.667 86 -69s24 -68.333 24 -111
c-0.666992 -36.667 -7.16699 -67.5 -19.5 -92.5s-29 -45.333 -50 -61s-45.833 -26.834 -74.5 -33.501s-59.667 -10 -93 -10zM348 405.002c20.667 0 39.833 2.16699 57.5 6.5s33 11.5 46 21.5s23.167 22.833 30.5 38.5s11 34.834 11 57.501s-3.83301 41.667 -11.5 57
s-18 27.666 -31 36.999s-28.333 16 -46 20s-36.5 6 -56.5 6h-210v-244h210zM358.999 59.002c22 0 42.3311 1.66602 60.998 4.99902c21.333 4 39.833 11.333 55.5 22s27.834 25 36.501 43s13 41 13 69s-4.16699 51.5 -12.5 70.5s-20.166 34.333 -35.499 46
s-33.833 19.834 -55.5 24.501s-46.167 7 -73.5 7h-210v-287h210h11z" />
    <glyph glyph-name="uni0413" unicode="&#x413;" horiz-adv-x="514" 
d="M79 0v708h420v-58h-362v-650h-58z" />
    <glyph glyph-name="uni0414" unicode="&#x414;" horiz-adv-x="672" 
d="M582 -139v139.002h-516v-139h-56v197h23c22.667 3.33301 42 13.166 58 29.499s29.167 40.5 39.5 72.5s18.833 72.667 25.5 122s12.667 108.666 18 177.999l18 248h379v-650h68v-197h-57zM512 58.002l0.00195312 592h-269l-16 -240
c-6.66699 -95.333 -17.334 -171.5 -32.001 -228.5s-35.334 -98.167 -62.001 -123.5h379z" />
    <glyph glyph-name="uni0415" unicode="&#x415;" horiz-adv-x="569" 
d="M138 384h355v-60h-355v-265h385v-59h-444v708h444v-59h-385v-265z" />
    <glyph glyph-name="uni0416" unicode="&#x416;" horiz-adv-x="897" 
d="M478 0h-58v255l-72 78l-261 -333h-77l293 372l-297 336h78l336 -380v380h58v-380l335 380h79l-297 -336l292 -372h-76l-261 333l-72 -78v-255z" />
    <glyph glyph-name="uni0417" unicode="&#x417;" horiz-adv-x="537" 
d="M261 718c62 0 110.505 -17 145.505 -51s52.5 -80.333 52.5 -139c0 -34 -6.33301 -62.833 -19 -86.5s-35.334 -44.834 -68.001 -63.501c24 -9.33301 43.667 -20.5 59 -33.5s27.5 -27.167 36.5 -42.5s15.333 -31.833 19 -49.5s5.5 -36.167 5.5 -55.5
c-0.666992 -37.333 -7.16699 -69 -19.5 -95s-29 -47.333 -50 -64s-45.5 -28.834 -73.5 -36.501s-58.333 -11.5 -91 -11.5c-51.333 0 -97.333 9.33301 -138 28s-74 49 -100 91l53 28c21.333 -30.667 47.333 -53.167 78 -67.5s67 -21.5 109 -21.5
c25.333 0 48.666 2.66699 69.999 8s39.666 14 54.999 26s27.333 27.5 36 46.5s13 42.167 13 69.5s-4.16699 50.5 -12.5 69.5s-20 34.5 -35 46.5s-33.167 20.833 -54.5 26.5s-45.333 8.5 -72 8.5h-92v53h92c41.333 0 75.333 9.83301 102 29.5s40 51.5 40 95.5
c0 22.667 -3.66699 42.334 -11 59.001s-17.333 30.5 -30 41.5s-27.834 19.167 -45.501 24.5s-36.834 8 -57.501 8c-36 0 -67.333 -5.5 -94 -16.5s-49.667 -28.833 -69 -53.5l-49 26c25.333 36.667 56 62.834 92 78.501s77 23.5 123 23.5z" />
    <glyph glyph-name="uni0418" unicode="&#x418;" horiz-adv-x="682" 
d="M79 0v708h58v-548l-1 -80h1l47 73l349 555h70v-708h-58v613h-1l-40 -64l-349 -549h-76z" />
    <glyph glyph-name="uni0419" unicode="&#x419;" horiz-adv-x="682" 
d="M344 779c-20.667 0 -40.167 3.16797 -58.5 9.50098s-34.5 15.666 -48.5 27.999s-25.667 27.333 -35 45s-15.333 37.5 -18 59.5h58c6 -26.667 17 -47.834 33 -63.501s39 -23.5 69 -23.5s53 7.83301 69 23.5s27 36.834 33 63.501h58c-6 -44.667 -23.833 -79.5 -53.5 -104.5
s-65.167 -37.5 -106.5 -37.5zM79 0.000976562v708h58v-628h1l395 628h70v-708h-58v613h-1l-37 -59l-352 -554h-76z" />
    <glyph glyph-name="uni041A" unicode="&#x41a;" horiz-adv-x="616" 
d="M138 0h-59v708h59v-389l396 389h76l-341 -341l339 -367h-76l-305 325l-89 -89v-236z" />
    <glyph glyph-name="uni041B" unicode="&#x41b;" horiz-adv-x="655" 
d="M7 58c36 0 64.168 8.83105 84.501 26.498s35.666 42.834 45.999 75.501s17.5 71.834 21.5 117.501s8 96.5 12 152.5l19 278h386v-708h-59v650h-271l-17 -250c-4 -56 -8.83301 -108.333 -14.5 -157s-16 -91 -31 -127s-36.333 -64.333 -64 -85s-65.167 -31 -112.5 -31v58z
" />
    <glyph glyph-name="uni041C" unicode="&#x41c;" horiz-adv-x="803" 
d="M138 0h-59v708h86l237 -535l236 535h86v-708h-59v626l-235 -529h-56l-236 529v-626z" />
    <glyph glyph-name="uni041D" unicode="&#x41d;" horiz-adv-x="689" 
d="M138 0h-59v708h59v-325h413v325h59v-708h-59v327h-413v-327z" />
    <glyph glyph-name="uni041E" unicode="&#x41e;" horiz-adv-x="665" 
d="M58 506c0 36 8 67.667 24 95s37.167 50.166 63.5 68.499s56.333 32 90 41s68.167 13.5 103.5 13.5c34.667 0 68.834 -4.5 102.501 -13.5s63.667 -22.667 90 -41s47.5 -41.166 63.5 -68.499s24 -59 24 -95v-292c0 -36 -8 -67.667 -24 -95s-37.167 -50.166 -63.5 -68.499
s-56.333 -32 -90 -41s-67.834 -13.5 -102.501 -13.5c-35.333 0 -69.833 4.5 -103.5 13.5s-63.667 22.667 -90 41s-47.5 41.166 -63.5 68.499s-24 59 -24 95v292zM117 214c0 -26.667 6.33105 -49.834 18.998 -69.501s29.5 -36.167 50.5 -49.5s44.667 -23.333 71 -30
s53.5 -10 81.5 -10c27.333 0 54.333 3.33301 81 10s50.334 16.667 71.001 30s37.334 29.833 50.001 49.5s19 42.834 19 69.501v292c0 28 -6.33301 52 -19 72s-29.5 36.5 -50.5 49.5s-44.833 22.5 -71.5 28.5s-54 9 -82 9c-27.333 0 -54.166 -3.16699 -80.499 -9.5
s-49.833 -16 -70.5 -29s-37.334 -29.5 -50.001 -49.5s-19 -43.667 -19 -71v-292z" />
    <glyph glyph-name="uni041F" unicode="&#x41f;" horiz-adv-x="670" 
d="M79 708h512v-708h-58v650h-396v-650h-58v708z" />
    <glyph glyph-name="uni0420" unicode="&#x420;" horiz-adv-x="613" 
d="M79 0l0.000976562 707.999h267c52 0 95.333 -11 130 -33s60.667 -49.333 78 -82c18 -32 27 -66.667 27 -104c0 -39.333 -9 -75.666 -27 -108.999c-16.667 -32.667 -42.334 -60 -77.001 -82s-78 -33 -130 -33h-209v-265h-59zM346.001 323.999
c39.333 0 72.168 8.16699 98.501 24.5s45.833 36.5 58.5 60.5s19 50.167 19 78.5s-6.66699 54.5 -20 78.5s-33 44 -59 60c-24.667 15.333 -55.334 23 -92.001 23h-5h-208v-325h208z" />
    <glyph glyph-name="uni0421" unicode="&#x421;" horiz-adv-x="593" 
d="M325 718c24.667 0 49.333 -2.66797 74 -8.00098s47.667 -13.166 69 -23.499s40.5 -23.5 57.5 -39.5s30.5 -34.667 40.5 -56l-53 -26v-1c-8 16 -18.667 29.833 -32 41.5s-28.5 21.5 -45.5 29.5s-35.167 14 -54.5 18s-39 6 -59 6c-25.333 0 -50.333 -3.33301 -75 -10
s-46.5 -16.5 -65.5 -29.5s-34.333 -29.167 -46 -48.5s-17.5 -42 -17.5 -68v-298c0 -26 5.83301 -48.833 17.5 -68.5s27 -36 46 -49s40.833 -22.667 65.5 -29s49.667 -9.5 75 -9.5c20 0 39.667 2 59 6s37.5 10 54.5 18s32.167 17.833 45.5 29.5s24 25.5 32 41.5l53 -26
c-10 -21.333 -23.667 -40 -41 -56s-36.833 -29.333 -58.5 -40s-44.834 -18.667 -69.501 -24s-49.667 -8 -75 -8c-33.333 0 -65.666 4.5 -96.999 13.5s-59.333 22.5 -84 40.5s-44.5 40.333 -59.5 67s-22.5 58 -22.5 94v298c0 35.333 7.66699 66.5 23 93.5
s35.5 49.5 60.5 67.5s53.333 31.5 85 40.5s64.167 13.5 97.5 13.5z" />
    <glyph glyph-name="uni0422" unicode="&#x422;" horiz-adv-x="559" 
d="M545 651h-236v-651h-59v651h-236v57h531v-57z" />
    <glyph glyph-name="uni0423" unicode="&#x423;" horiz-adv-x="509" 
d="M-10 708h69l198 -420h2l189 420h62l-319 -708h-63l100 221z" />
    <glyph glyph-name="uni0424" unicode="&#x424;" horiz-adv-x="723" 
d="M391 634c36 0 71.167 -2.83301 105.5 -8.5s64.833 -15.5 91.5 -29.5s48.167 -32.833 64.5 -56.5s24.5 -53.5 24.5 -89.5v-192c0 -36 -8.16699 -65.833 -24.5 -89.5s-37.833 -42.5 -64.5 -56.5s-57.167 -23.667 -91.5 -29s-69.5 -8 -105.5 -8v-75h-59v75
c-36 0 -71.167 2.66699 -105.5 8s-64.833 15 -91.5 29s-48.167 32.833 -64.5 56.5s-24.5 53.5 -24.5 89.5v192c0 36 8.16699 65.833 24.5 89.5s37.833 42.5 64.5 56.5s57.167 23.833 91.5 29.5s69.5 8.5 105.5 8.5v74h59v-74zM104 450l0.000976562 -192.002
c0 -27.333 6.66699 -49.333 20 -66s30.833 -29.667 52.5 -39s46.167 -15.666 73.5 -18.999s54.666 -5 81.999 -5l1 451c-27.333 0 -54.666 -1.66699 -81.999 -5s-51.833 -9.66602 -73.5 -18.999s-39.334 -22.5 -53.001 -39.5s-20.5 -39.167 -20.5 -66.5zM391.001 128.998
c27.333 0 54.667 1.66895 82 5.00195s51.833 9.66602 73.5 18.999s39.167 22.333 52.5 39s20 38.667 20 66v192c0 27.333 -7 49.5 -21 66.5s-32 30.167 -54 39.5s-46.5 15.666 -73.5 18.999s-53.5 5 -79.5 5v-451z" />
    <glyph glyph-name="uni0425" unicode="&#x425;" horiz-adv-x="573" 
d="M564 0h-71l-206 307l-207 -307h-71l243 353l-241 355h69l207 -303l206 303h70l-241 -355z" />
    <glyph glyph-name="uni0426" unicode="&#x426;" horiz-adv-x="681" 
d="M589 -139v139h-511v708h58v-650h385v650h59v-650h68v-197h-59z" />
    <glyph glyph-name="uni0427" unicode="&#x427;" horiz-adv-x="601" 
d="M277 232c-32 0 -62.001 4.33008 -90.001 12.9971s-52.5 21.834 -73.5 39.501s-37.5 40 -49.5 67s-18 58.5 -18 94.5v262h58v-262c0 -27.333 4.5 -50.666 13.5 -69.999s21.333 -35.5 37 -48.5s34 -22.5 55 -28.5s43.5 -9 67.5 -9c46 0 83.333 8 112 24
s53.334 35 74.001 57v337h59v-708h-59v313c-24 -23.333 -51 -42.666 -81 -57.999s-65 -23 -105 -23z" />
    <glyph glyph-name="uni0428" unicode="&#x428;" horiz-adv-x="877" 
d="M137 708v-650h272v650h59v-650h272v650h58v-708h-719v708h58z" />
    <glyph glyph-name="uni0429" unicode="&#x429;" horiz-adv-x="898" 
d="M806 -139v139h-729v708h58v-650h272v650h59v-650h272v650h59v-650h67v-197h-58z" />
    <glyph glyph-name="uni042A" unicode="&#x42a;" horiz-adv-x="671" 
d="M406 425c74 0 131.332 -17.333 171.999 -52c40 -34 60 -89.333 60 -166c0 -40 -6 -72.833 -18 -98.5s-28.5 -46.5 -49.5 -62.5s-45.667 -27.667 -74 -35s-59.166 -11 -92.499 -11h-260v653h-128v55h186v-283h204zM406.999 58c25.333 0 48.5 2.33105 69.5 6.99805
s39.167 12.834 54.5 24.501s27.333 26.834 36 45.501s13 42 13 70c0 56.667 -14.5 98.5 -43.5 125.5s-73.5 40.5 -133.5 40.5h-201v-313h205z" />
    <glyph glyph-name="uni042B" unicode="&#x42b;" horiz-adv-x="818" 
d="M739 0h-59v708h59v-708zM340 425c74.667 0 132.334 -17.333 173.001 -52c40 -34 60 -89.333 60 -166c0 -40 -6 -72.833 -18 -98.5s-28.5 -46.5 -49.5 -62.5s-45.833 -27.667 -74.5 -35s-59.334 -11 -92.001 -11h-260v708h58v-283h203zM342 58
c24.667 0 47.667 2.33105 69 6.99805s39.5 12.834 54.5 24.501s26.833 26.834 35.5 45.501s13 42 13 70c0 56.667 -14.333 98.5 -43 125.5s-73 40.5 -133 40.5h-201v-313h205z" />
    <glyph glyph-name="uni042C" unicode="&#x42c;" horiz-adv-x="607" 
d="M340 425c74.667 0 132.334 -17.333 173.001 -52c40 -34 60 -89.333 60 -166c0 -40 -6 -72.833 -18 -98.5s-28.5 -46.5 -49.5 -62.5s-45.833 -27.667 -74.5 -35s-59.334 -11 -92.001 -11h-260v708h58v-283h203zM342 58c24.667 0 47.667 2.33105 69 6.99805
s39.5 12.834 54.5 24.501s26.833 26.834 35.5 45.501s13 42 13 70c0 56.667 -14.333 98.5 -43 125.5s-73 40.5 -133 40.5h-201v-313h205z" />
    <glyph glyph-name="uni042D" unicode="&#x42d;" horiz-adv-x="590" 
d="M271 718c33.333 0 65.667 -4.50098 97 -13.501s59.166 -22.5 83.499 -40.5s43.833 -40.333 58.5 -67s22 -57.334 22 -92.001v-302c0 -35.333 -7.5 -66.166 -22.5 -92.499s-34.667 -48.166 -59 -65.499s-52 -30.5 -83 -39.5s-62.5 -13.5 -94.5 -13.5
c-24 0 -48 2.66699 -72 8s-46.667 13.166 -68 23.499s-40.666 23.333 -57.999 39s-31.333 34.167 -42 55.5l52 25c8.66699 -15.333 19.834 -28.833 33.501 -40.5s28.667 -21.334 45 -29.001s33.833 -13.5 52.5 -17.5s37.667 -6 57 -6c24.667 0 49 3.16699 73 9.5
s45.333 15.833 64 28.5s33.834 28.5 45.501 47.5s17.5 41.5 17.5 67.5v122h-324v58h324v122c0 26 -5.83301 48.667 -17.5 68s-26.834 35.5 -45.501 48.5s-40 22.667 -64 29s-48.333 9.5 -73 9.5c-19.333 0 -38.333 -2 -57 -6s-36.334 -10 -53.001 -18s-31.667 -18 -45 -30
s-24.333 -25.667 -33 -41l-52 28c10.667 20.667 24.667 38.834 42 54.501s36.5 28.834 57.5 39.501s43.333 18.5 67 23.5s47.5 7.5 71.5 7.5z" />
    <glyph glyph-name="uni042E" unicode="&#x42e;" horiz-adv-x="913" 
d="M580 718c34 0 67.5 -4.33398 100.5 -13.001s62.5 -21.834 88.5 -39.501s46.833 -39.667 62.5 -66s23.5 -57.5 23.5 -93.5v-302c0 -36 -7.83301 -67.333 -23.5 -94s-36.5 -48.834 -62.5 -66.501s-55.5 -31 -88.5 -40s-66.5 -13.5 -100.5 -13.5s-67.5 4.5 -100.5 13.5
s-62.333 22.333 -88 40s-46.334 39.834 -62.001 66.501s-23.5 58 -23.5 94v126h-171v-330h-58v708h58v-322h171v120c0 35.333 7.83301 66.333 23.5 93s36.334 48.834 62.001 66.501s55 30.834 88 39.501s66.5 13 100.5 13zM579 660.999
c-27.333 0 -53.834 -3.16602 -79.501 -9.49902s-48.5 -15.833 -68.5 -28.5s-36.167 -28.834 -48.5 -48.501s-18.5 -42.834 -18.5 -69.501v-301c0 -26 6.16699 -48.833 18.5 -68.5s28.5 -36 48.5 -49s43 -22.667 69 -29s52.667 -9.5 80 -9.5c26.667 0 53 3.16699 79 9.5
s49.333 16 70 29s37.167 29.333 49.5 49s18.5 42.5 18.5 68.5v301c0 27.333 -6.33301 50.833 -19 70.5s-29.167 35.834 -49.5 48.501s-43.666 22 -69.999 28s-52.833 9 -79.5 9z" />
    <glyph glyph-name="uni042F" unicode="&#x42f;" horiz-adv-x="616" 
d="M42 497c0 67.333 21 119.332 63 155.999s100.333 55 175 55h257v-708h-59l1 298h-131l-254 -298h-77l256 298c-31.333 0.666992 -61 4.83398 -89 12.501s-52.5 19.5 -73.5 35.5s-37.667 36.333 -50 61s-18.5 54.667 -18.5 90zM272 650.999
c-56 0 -98.334 -13.668 -127.001 -41.001c-29.333 -27.333 -44 -65 -44 -113c0 -26 5 -48.333 15 -67s23.333 -33.667 40 -45s35.834 -19.666 57.501 -24.999s44.5 -8 68.5 -8h197l-1 299h-202h-4z" />
    <glyph glyph-name="uni0430" unicode="&#x430;" horiz-adv-x="491" 
d="M373 363c0 18.667 -4.00391 34.8359 -12.0039 48.5029s-18.833 25.167 -32.5 34.5s-29 16.333 -46 21s-34.5 7 -52.5 7c-26 0 -51 -4.33301 -75 -13s-42.667 -21.667 -56 -39l-38 36c21.333 23.333 47.666 40.833 78.999 52.5s63.333 17.5 96 17.5
c24.667 0 48.667 -3.5 72 -10.5s44 -17.333 62 -31s32.333 -30.834 43 -51.501s16 -44.667 16 -72v-340c-68 -23.333 -138.667 -34.333 -212 -33c-25.333 0 -49 3.33301 -71 10s-41.167 16.667 -57.5 30s-29.166 29.833 -38.499 49.5s-14 43.167 -14 70.5
c0 29.333 5.83301 54.166 17.5 74.499s26.834 37 45.501 50s39.834 22.5 63.501 28.5s47.834 9 72.501 9c24 0 47.833 -2.33301 71.5 -7s45.834 -11.334 66.501 -20.001v78zM236.996 264.002c-19.333 0 -37.668 -1.83105 -55.001 -5.49805s-32.666 -10 -45.999 -19
s-24 -20.667 -32 -35s-12 -32.5 -12 -54.5c0 -39.333 12.167 -67.333 36.5 -84s54.833 -25.334 91.5 -26.001c25.333 -0.666992 51 0.166016 77 2.49902s51.333 6.5 76 12.5v184c-17.333 6.66699 -38 12.5 -62 17.5s-48.667 7.5 -74 7.5zM35.9941 0.00390625z" />
    </font>
</defs>
</svg>
